%TF.GenerationSoftware,KiCad,Pcbnew,9.0.1*%
%TF.CreationDate,2025-12-21T14:27:50+05:30*%
%TF.ProjectId,MCU_Datalogger,4d43555f-4461-4746-916c-6f676765722e,rev?*%
%TF.SameCoordinates,Original*%
%TF.FileFunction,Plated,1,2,PTH,Drill*%
%TF.FilePolarity,Positive*%
%FSLAX46Y46*%
G04 Gerber Fmt 4.6, Leading zero omitted, Abs format (unit mm)*
G04 Created by KiCad (PCBNEW 9.0.1) date 2025-12-21 14:27:50*
%MOMM*%
%LPD*%
G01*
G04 APERTURE LIST*
%TA.AperFunction,ViaDrill*%
%ADD10C,0.400000*%
%TD*%
%TA.AperFunction,ComponentDrill*%
%ADD11C,1.000000*%
%TD*%
G04 APERTURE END LIST*
D10*
X107746800Y-81432400D03*
X108610400Y-83921600D03*
X108712000Y-87884000D03*
X111302800Y-90373200D03*
X113135500Y-96625500D03*
X114960400Y-91287600D03*
X115316000Y-88392000D03*
X115316000Y-88392000D03*
X117703792Y-91357777D03*
X119583200Y-89865200D03*
X120700800Y-93014800D03*
X123153000Y-92818471D03*
X123346171Y-93799638D03*
X123972827Y-91629166D03*
X124023000Y-94925000D03*
X124160449Y-86507211D03*
X124256800Y-88138000D03*
X124968000Y-81534000D03*
X124994700Y-90424000D03*
X125686293Y-94707598D03*
X125719700Y-91440000D03*
X126644400Y-87833200D03*
X127508000Y-89408000D03*
X128270000Y-80772000D03*
X128524000Y-86868000D03*
X128981200Y-88646000D03*
X129032000Y-90373200D03*
X129641600Y-86156800D03*
X131318000Y-84531200D03*
X131521200Y-93116400D03*
X132689600Y-80518000D03*
X133096000Y-89916000D03*
X133312500Y-95287500D03*
X133553200Y-81432400D03*
X135578055Y-87580200D03*
X137363200Y-80467200D03*
X138176000Y-95250000D03*
X139852400Y-92673000D03*
X142544800Y-80721200D03*
X142951200Y-87122000D03*
X144424400Y-87223600D03*
X145186400Y-84836000D03*
X146456400Y-94386400D03*
X152400000Y-93980000D03*
D11*
%TO.C,BT1*%
X106172000Y-84074000D03*
X106172000Y-86614000D03*
%TO.C,J3*%
X108458000Y-104394000D03*
X110998000Y-104394000D03*
X113538000Y-104394000D03*
X116078000Y-104394000D03*
X118618000Y-104394000D03*
X121158000Y-104394000D03*
X123698000Y-104394000D03*
X126238000Y-104394000D03*
X128778000Y-104394000D03*
%TO.C,J2*%
X134620000Y-104394000D03*
X137160000Y-104394000D03*
X139700000Y-104394000D03*
X142240000Y-104394000D03*
%TO.C,J5*%
X147574000Y-83312000D03*
X147574000Y-85852000D03*
X147574000Y-88392000D03*
X150114000Y-83312000D03*
X150114000Y-85852000D03*
X150114000Y-88392000D03*
%TO.C,J1*%
X150114000Y-92202000D03*
X150114000Y-94742000D03*
X150114000Y-97282000D03*
X150114000Y-99822000D03*
M02*
