%TF.GenerationSoftware,KiCad,Pcbnew,9.0.1*%
%TF.CreationDate,2025-12-21T14:26:40+05:30*%
%TF.ProjectId,MCU_Datalogger,4d43555f-4461-4746-916c-6f676765722e,rev?*%
%TF.SameCoordinates,Original*%
%TF.FileFunction,Copper,L1,Top*%
%TF.FilePolarity,Positive*%
%FSLAX46Y46*%
G04 Gerber Fmt 4.6, Leading zero omitted, Abs format (unit mm)*
G04 Created by KiCad (PCBNEW 9.0.1) date 2025-12-21 14:26:40*
%MOMM*%
%LPD*%
G01*
G04 APERTURE LIST*
G04 Aperture macros list*
%AMRoundRect*
0 Rectangle with rounded corners*
0 $1 Rounding radius*
0 $2 $3 $4 $5 $6 $7 $8 $9 X,Y pos of 4 corners*
0 Add a 4 corners polygon primitive as box body*
4,1,4,$2,$3,$4,$5,$6,$7,$8,$9,$2,$3,0*
0 Add four circle primitives for the rounded corners*
1,1,$1+$1,$2,$3*
1,1,$1+$1,$4,$5*
1,1,$1+$1,$6,$7*
1,1,$1+$1,$8,$9*
0 Add four rect primitives between the rounded corners*
20,1,$1+$1,$2,$3,$4,$5,0*
20,1,$1+$1,$4,$5,$6,$7,0*
20,1,$1+$1,$6,$7,$8,$9,0*
20,1,$1+$1,$8,$9,$2,$3,0*%
G04 Aperture macros list end*
%TA.AperFunction,SMDPad,CuDef*%
%ADD10RoundRect,0.162500X-0.650000X-0.162500X0.650000X-0.162500X0.650000X0.162500X-0.650000X0.162500X0*%
%TD*%
%TA.AperFunction,SMDPad,CuDef*%
%ADD11RoundRect,0.250000X0.250000X0.475000X-0.250000X0.475000X-0.250000X-0.475000X0.250000X-0.475000X0*%
%TD*%
%TA.AperFunction,ComponentPad*%
%ADD12R,1.700000X1.700000*%
%TD*%
%TA.AperFunction,ComponentPad*%
%ADD13C,1.700000*%
%TD*%
%TA.AperFunction,SMDPad,CuDef*%
%ADD14RoundRect,0.250000X-0.262500X-0.450000X0.262500X-0.450000X0.262500X0.450000X-0.262500X0.450000X0*%
%TD*%
%TA.AperFunction,SMDPad,CuDef*%
%ADD15RoundRect,0.068750X-0.666250X-0.206250X0.666250X-0.206250X0.666250X0.206250X-0.666250X0.206250X0*%
%TD*%
%TA.AperFunction,SMDPad,CuDef*%
%ADD16RoundRect,0.068750X-0.206250X-0.666250X0.206250X-0.666250X0.206250X0.666250X-0.206250X0.666250X0*%
%TD*%
%TA.AperFunction,SMDPad,CuDef*%
%ADD17RoundRect,0.250000X-0.250000X-0.475000X0.250000X-0.475000X0.250000X0.475000X-0.250000X0.475000X0*%
%TD*%
%TA.AperFunction,SMDPad,CuDef*%
%ADD18RoundRect,0.073750X-0.911250X-0.221250X0.911250X-0.221250X0.911250X0.221250X-0.911250X0.221250X0*%
%TD*%
%TA.AperFunction,SMDPad,CuDef*%
%ADD19RoundRect,0.250000X0.262500X0.450000X-0.262500X0.450000X-0.262500X-0.450000X0.262500X-0.450000X0*%
%TD*%
%TA.AperFunction,SMDPad,CuDef*%
%ADD20R,3.500000X2.400000*%
%TD*%
%TA.AperFunction,SMDPad,CuDef*%
%ADD21R,2.400000X3.500000*%
%TD*%
%TA.AperFunction,SMDPad,CuDef*%
%ADD22RoundRect,0.243750X-0.243750X-0.456250X0.243750X-0.456250X0.243750X0.456250X-0.243750X0.456250X0*%
%TD*%
%TA.AperFunction,ViaPad*%
%ADD23C,0.800000*%
%TD*%
%TA.AperFunction,ViaPad*%
%ADD24C,0.900000*%
%TD*%
%TA.AperFunction,Conductor*%
%ADD25C,0.250000*%
%TD*%
%TA.AperFunction,Conductor*%
%ADD26C,0.350000*%
%TD*%
G04 APERTURE END LIST*
D10*
%TO.P,U1,8,VCC*%
%TO.N,/Vcc*%
X117570500Y-85217000D03*
%TO.P,U1,7,WP*%
%TO.N,GND*%
X117570500Y-86487000D03*
%TO.P,U1,6,SCL*%
%TO.N,/SCK*%
X117570500Y-87757000D03*
%TO.P,U1,5,SDA*%
%TO.N,/SDA*%
X117570500Y-89027000D03*
%TO.P,U1,4,GND*%
%TO.N,GND*%
X110395500Y-89027000D03*
%TO.P,U1,3,A2*%
%TO.N,/Vcc*%
X110395500Y-87757000D03*
%TO.P,U1,2,A1*%
X110395500Y-86487000D03*
%TO.P,U1,1,A0*%
X110395500Y-85217000D03*
%TD*%
D11*
%TO.P,C1,1*%
%TO.N,GND*%
X136953000Y-97028000D03*
%TO.P,C1,2*%
%TO.N,Net-(U4-AREF)*%
X135053000Y-97028000D03*
%TD*%
D12*
%TO.P,J1,1,Pin_1*%
%TO.N,GND*%
X150114000Y-92202000D03*
D13*
%TO.P,J1,2,Pin_2*%
%TO.N,/Vcc*%
X150114000Y-94742000D03*
%TO.P,J1,3,Pin_3*%
%TO.N,/SDA*%
X150114000Y-97282000D03*
%TO.P,J1,4,Pin_4*%
%TO.N,/SCK*%
X150114000Y-99822000D03*
%TD*%
D12*
%TO.P,BT1,1,+*%
%TO.N,/Vcc*%
X106172000Y-84074000D03*
D13*
%TO.P,BT1,2,-*%
%TO.N,GND*%
X106172000Y-86614000D03*
%TD*%
D14*
%TO.P,R5,1*%
%TO.N,/Vcc*%
X139700000Y-85852000D03*
%TO.P,R5,2*%
%TO.N,/RESET*%
X141525000Y-85852000D03*
%TD*%
D15*
%TO.P,U4,1,PD3*%
%TO.N,/D3*%
X122830000Y-85994000D03*
%TO.P,U4,2,PD4*%
%TO.N,/D4*%
X122830000Y-86794000D03*
%TO.P,U4,3,GND*%
%TO.N,GND*%
X122830000Y-87594000D03*
%TO.P,U4,4,VCC*%
%TO.N,/Vcc*%
X122830000Y-88394000D03*
%TO.P,U4,5,GND*%
%TO.N,GND*%
X122830000Y-89194000D03*
%TO.P,U4,6,VCC*%
%TO.N,unconnected-(U4-VCC-Pad6)*%
X122830000Y-89994000D03*
%TO.P,U4,7,PB6*%
%TO.N,Net-(U4-PB6)*%
X122830000Y-90794000D03*
%TO.P,U4,8,PB7*%
%TO.N,Net-(U4-PB7)*%
X122830000Y-91594000D03*
D16*
%TO.P,U4,9,PD5*%
%TO.N,/D5*%
X124200000Y-92964000D03*
%TO.P,U4,10,PD6*%
%TO.N,/D6*%
X125000000Y-92964000D03*
%TO.P,U4,11,PD7*%
%TO.N,/D7*%
X125800000Y-92964000D03*
%TO.P,U4,12,PB0*%
%TO.N,/D8*%
X126600000Y-92964000D03*
%TO.P,U4,13,PB1*%
%TO.N,unconnected-(U4-PB1-Pad13)*%
X127400000Y-92964000D03*
%TO.P,U4,14,PB2*%
%TO.N,unconnected-(U4-PB2-Pad14)*%
X128200000Y-92964000D03*
%TO.P,U4,15,PB3*%
%TO.N,/MOSI*%
X129000000Y-92964000D03*
%TO.P,U4,16,PB4*%
%TO.N,/MISO*%
X129800000Y-92964000D03*
D15*
%TO.P,U4,17,PB5*%
%TO.N,/SCK*%
X131170000Y-91594000D03*
%TO.P,U4,18,AVCC*%
%TO.N,/Vcc*%
X131170000Y-90794000D03*
%TO.P,U4,19,ADC6*%
%TO.N,unconnected-(U4-ADC6-Pad19)*%
X131170000Y-89994000D03*
%TO.P,U4,20,AREF*%
%TO.N,Net-(U4-AREF)*%
X131170000Y-89194000D03*
%TO.P,U4,21,GND*%
%TO.N,GND*%
X131170000Y-88394000D03*
%TO.P,U4,22,ADC7*%
%TO.N,unconnected-(U4-ADC7-Pad22)*%
X131170000Y-87594000D03*
%TO.P,U4,23,PC0*%
%TO.N,unconnected-(U4-PC0-Pad23)*%
X131170000Y-86794000D03*
%TO.P,U4,24,PC1*%
%TO.N,unconnected-(U4-PC1-Pad24)*%
X131170000Y-85994000D03*
D16*
%TO.P,U4,25,PC2*%
%TO.N,unconnected-(U4-PC2-Pad25)*%
X129800000Y-84624000D03*
%TO.P,U4,26,PC3*%
%TO.N,unconnected-(U4-PC3-Pad26)*%
X129000000Y-84624000D03*
%TO.P,U4,27,PC4*%
%TO.N,/SDA*%
X128200000Y-84624000D03*
%TO.P,U4,28,PC5*%
%TO.N,/SCK*%
X127400000Y-84624000D03*
%TO.P,U4,29,PC6/~{RESET}*%
%TO.N,/RESET*%
X126600000Y-84624000D03*
%TO.P,U4,30,PD0*%
%TO.N,/Rx*%
X125800000Y-84624000D03*
%TO.P,U4,31,PD1*%
%TO.N,/Tx*%
X125000000Y-84624000D03*
%TO.P,U4,32,PD2*%
%TO.N,/D2*%
X124200000Y-84624000D03*
%TD*%
D17*
%TO.P,C2,1*%
%TO.N,Net-(U4-PB7)*%
X125796000Y-78740000D03*
%TO.P,C2,2*%
%TO.N,GND*%
X127696000Y-78740000D03*
%TD*%
D14*
%TO.P,R3,1*%
%TO.N,/Vcc*%
X110951000Y-100584000D03*
%TO.P,R3,2*%
%TO.N,Net-(U3-~{INTA})*%
X112776000Y-100584000D03*
%TD*%
D18*
%TO.P,U3,1,X1*%
%TO.N,Net-(U3-X1)*%
X111539500Y-93218000D03*
%TO.P,U3,2,X2*%
%TO.N,Net-(U3-X2)*%
X111539500Y-94488000D03*
%TO.P,U3,3,~{INTA}*%
%TO.N,Net-(U3-~{INTA})*%
X111539500Y-95758000D03*
%TO.P,U3,4,GND*%
%TO.N,GND*%
X111539500Y-97028000D03*
%TO.P,U3,5,SDA*%
%TO.N,/SDA*%
X116489500Y-97028000D03*
%TO.P,U3,6,SCL*%
%TO.N,/SCK*%
X116489500Y-95758000D03*
%TO.P,U3,7,SQW/~INT*%
%TO.N,Net-(U3-SQW{slash}~INT)*%
X116489500Y-94488000D03*
%TO.P,U3,8,VCC*%
%TO.N,/Vcc*%
X116489500Y-93218000D03*
%TD*%
D12*
%TO.P,J3,1,Pin_1*%
%TO.N,/D2*%
X108458000Y-104394000D03*
D13*
%TO.P,J3,2,Pin_2*%
%TO.N,/D3*%
X110998000Y-104394000D03*
%TO.P,J3,3,Pin_3*%
%TO.N,/D4*%
X113538000Y-104394000D03*
%TO.P,J3,4,Pin_4*%
%TO.N,/D5*%
X116078000Y-104394000D03*
%TO.P,J3,5,Pin_5*%
%TO.N,/D6*%
X118618000Y-104394000D03*
%TO.P,J3,6,Pin_6*%
%TO.N,/D7*%
X121158000Y-104394000D03*
%TO.P,J3,7,Pin_7*%
%TO.N,/D8*%
X123698000Y-104394000D03*
%TO.P,J3,8,Pin_8*%
%TO.N,GND*%
X126238000Y-104394000D03*
%TO.P,J3,9,Pin_9*%
%TO.N,/Vcc*%
X128778000Y-104394000D03*
%TD*%
D12*
%TO.P,J5,1,Pin_1*%
%TO.N,/MISO*%
X147574000Y-83312000D03*
D13*
%TO.P,J5,2,Pin_2*%
%TO.N,/Vcc*%
X150114000Y-83312000D03*
%TO.P,J5,3,Pin_3*%
%TO.N,/SCK*%
X147574000Y-85852000D03*
%TO.P,J5,4,Pin_4*%
%TO.N,/MOSI*%
X150114000Y-85852000D03*
%TO.P,J5,5,Pin_5*%
%TO.N,/RESET*%
X147574000Y-88392000D03*
%TO.P,J5,6,Pin_6*%
%TO.N,GND*%
X150114000Y-88392000D03*
%TD*%
D14*
%TO.P,R2,1*%
%TO.N,Net-(D1-K)*%
X139700000Y-82296000D03*
%TO.P,R2,2*%
%TO.N,GND*%
X141525000Y-82296000D03*
%TD*%
D12*
%TO.P,J2,1,Pin_1*%
%TO.N,GND*%
X134620000Y-104394000D03*
D13*
%TO.P,J2,2,Pin_2*%
%TO.N,/Vcc*%
X137160000Y-104394000D03*
%TO.P,J2,3,Pin_3*%
%TO.N,/Rx*%
X139700000Y-104394000D03*
%TO.P,J2,4,Pin_4*%
%TO.N,/Tx*%
X142240000Y-104394000D03*
%TD*%
D19*
%TO.P,R4,1*%
%TO.N,/Vcc*%
X117094000Y-100584000D03*
%TO.P,R4,2*%
%TO.N,Net-(U3-SQW{slash}~INT)*%
X115269000Y-100584000D03*
%TD*%
D17*
%TO.P,C4,1*%
%TO.N,/Vcc*%
X121478000Y-78740000D03*
%TO.P,C4,2*%
%TO.N,GND*%
X123378000Y-78740000D03*
%TD*%
D19*
%TO.P,R7,1*%
%TO.N,/Vcc*%
X136953000Y-85852000D03*
%TO.P,R7,2*%
%TO.N,/SDA*%
X135128000Y-85852000D03*
%TD*%
%TO.P,R6,1*%
%TO.N,/Vcc*%
X136953000Y-89408000D03*
%TO.P,R6,2*%
%TO.N,/SCK*%
X135128000Y-89408000D03*
%TD*%
D20*
%TO.P,Y2,1,1*%
%TO.N,Net-(U4-PB7)*%
X129600000Y-97176000D03*
%TO.P,Y2,2,2*%
%TO.N,Net-(U4-PB6)*%
X124400000Y-97176000D03*
%TD*%
D21*
%TO.P,Y1,1,1*%
%TO.N,Net-(U3-X2)*%
X106172000Y-96894000D03*
%TO.P,Y1,2,2*%
%TO.N,Net-(U3-X1)*%
X106172000Y-91694000D03*
%TD*%
D22*
%TO.P,D1,1,K*%
%TO.N,Net-(D1-K)*%
X139571500Y-78740000D03*
%TO.P,D1,2,A*%
%TO.N,/SCK*%
X141446500Y-78740000D03*
%TD*%
D10*
%TO.P,U2,1,A0*%
%TO.N,/Vcc*%
X110427000Y-78740000D03*
%TO.P,U2,2,A1*%
%TO.N,GND*%
X110427000Y-80010000D03*
%TO.P,U2,3,A2*%
%TO.N,/Vcc*%
X110427000Y-81280000D03*
%TO.P,U2,4,GND*%
%TO.N,GND*%
X110427000Y-82550000D03*
%TO.P,U2,5,SDA*%
%TO.N,/SDA*%
X117602000Y-82550000D03*
%TO.P,U2,6,SCL*%
%TO.N,/SCK*%
X117602000Y-81280000D03*
%TO.P,U2,7,WP*%
%TO.N,GND*%
X117602000Y-80010000D03*
%TO.P,U2,8,VCC*%
%TO.N,/Vcc*%
X117602000Y-78740000D03*
%TD*%
D11*
%TO.P,C3,1*%
%TO.N,GND*%
X136953000Y-93218000D03*
%TO.P,C3,2*%
%TO.N,Net-(U4-PB6)*%
X135053000Y-93218000D03*
%TD*%
D17*
%TO.P,C5,1*%
%TO.N,/Vcc*%
X130180000Y-78740000D03*
%TO.P,C5,2*%
%TO.N,GND*%
X132080000Y-78740000D03*
%TD*%
D19*
%TO.P,R1,1*%
%TO.N,GND*%
X136746000Y-82296000D03*
%TO.P,R1,2*%
%TO.N,Net-(D2-K)*%
X134921000Y-82296000D03*
%TD*%
D22*
%TO.P,D2,1,K*%
%TO.N,Net-(D2-K)*%
X134921000Y-78740000D03*
%TO.P,D2,2,A*%
%TO.N,/Vcc*%
X136796000Y-78740000D03*
%TD*%
D23*
%TO.N,/Vcc*%
X108610400Y-83921600D03*
X107746800Y-81432400D03*
X108712000Y-87884000D03*
X111302800Y-90373200D03*
D24*
%TO.N,GND*%
X146456400Y-94386400D03*
X129641600Y-86156800D03*
X114960400Y-91287600D03*
X117703792Y-91357777D03*
X120700800Y-93014800D03*
X132689600Y-80518000D03*
D23*
X113135500Y-96625500D03*
D24*
X138176000Y-95250000D03*
X137363200Y-80467200D03*
X142544800Y-80721200D03*
D23*
%TO.N,/Vcc*%
X129032000Y-90373200D03*
X128524000Y-86868000D03*
X128270000Y-80772000D03*
X133096000Y-89916000D03*
X124256800Y-88138000D03*
X128981200Y-88646000D03*
X133553200Y-81432400D03*
%TO.N,Net-(U4-AREF)*%
X133312500Y-95287500D03*
X127508000Y-89408000D03*
%TO.N,Net-(U4-PB7)*%
X123972827Y-91629166D03*
X124968000Y-81534000D03*
%TO.N,/Vcc*%
X152400000Y-93980000D03*
X142951200Y-87122000D03*
%TO.N,/SCK*%
X144424400Y-87223600D03*
X115316000Y-88392000D03*
X115316000Y-88392000D03*
X145186400Y-84836000D03*
X119583200Y-89865200D03*
%TO.N,/SDA*%
X139852400Y-92673000D03*
X135578055Y-87580200D03*
%TO.N,/Rx*%
X125719700Y-91440000D03*
%TO.N,/Tx*%
X124994700Y-90424000D03*
%TO.N,/D7*%
X124023000Y-94925000D03*
%TO.N,/D5*%
X123153000Y-92818471D03*
%TO.N,/D6*%
X123346171Y-93799638D03*
%TO.N,/D2*%
X124160449Y-86507211D03*
%TO.N,/D8*%
X125686293Y-94707598D03*
%TO.N,/MISO*%
X131521200Y-93116400D03*
%TO.N,/RESET*%
X131318000Y-84531200D03*
X126644400Y-87833200D03*
%TD*%
D25*
%TO.N,/SDA*%
X135128000Y-87477600D02*
X135128000Y-85852000D01*
X135230600Y-87580200D02*
X135128000Y-87477600D01*
X135578055Y-87580200D02*
X135230600Y-87580200D01*
%TO.N,/RESET*%
X140499000Y-84826000D02*
X141525000Y-85852000D01*
X136444986Y-84826000D02*
X140499000Y-84826000D01*
X136114500Y-87092500D02*
X136114500Y-85156486D01*
X136502000Y-87480000D02*
X136114500Y-87092500D01*
X136502000Y-88034000D02*
X136502000Y-87480000D01*
X134928880Y-88305200D02*
X136230800Y-88305200D01*
X136230800Y-88305200D02*
X136502000Y-88034000D01*
X136114500Y-85156486D02*
X136444986Y-84826000D01*
X131318000Y-84694320D02*
X134928880Y-88305200D01*
X131318000Y-84531200D02*
X131318000Y-84694320D01*
D26*
%TO.N,GND*%
X137617200Y-97028000D02*
X136953000Y-97028000D01*
X138176000Y-94441000D02*
X136953000Y-93218000D01*
X138176000Y-95250000D02*
X138176000Y-94441000D01*
X138176000Y-95250000D02*
X138176000Y-96469200D01*
X138176000Y-96469200D02*
X137617200Y-97028000D01*
D25*
%TO.N,/SDA*%
X142457000Y-92673000D02*
X139852400Y-92673000D01*
X145288000Y-95504000D02*
X142457000Y-92673000D01*
X148336000Y-95504000D02*
X145288000Y-95504000D01*
X150114000Y-97282000D02*
X148336000Y-95504000D01*
%TO.N,/D4*%
X121799334Y-86794000D02*
X122830000Y-86794000D01*
X121725334Y-86868000D02*
X121799334Y-86794000D01*
X120751120Y-86868000D02*
X121725334Y-86868000D01*
X120733000Y-89350470D02*
X120733000Y-86886120D01*
X120760200Y-89377670D02*
X120733000Y-89350470D01*
X120760200Y-90352730D02*
X120760200Y-89377670D01*
X119774000Y-91338930D02*
X120760200Y-90352730D01*
X119774000Y-91718120D02*
X119774000Y-91338930D01*
X119380000Y-101348504D02*
X119380000Y-92112120D01*
X117510504Y-103218000D02*
X119380000Y-101348504D01*
X115590884Y-103218000D02*
X117510504Y-103218000D01*
X114025116Y-103906884D02*
X114902000Y-103906884D01*
X113538000Y-104394000D02*
X114025116Y-103906884D01*
X120733000Y-86886120D02*
X120751120Y-86868000D01*
X114902000Y-103906884D02*
X115590884Y-103218000D01*
X119380000Y-92112120D02*
X119774000Y-91718120D01*
%TO.N,/D3*%
X120987310Y-85994000D02*
X122830000Y-85994000D01*
X120282000Y-86699310D02*
X120987310Y-85994000D01*
X120282000Y-89537280D02*
X120282000Y-86699310D01*
X120309200Y-89564480D02*
X120282000Y-89537280D01*
X120309200Y-90165920D02*
X120309200Y-89564480D01*
X119323000Y-91531310D02*
X119323000Y-91152120D01*
X118872000Y-91982310D02*
X119323000Y-91531310D01*
X119323000Y-91152120D02*
X120309200Y-90165920D01*
X112776000Y-102616000D02*
X117348000Y-102616000D01*
X118872000Y-101092000D02*
X118872000Y-91982310D01*
X110998000Y-104394000D02*
X112776000Y-102616000D01*
X117348000Y-102616000D02*
X118872000Y-101092000D01*
%TO.N,/SDA*%
X118529792Y-91015636D02*
X118364000Y-90849844D01*
X118364000Y-90849844D02*
X118364000Y-89916000D01*
X118421000Y-91808710D02*
X118421000Y-91795500D01*
X118364000Y-91865710D02*
X118421000Y-91808710D01*
X118364000Y-97028000D02*
X118364000Y-91865710D01*
X118421000Y-91795500D02*
X118529792Y-91686708D01*
X118529792Y-91686708D02*
X118529792Y-91015636D01*
X116489500Y-97028000D02*
X118364000Y-97028000D01*
%TO.N,/D5*%
X123876200Y-92964000D02*
X124200000Y-92964000D01*
X123153000Y-92818471D02*
X123730671Y-92818471D01*
X123730671Y-92818471D02*
X123876200Y-92964000D01*
%TO.N,/D6*%
X124571666Y-94025000D02*
X125000000Y-93596666D01*
X123608724Y-94025000D02*
X124571666Y-94025000D01*
X123383362Y-93799638D02*
X123608724Y-94025000D01*
X123346171Y-93799638D02*
X123383362Y-93799638D01*
X125000000Y-93596666D02*
X125000000Y-92964000D01*
%TO.N,/SCK*%
X117094000Y-95758000D02*
X116489500Y-95758000D01*
X117856000Y-94996000D02*
X117094000Y-95758000D01*
X117856000Y-93472000D02*
X117856000Y-94996000D01*
X117800500Y-93416500D02*
X117856000Y-93472000D01*
X117568376Y-92597000D02*
X117800500Y-92829124D01*
X116473000Y-92597000D02*
X117568376Y-92597000D01*
X116432000Y-90016000D02*
X116432000Y-92556000D01*
X117800500Y-92829124D02*
X117800500Y-93416500D01*
X115824000Y-89408000D02*
X116432000Y-90016000D01*
X115824000Y-88900000D02*
X115824000Y-89408000D01*
X115316000Y-88392000D02*
X115824000Y-88900000D01*
X116432000Y-92556000D02*
X116473000Y-92597000D01*
%TO.N,/Vcc*%
X107746800Y-81432400D02*
X107899200Y-81280000D01*
X109905800Y-85217000D02*
X108610400Y-83921600D01*
X110395500Y-85217000D02*
X109905800Y-85217000D01*
X107899200Y-81280000D02*
X109220000Y-81280000D01*
X110268500Y-87884000D02*
X110395500Y-87757000D01*
X108712000Y-87884000D02*
X110268500Y-87884000D01*
X114147600Y-93218000D02*
X111302800Y-90373200D01*
X116489500Y-93218000D02*
X114147600Y-93218000D01*
X114300000Y-101610000D02*
X114300000Y-94422500D01*
X114300000Y-101610000D02*
X111977000Y-101610000D01*
D26*
%TO.N,GND*%
X148640800Y-92202000D02*
X146456400Y-94386400D01*
X150114000Y-92202000D02*
X148640800Y-92202000D01*
X150114000Y-88392000D02*
X150114000Y-92202000D01*
X110395500Y-89027000D02*
X113512859Y-89027000D01*
X113512859Y-89027000D02*
X114300000Y-88239859D01*
D25*
%TO.N,/SDA*%
X135128000Y-84836000D02*
X135128000Y-85852000D01*
D26*
%TO.N,GND*%
X124529000Y-77589000D02*
X126545000Y-77589000D01*
X123378000Y-78740000D02*
X124529000Y-77589000D01*
X126545000Y-77589000D02*
X127696000Y-78740000D01*
X129641600Y-87639688D02*
X129641600Y-86156800D01*
X130395912Y-88394000D02*
X129641600Y-87639688D01*
X131170000Y-88394000D02*
X130395912Y-88394000D01*
X114300000Y-90627200D02*
X114960400Y-91287600D01*
X116052859Y-86487000D02*
X114300000Y-88239859D01*
X114300000Y-88239859D02*
X114300000Y-90627200D01*
X117570500Y-86487000D02*
X116052859Y-86487000D01*
X120700800Y-91408968D02*
X120700800Y-93014800D01*
X121840956Y-88979044D02*
X121412000Y-89408000D01*
X121412000Y-89408000D02*
X121412000Y-90697768D01*
X121840956Y-88979044D02*
X122055912Y-89194000D01*
X121412000Y-90697768D02*
X120700800Y-91408968D01*
X121669000Y-87980912D02*
X121669000Y-88807088D01*
X122055912Y-89194000D02*
X122830000Y-89194000D01*
X122055912Y-87594000D02*
X121669000Y-87980912D01*
X121669000Y-88807088D02*
X121840956Y-88979044D01*
X122830000Y-87594000D02*
X122055912Y-87594000D01*
D25*
%TO.N,/SCK*%
X127074000Y-83563000D02*
X127400000Y-83889000D01*
X122021500Y-82804000D02*
X122780500Y-83563000D01*
X119888000Y-82804000D02*
X122021500Y-82804000D01*
X127400000Y-83889000D02*
X127400000Y-84624000D01*
X122780500Y-83563000D02*
X127074000Y-83563000D01*
X119888000Y-86455500D02*
X119888000Y-82804000D01*
X119831000Y-89617400D02*
X119831000Y-86512500D01*
X119583200Y-89865200D02*
X119831000Y-89617400D01*
X119831000Y-86512500D02*
X119888000Y-86455500D01*
D26*
%TO.N,GND*%
X110427000Y-82550000D02*
X110179000Y-82798000D01*
X111539500Y-97028000D02*
X112733000Y-97028000D01*
X122108000Y-80010000D02*
X123378000Y-78740000D01*
X103632000Y-84074000D02*
X106172000Y-86614000D01*
X110427000Y-82550000D02*
X110806268Y-82550000D01*
X110806268Y-82550000D02*
X111760000Y-81596268D01*
X117602000Y-80010000D02*
X122108000Y-80010000D01*
X141525000Y-82296000D02*
X141525000Y-81741000D01*
X137363200Y-81678800D02*
X137363200Y-80467200D01*
X111760000Y-80010000D02*
X117602000Y-80010000D01*
X109214000Y-82798000D02*
X108712000Y-82296000D01*
X106172000Y-86614000D02*
X108585000Y-89027000D01*
X108585000Y-89027000D02*
X110395500Y-89027000D01*
X110427000Y-80010000D02*
X111760000Y-80010000D01*
X132080000Y-79908400D02*
X132689600Y-80518000D01*
X132080000Y-78740000D02*
X132080000Y-79908400D01*
X108712000Y-82296000D02*
X103632000Y-82296000D01*
X110179000Y-82798000D02*
X109214000Y-82798000D01*
X112733000Y-97028000D02*
X113135500Y-96625500D01*
X136746000Y-82296000D02*
X137363200Y-81678800D01*
X103632000Y-82296000D02*
X103632000Y-84074000D01*
X113135500Y-96625500D02*
X113241000Y-96520000D01*
X141525000Y-81741000D02*
X142544800Y-80721200D01*
X111760000Y-81596268D02*
X111760000Y-80010000D01*
D25*
%TO.N,/Vcc*%
X129032000Y-90373200D02*
X129452800Y-90794000D01*
X134434498Y-77714000D02*
X133553200Y-78595298D01*
X128270000Y-80650000D02*
X130180000Y-78740000D01*
X136796000Y-78740000D02*
X135770000Y-77714000D01*
X129452800Y-90794000D02*
X131170000Y-90794000D01*
X133553200Y-78595298D02*
X133553200Y-81432400D01*
X128524000Y-88188800D02*
X128981200Y-88646000D01*
X128524000Y-86868000D02*
X128524000Y-88188800D01*
X133096000Y-89916000D02*
X132218000Y-90794000D01*
X132218000Y-90794000D02*
X131170000Y-90794000D01*
X124000800Y-88394000D02*
X124256800Y-88138000D01*
X122830000Y-88394000D02*
X124000800Y-88394000D01*
X128270000Y-80772000D02*
X128270000Y-80650000D01*
X135770000Y-77714000D02*
X134434498Y-77714000D01*
%TO.N,Net-(U4-AREF)*%
X130211200Y-89194000D02*
X131170000Y-89194000D01*
X127508000Y-89408000D02*
X129997200Y-89408000D01*
X133312500Y-95287500D02*
X135053000Y-97028000D01*
X129997200Y-89408000D02*
X130211200Y-89194000D01*
%TO.N,Net-(U4-PB7)*%
X122428000Y-91996000D02*
X122830000Y-91594000D01*
X124968000Y-81534000D02*
X125796000Y-80706000D01*
X128074000Y-95650000D02*
X123590000Y-95650000D01*
X122428000Y-94488000D02*
X122428000Y-91996000D01*
X123972827Y-91629166D02*
X123883966Y-91629166D01*
X123848800Y-91594000D02*
X122830000Y-91594000D01*
X123883966Y-91629166D02*
X123848800Y-91594000D01*
X129600000Y-97176000D02*
X128074000Y-95650000D01*
X125796000Y-80706000D02*
X125796000Y-78740000D01*
X123590000Y-95650000D02*
X122428000Y-94488000D01*
%TO.N,Net-(U4-PB6)*%
X121769000Y-91120000D02*
X122095000Y-90794000D01*
X134355280Y-93218000D02*
X131676000Y-95897280D01*
X122095000Y-90794000D02*
X122830000Y-90794000D01*
X135053000Y-93218000D02*
X134355280Y-93218000D01*
X125926000Y-98702000D02*
X124400000Y-97176000D01*
X131676000Y-95897280D02*
X131676000Y-98702000D01*
X124400000Y-97176000D02*
X121769000Y-94545000D01*
X121769000Y-94545000D02*
X121769000Y-91120000D01*
X131676000Y-98702000D02*
X125926000Y-98702000D01*
%TO.N,/Vcc*%
X128778000Y-104394000D02*
X127552000Y-105620000D01*
X109220000Y-78740000D02*
X110427000Y-78740000D01*
X110427000Y-78740000D02*
X117602000Y-78740000D01*
X110395500Y-85217000D02*
X110395500Y-86487000D01*
X117094000Y-100584000D02*
X116068000Y-101610000D01*
X136953000Y-87630000D02*
X136953000Y-89408000D01*
X116068000Y-101610000D02*
X114300000Y-101610000D01*
X135636000Y-105952400D02*
X135636000Y-105918000D01*
X127552000Y-105620000D02*
X107332000Y-105620000D01*
X109220000Y-100584000D02*
X110951000Y-100584000D01*
X117602000Y-78740000D02*
X121478000Y-78740000D01*
X128778000Y-104394000D02*
X130336400Y-105952400D01*
X136953000Y-87630000D02*
X142443200Y-87630000D01*
X115806768Y-84836000D02*
X116187768Y-85217000D01*
X150114000Y-83312000D02*
X152400000Y-85598000D01*
X106680000Y-103124000D02*
X109220000Y-100584000D01*
X114300000Y-94422500D02*
X115504500Y-93218000D01*
X142443200Y-87630000D02*
X142951200Y-87122000D01*
X110395500Y-86487000D02*
X110395500Y-87757000D01*
X135636000Y-105918000D02*
X137160000Y-104394000D01*
X130336400Y-105952400D02*
X135636000Y-105952400D01*
X116187768Y-85217000D02*
X117570500Y-85217000D01*
X115504500Y-93218000D02*
X116489500Y-93218000D01*
X109220000Y-81280000D02*
X108712000Y-80772000D01*
X113316500Y-84836000D02*
X115806768Y-84836000D01*
X110427000Y-81280000D02*
X109220000Y-81280000D01*
X106680000Y-104968000D02*
X106680000Y-103124000D01*
X136953000Y-85852000D02*
X136953000Y-87630000D01*
X107332000Y-105620000D02*
X106680000Y-104968000D01*
X136953000Y-85852000D02*
X139700000Y-85852000D01*
X110395500Y-87757000D02*
X113316500Y-84836000D01*
X108712000Y-80772000D02*
X108712000Y-79248000D01*
X111977000Y-101610000D02*
X110951000Y-100584000D01*
X108712000Y-79248000D02*
X109220000Y-78740000D01*
X152400000Y-85598000D02*
X152400000Y-93980000D01*
%TO.N,/SCK*%
X146238000Y-84836000D02*
X146398000Y-84676000D01*
X145186400Y-84836000D02*
X146238000Y-84836000D01*
X117570500Y-87757000D02*
X115951000Y-87757000D01*
X148938000Y-84488000D02*
X147574000Y-85852000D01*
X115951000Y-87757000D02*
X115316000Y-88392000D01*
X126782000Y-89708720D02*
X128667280Y-91594000D01*
X150114000Y-99822000D02*
X151340000Y-98596000D01*
X146398000Y-84676000D02*
X146398000Y-83204001D01*
X117570500Y-87757000D02*
X118345001Y-87757000D01*
X118872000Y-84457810D02*
X118234190Y-83820000D01*
X136154000Y-90434000D02*
X141214000Y-90434000D01*
X141214000Y-90434000D02*
X144424400Y-87223600D01*
X116332000Y-82296000D02*
X117348000Y-81280000D01*
X132942000Y-91594000D02*
X131170000Y-91594000D01*
X127400000Y-88489280D02*
X126782000Y-89107280D01*
X147574000Y-85852000D02*
X146398000Y-84676000D01*
X135128000Y-89408000D02*
X136154000Y-90434000D01*
X151340000Y-85300000D02*
X150528000Y-84488000D01*
X128667280Y-91594000D02*
X131170000Y-91594000D01*
X141933999Y-78740000D02*
X141446500Y-78740000D01*
X126782000Y-89107280D02*
X126782000Y-89708720D01*
X117348000Y-81280000D02*
X117602000Y-81280000D01*
X150528000Y-84488000D02*
X148938000Y-84488000D01*
X118345001Y-87757000D02*
X118872000Y-88283999D01*
X118872000Y-88283999D02*
X118872000Y-84457810D01*
X118234190Y-83820000D02*
X116332000Y-83820000D01*
X135128000Y-89408000D02*
X132942000Y-91594000D01*
X146398000Y-83204001D02*
X141933999Y-78740000D01*
X127400000Y-84624000D02*
X127400000Y-88489280D01*
X116332000Y-83820000D02*
X116332000Y-82296000D01*
X151340000Y-98596000D02*
X151340000Y-85300000D01*
%TO.N,Net-(D1-K)*%
X139571500Y-78740000D02*
X139571500Y-82167500D01*
X139571500Y-82167500D02*
X139700000Y-82296000D01*
%TO.N,Net-(D2-K)*%
X134921000Y-82296000D02*
X134921000Y-78740000D01*
%TO.N,/SDA*%
X119380000Y-84328000D02*
X117602000Y-82550000D01*
X135128000Y-84836000D02*
X132080000Y-81788000D01*
X118364000Y-89820500D02*
X117570500Y-89027000D01*
X118093846Y-82296000D02*
X127368000Y-82296000D01*
X118364000Y-89916000D02*
X119380000Y-88900000D01*
X117602000Y-82550000D02*
X117839846Y-82550000D01*
X117839846Y-82550000D02*
X118093846Y-82296000D01*
X119380000Y-88900000D02*
X119380000Y-84328000D01*
X129540000Y-81788000D02*
X128200000Y-83128000D01*
X128200000Y-83128000D02*
X128200000Y-84624000D01*
X118364000Y-89916000D02*
X118364000Y-89820500D01*
X132080000Y-81788000D02*
X129540000Y-81788000D01*
X127368000Y-82296000D02*
X128200000Y-83128000D01*
%TO.N,/Rx*%
X125730000Y-84694000D02*
X125800000Y-84624000D01*
X125719700Y-91440000D02*
X125719700Y-87630000D01*
X125730000Y-87619700D02*
X125730000Y-84694000D01*
X125719700Y-87630000D02*
X125730000Y-87619700D01*
%TO.N,/Tx*%
X125000000Y-87846700D02*
X125000000Y-84624000D01*
X124994700Y-90424000D02*
X124994700Y-87852000D01*
X124994700Y-87852000D02*
X125000000Y-87846700D01*
%TO.N,/D2*%
X124160449Y-86507211D02*
X124160449Y-84663551D01*
X124160449Y-84663551D02*
X124200000Y-84624000D01*
%TO.N,/D8*%
X126600000Y-93793891D02*
X126600000Y-92964000D01*
X125686293Y-94707598D02*
X126600000Y-93793891D01*
%TO.N,/MISO*%
X129952400Y-93116400D02*
X129800000Y-92964000D01*
X131521200Y-93116400D02*
X129952400Y-93116400D01*
%TO.N,/RESET*%
X126600000Y-84624000D02*
X126600000Y-87788800D01*
X147574000Y-88392000D02*
X145034000Y-85852000D01*
X126600000Y-87788800D02*
X126644400Y-87833200D01*
X145034000Y-85852000D02*
X141525000Y-85852000D01*
%TO.N,/MOSI*%
X129000000Y-93699000D02*
X129000000Y-92964000D01*
X132035000Y-94025000D02*
X129326000Y-94025000D01*
X148888000Y-88741116D02*
X145681116Y-91948000D01*
X150114000Y-85852000D02*
X148888000Y-87078000D01*
X148888000Y-87078000D02*
X148888000Y-88741116D01*
X129326000Y-94025000D02*
X129000000Y-93699000D01*
X134112000Y-91948000D02*
X132035000Y-94025000D01*
X145681116Y-91948000D02*
X134112000Y-91948000D01*
%TO.N,Net-(U3-~{INTA})*%
X110998000Y-95758000D02*
X111539500Y-95758000D01*
X112776000Y-100584000D02*
X110178500Y-97986500D01*
X110178500Y-97986500D02*
X110178500Y-96577500D01*
X110178500Y-96577500D02*
X110998000Y-95758000D01*
%TO.N,Net-(U3-SQW{slash}~INT)*%
X114808000Y-100123000D02*
X114808000Y-94996000D01*
X115269000Y-100584000D02*
X114808000Y-100123000D01*
X114808000Y-94996000D02*
X115316000Y-94488000D01*
X115316000Y-94488000D02*
X116489500Y-94488000D01*
%TO.N,Net-(U3-X1)*%
X110015500Y-91694000D02*
X111539500Y-93218000D01*
X106172000Y-91694000D02*
X110015500Y-91694000D01*
%TO.N,Net-(U3-X2)*%
X106172000Y-96894000D02*
X108578000Y-94488000D01*
X108578000Y-94488000D02*
X111539500Y-94488000D01*
%TO.N,/D7*%
X125371666Y-94025000D02*
X125800000Y-93596666D01*
X125209476Y-94025000D02*
X125371666Y-94025000D01*
X124023000Y-94925000D02*
X124309476Y-94925000D01*
X124309476Y-94925000D02*
X125209476Y-94025000D01*
X125800000Y-93596666D02*
X125800000Y-92964000D01*
%TD*%
%TA.AperFunction,Conductor*%
%TO.N,GND*%
G36*
X121062834Y-91037200D02*
G01*
X121118767Y-91079072D01*
X121143184Y-91144536D01*
X121143500Y-91153382D01*
X121143500Y-94483393D01*
X121143500Y-94606607D01*
X121143500Y-94606609D01*
X121143499Y-94606609D01*
X121149864Y-94638602D01*
X121149864Y-94638604D01*
X121164754Y-94713461D01*
X121167537Y-94727452D01*
X121174137Y-94743386D01*
X121214685Y-94841281D01*
X121214690Y-94841290D01*
X121240891Y-94880501D01*
X121240892Y-94880502D01*
X121283141Y-94943732D01*
X121283144Y-94943736D01*
X121374586Y-95035178D01*
X121374608Y-95035198D01*
X122119008Y-95779598D01*
X122152493Y-95840921D01*
X122154617Y-95880532D01*
X122149500Y-95928130D01*
X122149500Y-98423870D01*
X122149501Y-98423876D01*
X122155908Y-98483483D01*
X122206202Y-98618328D01*
X122206206Y-98618335D01*
X122292452Y-98733544D01*
X122292455Y-98733547D01*
X122407664Y-98819793D01*
X122407671Y-98819797D01*
X122542517Y-98870091D01*
X122542516Y-98870091D01*
X122549444Y-98870835D01*
X122602127Y-98876500D01*
X125164547Y-98876499D01*
X125231586Y-98896184D01*
X125252228Y-98912818D01*
X125437016Y-99097606D01*
X125437045Y-99097637D01*
X125527264Y-99187856D01*
X125527267Y-99187858D01*
X125577616Y-99221500D01*
X125629715Y-99256312D01*
X125696396Y-99283931D01*
X125696398Y-99283933D01*
X125736640Y-99300601D01*
X125743548Y-99303463D01*
X125803971Y-99315481D01*
X125864393Y-99327500D01*
X131737607Y-99327500D01*
X131737608Y-99327499D01*
X131858452Y-99303463D01*
X131972286Y-99256311D01*
X132074733Y-99187858D01*
X132161858Y-99100733D01*
X132230311Y-98998286D01*
X132277463Y-98884452D01*
X132301500Y-98763606D01*
X132301500Y-98348900D01*
X138735014Y-98348900D01*
X139754669Y-98348900D01*
X140752669Y-98348900D01*
X142254669Y-98348900D01*
X143252669Y-98348900D01*
X144754669Y-98348900D01*
X145752669Y-98348900D01*
X147254669Y-98348900D01*
X147254669Y-97127500D01*
X145752669Y-97127500D01*
X145752669Y-98348900D01*
X144754669Y-98348900D01*
X144754669Y-97040036D01*
X144751941Y-97039060D01*
X144746263Y-97036870D01*
X144451315Y-96914698D01*
X144396912Y-96870857D01*
X144395665Y-96869027D01*
X144385165Y-96853312D01*
X144375568Y-96846900D01*
X143252669Y-96846900D01*
X143252669Y-98348900D01*
X142254669Y-98348900D01*
X142254669Y-96846900D01*
X140752669Y-96846900D01*
X140752669Y-98348900D01*
X139754669Y-98348900D01*
X139754669Y-96846900D01*
X138950999Y-96846900D01*
X138950999Y-96978546D01*
X138941559Y-97026001D01*
X138940731Y-97027998D01*
X138941561Y-97030000D01*
X138951000Y-97077454D01*
X138951000Y-97565674D01*
X138950960Y-97568826D01*
X138950475Y-97587897D01*
X138950355Y-97591051D01*
X138949063Y-97616422D01*
X138948862Y-97619573D01*
X138947405Y-97638622D01*
X138947124Y-97641768D01*
X138932570Y-97784224D01*
X138931699Y-97790933D01*
X138925324Y-97831367D01*
X138924088Y-97838018D01*
X138912686Y-97891267D01*
X138911092Y-97897835D01*
X138900362Y-97937303D01*
X138898411Y-97943776D01*
X138825567Y-98163605D01*
X138823100Y-98170382D01*
X138806990Y-98210934D01*
X138804135Y-98217555D01*
X138779587Y-98270202D01*
X138776349Y-98276649D01*
X138755631Y-98315074D01*
X138752024Y-98321322D01*
X138735014Y-98348900D01*
X132301500Y-98348900D01*
X132301500Y-96207731D01*
X132321185Y-96140692D01*
X132337815Y-96120054D01*
X132517005Y-95940863D01*
X132578326Y-95907380D01*
X132648017Y-95912364D01*
X132692365Y-95940865D01*
X132738461Y-95986961D01*
X132738465Y-95986964D01*
X132885946Y-96085509D01*
X132885959Y-96085516D01*
X133003942Y-96134385D01*
X133049834Y-96153394D01*
X133049836Y-96153394D01*
X133049841Y-96153396D01*
X133223804Y-96187999D01*
X133223807Y-96188000D01*
X133223809Y-96188000D01*
X133277048Y-96188000D01*
X133344087Y-96207685D01*
X133364729Y-96224319D01*
X134016181Y-96875772D01*
X134049666Y-96937095D01*
X134052500Y-96963453D01*
X134052500Y-97553001D01*
X134052501Y-97553019D01*
X134063000Y-97655796D01*
X134063001Y-97655799D01*
X134118185Y-97822331D01*
X134118187Y-97822336D01*
X134125816Y-97834705D01*
X134210288Y-97971656D01*
X134334344Y-98095712D01*
X134483666Y-98187814D01*
X134650203Y-98242999D01*
X134752991Y-98253500D01*
X135353008Y-98253499D01*
X135353016Y-98253498D01*
X135353019Y-98253498D01*
X135409302Y-98247748D01*
X135455797Y-98242999D01*
X135622334Y-98187814D01*
X135771656Y-98095712D01*
X135895712Y-97971656D01*
X135897752Y-97968347D01*
X135899745Y-97966555D01*
X135900193Y-97965989D01*
X135900289Y-97966065D01*
X135949694Y-97921623D01*
X136018656Y-97910395D01*
X136082740Y-97938234D01*
X136108829Y-97968339D01*
X136110681Y-97971341D01*
X136110683Y-97971344D01*
X136234654Y-98095315D01*
X136383875Y-98187356D01*
X136383880Y-98187358D01*
X136550302Y-98242505D01*
X136550309Y-98242506D01*
X136653019Y-98252999D01*
X137203000Y-98252999D01*
X137252972Y-98252999D01*
X137252986Y-98252998D01*
X137355697Y-98242505D01*
X137522119Y-98187358D01*
X137522124Y-98187356D01*
X137671345Y-98095315D01*
X137795315Y-97971345D01*
X137887356Y-97822124D01*
X137887358Y-97822119D01*
X137942505Y-97655697D01*
X137942506Y-97655690D01*
X137952999Y-97552986D01*
X137953000Y-97552973D01*
X137953000Y-97278000D01*
X137203000Y-97278000D01*
X137203000Y-98252999D01*
X136653019Y-98252999D01*
X136702999Y-98252998D01*
X136703000Y-98252998D01*
X136703000Y-96778000D01*
X137203000Y-96778000D01*
X137952999Y-96778000D01*
X137952999Y-96503028D01*
X137952998Y-96503013D01*
X137942505Y-96400302D01*
X137887358Y-96233880D01*
X137887356Y-96233875D01*
X137795315Y-96084654D01*
X137671345Y-95960684D01*
X137522124Y-95868643D01*
X137522119Y-95868641D01*
X137355697Y-95813494D01*
X137355690Y-95813493D01*
X137252986Y-95803000D01*
X137203000Y-95803000D01*
X137203000Y-96778000D01*
X136703000Y-96778000D01*
X136703000Y-95803000D01*
X136702999Y-95802999D01*
X136653029Y-95803000D01*
X136653011Y-95803001D01*
X136550302Y-95813494D01*
X136383880Y-95868641D01*
X136383875Y-95868643D01*
X136234654Y-95960684D01*
X136110683Y-96084655D01*
X136110679Y-96084660D01*
X136108826Y-96087665D01*
X136107018Y-96089290D01*
X136106202Y-96090323D01*
X136106025Y-96090183D01*
X136056874Y-96134385D01*
X135987911Y-96145601D01*
X135923831Y-96117752D01*
X135897753Y-96087653D01*
X135897737Y-96087628D01*
X135895712Y-96084344D01*
X135771656Y-95960288D01*
X135622334Y-95868186D01*
X135455797Y-95813001D01*
X135455795Y-95813000D01*
X135353016Y-95802500D01*
X134763453Y-95802500D01*
X134696414Y-95782815D01*
X134675772Y-95766181D01*
X134249319Y-95339728D01*
X134215834Y-95278405D01*
X134213000Y-95252047D01*
X134213000Y-95198806D01*
X134212999Y-95198804D01*
X134178396Y-95024841D01*
X134178393Y-95024832D01*
X134178255Y-95024500D01*
X134146283Y-94947310D01*
X134110516Y-94860959D01*
X134110509Y-94860946D01*
X134011964Y-94713465D01*
X134011961Y-94713461D01*
X133965865Y-94667365D01*
X133932380Y-94606042D01*
X133937364Y-94536350D01*
X133965862Y-94492006D01*
X133979801Y-94478067D01*
X139251711Y-94478067D01*
X139302650Y-94548178D01*
X139312817Y-94564768D01*
X139398569Y-94733065D01*
X139406015Y-94751042D01*
X139464383Y-94930681D01*
X139468925Y-94949601D01*
X139498473Y-95136160D01*
X139500000Y-95155558D01*
X139500000Y-95344442D01*
X139498473Y-95363840D01*
X139468925Y-95550399D01*
X139464383Y-95569319D01*
X139406015Y-95748958D01*
X139398569Y-95766935D01*
X139356806Y-95848900D01*
X139754669Y-95848900D01*
X139754669Y-94571500D01*
X139739209Y-94571500D01*
X139733126Y-94571351D01*
X139696354Y-94569545D01*
X139690284Y-94569097D01*
X139641512Y-94564294D01*
X139635471Y-94563549D01*
X139599040Y-94558145D01*
X139593043Y-94557104D01*
X139370992Y-94512935D01*
X139365051Y-94511601D01*
X139329316Y-94502649D01*
X139323448Y-94501025D01*
X139276555Y-94486798D01*
X139270780Y-94484890D01*
X139251711Y-94478067D01*
X133979801Y-94478067D01*
X134165745Y-94292123D01*
X134227065Y-94258641D01*
X134296757Y-94263625D01*
X134330335Y-94282542D01*
X134334340Y-94285709D01*
X134334342Y-94285710D01*
X134334344Y-94285712D01*
X134483666Y-94377814D01*
X134650203Y-94432999D01*
X134752991Y-94443500D01*
X135353008Y-94443499D01*
X135353016Y-94443498D01*
X135353019Y-94443498D01*
X135409302Y-94437748D01*
X135455797Y-94432999D01*
X135622334Y-94377814D01*
X135771656Y-94285712D01*
X135895712Y-94161656D01*
X135897752Y-94158347D01*
X135899745Y-94156555D01*
X135900193Y-94155989D01*
X135900289Y-94156065D01*
X135949694Y-94111623D01*
X136018656Y-94100395D01*
X136082740Y-94128234D01*
X136108829Y-94158339D01*
X136110681Y-94161341D01*
X136110683Y-94161344D01*
X136234654Y-94285315D01*
X136383875Y-94377356D01*
X136383880Y-94377358D01*
X136550302Y-94432505D01*
X136550309Y-94432506D01*
X136653019Y-94442999D01*
X137203000Y-94442999D01*
X137252972Y-94442999D01*
X137252986Y-94442998D01*
X137355697Y-94432505D01*
X137522119Y-94377358D01*
X137522124Y-94377356D01*
X137567409Y-94349424D01*
X140752669Y-94349424D01*
X140752669Y-95848900D01*
X142254669Y-95848900D01*
X142254669Y-94766643D01*
X141834926Y-94346900D01*
X140757392Y-94346900D01*
X140752669Y-94349424D01*
X137567409Y-94349424D01*
X137671345Y-94285315D01*
X137795315Y-94161345D01*
X137887356Y-94012124D01*
X137887358Y-94012119D01*
X137942505Y-93845697D01*
X137942506Y-93845690D01*
X137952999Y-93742986D01*
X137953000Y-93742973D01*
X137953000Y-93468000D01*
X137203000Y-93468000D01*
X137203000Y-94442999D01*
X136653019Y-94442999D01*
X136702999Y-94442998D01*
X136703000Y-94442998D01*
X136703000Y-93342000D01*
X136722685Y-93274961D01*
X136775489Y-93229206D01*
X136827000Y-93218000D01*
X136953000Y-93218000D01*
X136953000Y-93092000D01*
X136972685Y-93024961D01*
X137025489Y-92979206D01*
X137077000Y-92968000D01*
X137952999Y-92968000D01*
X137952999Y-92697500D01*
X137972684Y-92630461D01*
X138025488Y-92584706D01*
X138076999Y-92573500D01*
X138827900Y-92573500D01*
X138894939Y-92593185D01*
X138940694Y-92645989D01*
X138951900Y-92697500D01*
X138951900Y-92761695D01*
X138986503Y-92935658D01*
X138986506Y-92935667D01*
X139054383Y-93099540D01*
X139054390Y-93099553D01*
X139152935Y-93247034D01*
X139152938Y-93247038D01*
X139278361Y-93372461D01*
X139278365Y-93372464D01*
X139425846Y-93471009D01*
X139425859Y-93471016D01*
X139548763Y-93521923D01*
X139589734Y-93538894D01*
X139589736Y-93538894D01*
X139589741Y-93538896D01*
X139763704Y-93573499D01*
X139763707Y-93573500D01*
X139763709Y-93573500D01*
X139941093Y-93573500D01*
X139941094Y-93573499D01*
X139999082Y-93561964D01*
X140115058Y-93538896D01*
X140115061Y-93538894D01*
X140115066Y-93538894D01*
X140278947Y-93471013D01*
X140426435Y-93372464D01*
X140464079Y-93334820D01*
X140525401Y-93301334D01*
X140551761Y-93298500D01*
X142146548Y-93298500D01*
X142213587Y-93318185D01*
X142234229Y-93334819D01*
X144889263Y-95989855D01*
X144889267Y-95989858D01*
X144991710Y-96058309D01*
X144991711Y-96058309D01*
X144991715Y-96058312D01*
X145043426Y-96079731D01*
X145105548Y-96105463D01*
X145125597Y-96109451D01*
X145159196Y-96116134D01*
X145226392Y-96129501D01*
X145226394Y-96129501D01*
X145355721Y-96129501D01*
X145355741Y-96129500D01*
X148025548Y-96129500D01*
X148092587Y-96149185D01*
X148113229Y-96165819D01*
X148771571Y-96824162D01*
X148805056Y-96885485D01*
X148801821Y-96950160D01*
X148796754Y-96965753D01*
X148763500Y-97175713D01*
X148763500Y-97388286D01*
X148792094Y-97568826D01*
X148796754Y-97598243D01*
X148857183Y-97784224D01*
X148862444Y-97800414D01*
X148958951Y-97989820D01*
X149083890Y-98161786D01*
X149234213Y-98312109D01*
X149406182Y-98437050D01*
X149414946Y-98441516D01*
X149465742Y-98489491D01*
X149482536Y-98557312D01*
X149459998Y-98623447D01*
X149414946Y-98662484D01*
X149406182Y-98666949D01*
X149234213Y-98791890D01*
X149083890Y-98942213D01*
X148958951Y-99114179D01*
X148862444Y-99303585D01*
X148862443Y-99303587D01*
X148862443Y-99303588D01*
X148850086Y-99341620D01*
X148796753Y-99505760D01*
X148763500Y-99715713D01*
X148763500Y-99928286D01*
X148790402Y-100098143D01*
X148796754Y-100138243D01*
X148861575Y-100337742D01*
X148862444Y-100340414D01*
X148958951Y-100529820D01*
X149083890Y-100701786D01*
X149234213Y-100852109D01*
X149406179Y-100977048D01*
X149406181Y-100977049D01*
X149406184Y-100977051D01*
X149595588Y-101073557D01*
X149797757Y-101139246D01*
X150007713Y-101172500D01*
X150007714Y-101172500D01*
X150220286Y-101172500D01*
X150220287Y-101172500D01*
X150430243Y-101139246D01*
X150632412Y-101073557D01*
X150821816Y-100977051D01*
X150843789Y-100961086D01*
X150993786Y-100852109D01*
X150993788Y-100852106D01*
X150993792Y-100852104D01*
X151144104Y-100701792D01*
X151144106Y-100701788D01*
X151144109Y-100701786D01*
X151269048Y-100529820D01*
X151269047Y-100529820D01*
X151269051Y-100529816D01*
X151365557Y-100340412D01*
X151431246Y-100138243D01*
X151464500Y-99928287D01*
X151464500Y-99715713D01*
X151431246Y-99505757D01*
X151431182Y-99505561D01*
X151426179Y-99490162D01*
X151424182Y-99420321D01*
X151456426Y-99364162D01*
X151738729Y-99081860D01*
X151738733Y-99081858D01*
X151825858Y-98994733D01*
X151894311Y-98892286D01*
X151894312Y-98892285D01*
X151941463Y-98778451D01*
X151965500Y-98657607D01*
X151965500Y-98534393D01*
X151965500Y-94960296D01*
X151985185Y-94893257D01*
X152037989Y-94847502D01*
X152107147Y-94837558D01*
X152131478Y-94844234D01*
X152131511Y-94844127D01*
X152135520Y-94845343D01*
X152136955Y-94845737D01*
X152137334Y-94845894D01*
X152137338Y-94845894D01*
X152137339Y-94845895D01*
X152137341Y-94845896D01*
X152311304Y-94880499D01*
X152311307Y-94880500D01*
X152311309Y-94880500D01*
X152488693Y-94880500D01*
X152488694Y-94880499D01*
X152540243Y-94870245D01*
X152668641Y-94844706D01*
X152669171Y-94847374D01*
X152727279Y-94846821D01*
X152786414Y-94884033D01*
X152816044Y-94947310D01*
X152817480Y-94966180D01*
X152814072Y-102729120D01*
X152794358Y-102796151D01*
X152741534Y-102841883D01*
X152685646Y-102852987D01*
X151739601Y-102819199D01*
X151739598Y-102819200D01*
X149910800Y-104038399D01*
X149910799Y-104038400D01*
X149445849Y-105982739D01*
X149411112Y-106043362D01*
X149349115Y-106075582D01*
X149325249Y-106077900D01*
X136660052Y-106077900D01*
X136593013Y-106058215D01*
X136547258Y-106005411D01*
X136537314Y-105936253D01*
X136566339Y-105872697D01*
X136572356Y-105866233D01*
X136702164Y-105736425D01*
X136763483Y-105702943D01*
X136828159Y-105706178D01*
X136832677Y-105707646D01*
X136843757Y-105711246D01*
X137053713Y-105744500D01*
X137053714Y-105744500D01*
X137266286Y-105744500D01*
X137266287Y-105744500D01*
X137476243Y-105711246D01*
X137678412Y-105645557D01*
X137867816Y-105549051D01*
X137918328Y-105512352D01*
X138039786Y-105424109D01*
X138039788Y-105424106D01*
X138039792Y-105424104D01*
X138190104Y-105273792D01*
X138190106Y-105273788D01*
X138190109Y-105273786D01*
X138315048Y-105101820D01*
X138315047Y-105101820D01*
X138315051Y-105101816D01*
X138319514Y-105093054D01*
X138367488Y-105042259D01*
X138435308Y-105025463D01*
X138501444Y-105047999D01*
X138540486Y-105093056D01*
X138544951Y-105101820D01*
X138669890Y-105273786D01*
X138820213Y-105424109D01*
X138992179Y-105549048D01*
X138992181Y-105549049D01*
X138992184Y-105549051D01*
X139181588Y-105645557D01*
X139383757Y-105711246D01*
X139593713Y-105744500D01*
X139593714Y-105744500D01*
X139806286Y-105744500D01*
X139806287Y-105744500D01*
X140016243Y-105711246D01*
X140218412Y-105645557D01*
X140407816Y-105549051D01*
X140458328Y-105512352D01*
X140579786Y-105424109D01*
X140579788Y-105424106D01*
X140579792Y-105424104D01*
X140730104Y-105273792D01*
X140730106Y-105273788D01*
X140730109Y-105273786D01*
X140855048Y-105101820D01*
X140855047Y-105101820D01*
X140855051Y-105101816D01*
X140859514Y-105093054D01*
X140907488Y-105042259D01*
X140975308Y-105025463D01*
X141041444Y-105047999D01*
X141080486Y-105093056D01*
X141084951Y-105101820D01*
X141209890Y-105273786D01*
X141360213Y-105424109D01*
X141532179Y-105549048D01*
X141532181Y-105549049D01*
X141532184Y-105549051D01*
X141721588Y-105645557D01*
X141923757Y-105711246D01*
X142133713Y-105744500D01*
X142133714Y-105744500D01*
X142346286Y-105744500D01*
X142346287Y-105744500D01*
X142556243Y-105711246D01*
X142758412Y-105645557D01*
X142947816Y-105549051D01*
X142998328Y-105512352D01*
X143119786Y-105424109D01*
X143119788Y-105424106D01*
X143119792Y-105424104D01*
X143270104Y-105273792D01*
X143270106Y-105273788D01*
X143270109Y-105273786D01*
X143395048Y-105101820D01*
X143395047Y-105101820D01*
X143395051Y-105101816D01*
X143406218Y-105079900D01*
X145752669Y-105079900D01*
X147254669Y-105079900D01*
X147254669Y-104346900D01*
X145752669Y-104346900D01*
X145752669Y-105079900D01*
X143406218Y-105079900D01*
X143491557Y-104912412D01*
X143557246Y-104710243D01*
X143590500Y-104500287D01*
X143590500Y-104287713D01*
X143557246Y-104077757D01*
X143491557Y-103875588D01*
X143395051Y-103686184D01*
X143395049Y-103686181D01*
X143395048Y-103686179D01*
X143270109Y-103514213D01*
X143119786Y-103363890D01*
X142947820Y-103238951D01*
X142758414Y-103142444D01*
X142758413Y-103142443D01*
X142758412Y-103142443D01*
X142556243Y-103076754D01*
X142556241Y-103076753D01*
X142556240Y-103076753D01*
X142394957Y-103051208D01*
X142346287Y-103043500D01*
X142133713Y-103043500D01*
X142085042Y-103051208D01*
X141923760Y-103076753D01*
X141721585Y-103142444D01*
X141532179Y-103238951D01*
X141360213Y-103363890D01*
X141209890Y-103514213D01*
X141084949Y-103686182D01*
X141080484Y-103694946D01*
X141032509Y-103745742D01*
X140964688Y-103762536D01*
X140898553Y-103739998D01*
X140859516Y-103694946D01*
X140855050Y-103686182D01*
X140730109Y-103514213D01*
X140579786Y-103363890D01*
X140407820Y-103238951D01*
X140218414Y-103142444D01*
X140218413Y-103142443D01*
X140218412Y-103142443D01*
X140016243Y-103076754D01*
X140016241Y-103076753D01*
X140016240Y-103076753D01*
X139854957Y-103051208D01*
X139806287Y-103043500D01*
X139593713Y-103043500D01*
X139545042Y-103051208D01*
X139383760Y-103076753D01*
X139181585Y-103142444D01*
X138992179Y-103238951D01*
X138820213Y-103363890D01*
X138669890Y-103514213D01*
X138544949Y-103686182D01*
X138540484Y-103694946D01*
X138492509Y-103745742D01*
X138424688Y-103762536D01*
X138358553Y-103739998D01*
X138319516Y-103694946D01*
X138315050Y-103686182D01*
X138190109Y-103514213D01*
X138039786Y-103363890D01*
X137867820Y-103238951D01*
X137678414Y-103142444D01*
X137678413Y-103142443D01*
X137678412Y-103142443D01*
X137476243Y-103076754D01*
X137476241Y-103076753D01*
X137476240Y-103076753D01*
X137314957Y-103051208D01*
X137266287Y-103043500D01*
X137053713Y-103043500D01*
X137005042Y-103051208D01*
X136843760Y-103076753D01*
X136641585Y-103142444D01*
X136452179Y-103238951D01*
X136280215Y-103363889D01*
X136166285Y-103477819D01*
X136104962Y-103511303D01*
X136035270Y-103506319D01*
X135979337Y-103464447D01*
X135962422Y-103433470D01*
X135913354Y-103301913D01*
X135913350Y-103301906D01*
X135827190Y-103186812D01*
X135827187Y-103186809D01*
X135712093Y-103100649D01*
X135712086Y-103100645D01*
X135577379Y-103050403D01*
X135577372Y-103050401D01*
X135517844Y-103044000D01*
X134870000Y-103044000D01*
X134870000Y-103960988D01*
X134812993Y-103928075D01*
X134685826Y-103894000D01*
X134554174Y-103894000D01*
X134427007Y-103928075D01*
X134370000Y-103960988D01*
X134370000Y-103044000D01*
X133722155Y-103044000D01*
X133662627Y-103050401D01*
X133662620Y-103050403D01*
X133527913Y-103100645D01*
X133527906Y-103100649D01*
X133412812Y-103186809D01*
X133412809Y-103186812D01*
X133326649Y-103301906D01*
X133326645Y-103301913D01*
X133276403Y-103436620D01*
X133276401Y-103436627D01*
X133270000Y-103496155D01*
X133270000Y-104144000D01*
X134186988Y-104144000D01*
X134154075Y-104201007D01*
X134120000Y-104328174D01*
X134120000Y-104459826D01*
X134154075Y-104586993D01*
X134186988Y-104644000D01*
X133270000Y-104644000D01*
X133270000Y-105202900D01*
X133250315Y-105269939D01*
X133197511Y-105315694D01*
X133146000Y-105326900D01*
X130646853Y-105326900D01*
X130579814Y-105307215D01*
X130559172Y-105290581D01*
X130120428Y-104851837D01*
X130086943Y-104790514D01*
X130090178Y-104725837D01*
X130095246Y-104710243D01*
X130128500Y-104500287D01*
X130128500Y-104287713D01*
X130095246Y-104077757D01*
X130029557Y-103875588D01*
X129933051Y-103686184D01*
X129933049Y-103686181D01*
X129933048Y-103686179D01*
X129808109Y-103514213D01*
X129657786Y-103363890D01*
X129485820Y-103238951D01*
X129296414Y-103142444D01*
X129296413Y-103142443D01*
X129296412Y-103142443D01*
X129216356Y-103116431D01*
X130752669Y-103116431D01*
X130754760Y-103119432D01*
X130771126Y-103143927D01*
X130773750Y-103148027D01*
X130794231Y-103181450D01*
X130796693Y-103185650D01*
X130811083Y-103211346D01*
X130813378Y-103215639D01*
X130881278Y-103348900D01*
X132254669Y-103348900D01*
X132254669Y-102314959D01*
X138252669Y-102314959D01*
X138338361Y-102358622D01*
X138342654Y-102360917D01*
X138368350Y-102375307D01*
X138372550Y-102377769D01*
X138405973Y-102398250D01*
X138410073Y-102400874D01*
X138430000Y-102414187D01*
X138449927Y-102400874D01*
X138454027Y-102398250D01*
X138487450Y-102377769D01*
X138491650Y-102375307D01*
X138517346Y-102360917D01*
X138521639Y-102358622D01*
X138647332Y-102294578D01*
X140752669Y-102294578D01*
X140878361Y-102358622D01*
X140882654Y-102360917D01*
X140908350Y-102375307D01*
X140912550Y-102377769D01*
X140945973Y-102398250D01*
X140950073Y-102400874D01*
X140970000Y-102414187D01*
X140989927Y-102400874D01*
X140994027Y-102398250D01*
X141027450Y-102377769D01*
X141031650Y-102375307D01*
X141057346Y-102360917D01*
X141061639Y-102358622D01*
X141227332Y-102274197D01*
X143252669Y-102274197D01*
X143418361Y-102358622D01*
X143422654Y-102360917D01*
X143448350Y-102375307D01*
X143452550Y-102377769D01*
X143485973Y-102398250D01*
X143490073Y-102400874D01*
X143514568Y-102417240D01*
X143518565Y-102420026D01*
X143722269Y-102568025D01*
X143726157Y-102570968D01*
X143749316Y-102589227D01*
X143753081Y-102592317D01*
X143782888Y-102617778D01*
X143786527Y-102621012D01*
X143808132Y-102640986D01*
X143811636Y-102644356D01*
X143989644Y-102822364D01*
X143993014Y-102825868D01*
X144012988Y-102847473D01*
X144016222Y-102851112D01*
X144041683Y-102880919D01*
X144044773Y-102884684D01*
X144063032Y-102907843D01*
X144065975Y-102911731D01*
X144213974Y-103115435D01*
X144216760Y-103119432D01*
X144233126Y-103143927D01*
X144235750Y-103148027D01*
X144256231Y-103181450D01*
X144258693Y-103185650D01*
X144273083Y-103211346D01*
X144275378Y-103215639D01*
X144343278Y-103348900D01*
X144754669Y-103348900D01*
X145752669Y-103348900D01*
X147254669Y-103348900D01*
X148252669Y-103348900D01*
X149021299Y-103348900D01*
X149096927Y-103240406D01*
X149129869Y-103208141D01*
X149754669Y-102791607D01*
X149754669Y-102142860D01*
X149622273Y-102121892D01*
X149617477Y-102121036D01*
X149588577Y-102115287D01*
X149583817Y-102114242D01*
X149545700Y-102105089D01*
X149540995Y-102103862D01*
X149512653Y-102095869D01*
X149507993Y-102094455D01*
X149268560Y-102016658D01*
X149263963Y-102015064D01*
X149236353Y-102004879D01*
X149231825Y-102003107D01*
X149195608Y-101988109D01*
X149191139Y-101986154D01*
X149164364Y-101973811D01*
X149159981Y-101971686D01*
X148935639Y-101857378D01*
X148931346Y-101855083D01*
X148916734Y-101846900D01*
X148252669Y-101846900D01*
X148252669Y-103348900D01*
X147254669Y-103348900D01*
X147254669Y-101846900D01*
X145752669Y-101846900D01*
X145752669Y-103348900D01*
X144754669Y-103348900D01*
X144754669Y-101846900D01*
X143252669Y-101846900D01*
X143252669Y-102274197D01*
X141227332Y-102274197D01*
X141285981Y-102244314D01*
X141290364Y-102242189D01*
X141317139Y-102229846D01*
X141321608Y-102227891D01*
X141357825Y-102212893D01*
X141362353Y-102211121D01*
X141389963Y-102200936D01*
X141394560Y-102199342D01*
X141633993Y-102121545D01*
X141638653Y-102120131D01*
X141666995Y-102112138D01*
X141671700Y-102110911D01*
X141709817Y-102101758D01*
X141714577Y-102100713D01*
X141743477Y-102094964D01*
X141748272Y-102094108D01*
X141996941Y-102054723D01*
X142001764Y-102054056D01*
X142030997Y-102050596D01*
X142035835Y-102050119D01*
X142074914Y-102047041D01*
X142079779Y-102046754D01*
X142109231Y-102045596D01*
X142114103Y-102045500D01*
X142254669Y-102045500D01*
X142254669Y-101846900D01*
X140752669Y-101846900D01*
X140752669Y-102294578D01*
X138647332Y-102294578D01*
X138745981Y-102244314D01*
X138750364Y-102242189D01*
X138777139Y-102229846D01*
X138781608Y-102227891D01*
X138817825Y-102212893D01*
X138822353Y-102211121D01*
X138849963Y-102200936D01*
X138854560Y-102199342D01*
X139093993Y-102121545D01*
X139098653Y-102120131D01*
X139126995Y-102112138D01*
X139131700Y-102110911D01*
X139169817Y-102101758D01*
X139174577Y-102100713D01*
X139203477Y-102094964D01*
X139208272Y-102094108D01*
X139456941Y-102054723D01*
X139461764Y-102054056D01*
X139490997Y-102050596D01*
X139495835Y-102050119D01*
X139534914Y-102047041D01*
X139539779Y-102046754D01*
X139569231Y-102045596D01*
X139574103Y-102045500D01*
X139754669Y-102045500D01*
X139754669Y-101846900D01*
X138252669Y-101846900D01*
X138252669Y-102314959D01*
X132254669Y-102314959D01*
X132254669Y-101846900D01*
X130752669Y-101846900D01*
X130752669Y-103116431D01*
X129216356Y-103116431D01*
X129094243Y-103076754D01*
X129094241Y-103076753D01*
X129094240Y-103076753D01*
X128932957Y-103051208D01*
X128884287Y-103043500D01*
X128671713Y-103043500D01*
X128623042Y-103051208D01*
X128461760Y-103076753D01*
X128259585Y-103142444D01*
X128070179Y-103238951D01*
X127898213Y-103363890D01*
X127747890Y-103514213D01*
X127622949Y-103686182D01*
X127618202Y-103695499D01*
X127570227Y-103746293D01*
X127502405Y-103763087D01*
X127436271Y-103740548D01*
X127397234Y-103695495D01*
X127392626Y-103686452D01*
X127353270Y-103632282D01*
X127353269Y-103632282D01*
X126720962Y-104264589D01*
X126703925Y-104201007D01*
X126638099Y-104086993D01*
X126545007Y-103993901D01*
X126430993Y-103928075D01*
X126367409Y-103911037D01*
X126999716Y-103278728D01*
X126945550Y-103239375D01*
X126756217Y-103142904D01*
X126554129Y-103077242D01*
X126344246Y-103044000D01*
X126131754Y-103044000D01*
X125921872Y-103077242D01*
X125921869Y-103077242D01*
X125719782Y-103142904D01*
X125530439Y-103239380D01*
X125476282Y-103278727D01*
X125476282Y-103278728D01*
X126108591Y-103911037D01*
X126045007Y-103928075D01*
X125930993Y-103993901D01*
X125837901Y-104086993D01*
X125772075Y-104201007D01*
X125755037Y-104264591D01*
X125122728Y-103632282D01*
X125122727Y-103632282D01*
X125083380Y-103686440D01*
X125083376Y-103686446D01*
X125078760Y-103695505D01*
X125030781Y-103746297D01*
X124962959Y-103763087D01*
X124896826Y-103740543D01*
X124857794Y-103695493D01*
X124853051Y-103686184D01*
X124853049Y-103686181D01*
X124853048Y-103686179D01*
X124728109Y-103514213D01*
X124577786Y-103363890D01*
X124405820Y-103238951D01*
X124216414Y-103142444D01*
X124216413Y-103142443D01*
X124216412Y-103142443D01*
X124014243Y-103076754D01*
X124014241Y-103076753D01*
X124014240Y-103076753D01*
X123852957Y-103051208D01*
X123804287Y-103043500D01*
X123591713Y-103043500D01*
X123543042Y-103051208D01*
X123381760Y-103076753D01*
X123179585Y-103142444D01*
X122990179Y-103238951D01*
X122818213Y-103363890D01*
X122667890Y-103514213D01*
X122542949Y-103686182D01*
X122538484Y-103694946D01*
X122490509Y-103745742D01*
X122422688Y-103762536D01*
X122356553Y-103739998D01*
X122317516Y-103694946D01*
X122313050Y-103686182D01*
X122188109Y-103514213D01*
X122037786Y-103363890D01*
X121865820Y-103238951D01*
X121676414Y-103142444D01*
X121676413Y-103142443D01*
X121676412Y-103142443D01*
X121474243Y-103076754D01*
X121474241Y-103076753D01*
X121474240Y-103076753D01*
X121312957Y-103051208D01*
X121264287Y-103043500D01*
X121051713Y-103043500D01*
X121003042Y-103051208D01*
X120841760Y-103076753D01*
X120639585Y-103142444D01*
X120450179Y-103238951D01*
X120278213Y-103363890D01*
X120127890Y-103514213D01*
X120002949Y-103686182D01*
X119998484Y-103694946D01*
X119950509Y-103745742D01*
X119882688Y-103762536D01*
X119816553Y-103739998D01*
X119777516Y-103694946D01*
X119773050Y-103686182D01*
X119648109Y-103514213D01*
X119497786Y-103363890D01*
X119325820Y-103238951D01*
X119136414Y-103142444D01*
X119136413Y-103142443D01*
X119136412Y-103142443D01*
X118934243Y-103076754D01*
X118934241Y-103076753D01*
X118934239Y-103076753D01*
X118831111Y-103060419D01*
X118767976Y-103030490D01*
X118731045Y-102971178D01*
X118732043Y-102901315D01*
X118762826Y-102850267D01*
X119526335Y-102086759D01*
X123252669Y-102086759D01*
X123454941Y-102054723D01*
X123459764Y-102054056D01*
X123488997Y-102050596D01*
X123493835Y-102050119D01*
X123532914Y-102047041D01*
X123537779Y-102046754D01*
X123567231Y-102045596D01*
X123572103Y-102045500D01*
X123823897Y-102045500D01*
X123828769Y-102045596D01*
X123858221Y-102046754D01*
X123863086Y-102047041D01*
X123902165Y-102050119D01*
X123907003Y-102050596D01*
X123936236Y-102054056D01*
X123941059Y-102054723D01*
X124189728Y-102094108D01*
X124194523Y-102094964D01*
X124223423Y-102100713D01*
X124228183Y-102101758D01*
X124266300Y-102110911D01*
X124271005Y-102112138D01*
X124299347Y-102120131D01*
X124304007Y-102121545D01*
X124543440Y-102199342D01*
X124548037Y-102200936D01*
X124575647Y-102211121D01*
X124580175Y-102212893D01*
X124616392Y-102227891D01*
X124620861Y-102229846D01*
X124647636Y-102242189D01*
X124652019Y-102244314D01*
X124754669Y-102296616D01*
X124754669Y-101846900D01*
X123252669Y-101846900D01*
X123252669Y-102086759D01*
X119526335Y-102086759D01*
X119865858Y-101747237D01*
X119934312Y-101644789D01*
X119981463Y-101530955D01*
X120005501Y-101410110D01*
X120005501Y-101286897D01*
X120005501Y-101281787D01*
X120005500Y-101281761D01*
X120005500Y-100848900D01*
X121003500Y-100848900D01*
X122254669Y-100848900D01*
X123252669Y-100848900D01*
X124754669Y-100848900D01*
X125752669Y-100848900D01*
X127254669Y-100848900D01*
X128252669Y-100848900D01*
X129754669Y-100848900D01*
X129754669Y-100325500D01*
X130752669Y-100325500D01*
X130752669Y-100848900D01*
X132254669Y-100848900D01*
X133252669Y-100848900D01*
X134754669Y-100848900D01*
X135752669Y-100848900D01*
X137254669Y-100848900D01*
X138252669Y-100848900D01*
X139754669Y-100848900D01*
X140752669Y-100848900D01*
X142254669Y-100848900D01*
X143252669Y-100848900D01*
X144754669Y-100848900D01*
X145752669Y-100848900D01*
X147254669Y-100848900D01*
X147254669Y-99346900D01*
X145752669Y-99346900D01*
X145752669Y-100848900D01*
X144754669Y-100848900D01*
X144754669Y-99346900D01*
X143252669Y-99346900D01*
X143252669Y-100848900D01*
X142254669Y-100848900D01*
X142254669Y-99346900D01*
X140752669Y-99346900D01*
X140752669Y-100848900D01*
X139754669Y-100848900D01*
X139754669Y-99346900D01*
X138252669Y-99346900D01*
X138252669Y-100848900D01*
X137254669Y-100848900D01*
X137254669Y-99346900D01*
X135752669Y-99346900D01*
X135752669Y-100848900D01*
X134754669Y-100848900D01*
X134754669Y-99346900D01*
X133252669Y-99346900D01*
X133252669Y-100848900D01*
X132254669Y-100848900D01*
X132254669Y-100219572D01*
X132217732Y-100234872D01*
X132212052Y-100237063D01*
X132177381Y-100249468D01*
X132171602Y-100251377D01*
X132124704Y-100265603D01*
X132118841Y-100267225D01*
X132083121Y-100276173D01*
X132077181Y-100277507D01*
X131908269Y-100311105D01*
X131902272Y-100312146D01*
X131865846Y-100317549D01*
X131859805Y-100318294D01*
X131811036Y-100323097D01*
X131804965Y-100323545D01*
X131768190Y-100325351D01*
X131762108Y-100325500D01*
X130752669Y-100325500D01*
X129754669Y-100325500D01*
X128252669Y-100325500D01*
X128252669Y-100848900D01*
X127254669Y-100848900D01*
X127254669Y-100325500D01*
X126074959Y-100325500D01*
X126060042Y-100337742D01*
X125995732Y-100365055D01*
X125957187Y-100363507D01*
X125752669Y-100322827D01*
X125752669Y-100848900D01*
X124754669Y-100848900D01*
X124754669Y-99874499D01*
X123252669Y-99874499D01*
X123252669Y-100848900D01*
X122254669Y-100848900D01*
X122254669Y-99825933D01*
X122230328Y-99818550D01*
X122222988Y-99816071D01*
X122025498Y-99742413D01*
X122017318Y-99739025D01*
X121968581Y-99716767D01*
X121960667Y-99712805D01*
X121898077Y-99678628D01*
X121890463Y-99674110D01*
X121845396Y-99645146D01*
X121838126Y-99640098D01*
X121665827Y-99511114D01*
X121658936Y-99505561D01*
X121618451Y-99470481D01*
X121611972Y-99464449D01*
X121561551Y-99414028D01*
X121555519Y-99407549D01*
X121520439Y-99367064D01*
X121514886Y-99360174D01*
X121504949Y-99346900D01*
X121003500Y-99346900D01*
X121003500Y-100848900D01*
X120005500Y-100848900D01*
X120005500Y-92422572D01*
X120025185Y-92355533D01*
X120041814Y-92334895D01*
X120172729Y-92203980D01*
X120172733Y-92203978D01*
X120259858Y-92116853D01*
X120303041Y-92052225D01*
X120328312Y-92014406D01*
X120363256Y-91930043D01*
X120369678Y-91914539D01*
X120375459Y-91900583D01*
X120375459Y-91900579D01*
X120375463Y-91900572D01*
X120386245Y-91846364D01*
X120392774Y-91813546D01*
X120399500Y-91779726D01*
X120399500Y-91649382D01*
X120419185Y-91582343D01*
X120435819Y-91561701D01*
X120820188Y-91177332D01*
X120931820Y-91065700D01*
X120993142Y-91032216D01*
X121062834Y-91037200D01*
G37*
%TD.AperFunction*%
%TA.AperFunction,Conductor*%
G36*
X149316005Y-76598901D02*
G01*
X149383038Y-76618585D01*
X149428793Y-76671389D01*
X149435585Y-76690110D01*
X150164800Y-79349600D01*
X150164799Y-79349600D01*
X150514905Y-79419621D01*
X152724376Y-79861515D01*
X152786252Y-79893964D01*
X152820762Y-79954716D01*
X152824056Y-79983160D01*
X152821926Y-84836028D01*
X152802212Y-84903059D01*
X152749388Y-84948791D01*
X152680225Y-84958704D01*
X152616682Y-84929651D01*
X152610245Y-84923655D01*
X151456428Y-83769838D01*
X151422943Y-83708515D01*
X151426177Y-83643841D01*
X151431246Y-83628243D01*
X151464500Y-83418287D01*
X151464500Y-83205713D01*
X151431246Y-82995757D01*
X151365557Y-82793588D01*
X151269051Y-82604184D01*
X151269049Y-82604181D01*
X151269048Y-82604179D01*
X151144109Y-82432213D01*
X150993786Y-82281890D01*
X150821820Y-82156951D01*
X150632414Y-82060444D01*
X150632413Y-82060443D01*
X150632412Y-82060443D01*
X150430243Y-81994754D01*
X150430241Y-81994753D01*
X150430240Y-81994753D01*
X150262816Y-81968236D01*
X150220287Y-81961500D01*
X150007713Y-81961500D01*
X149965184Y-81968236D01*
X149797760Y-81994753D01*
X149595585Y-82060444D01*
X149406179Y-82156951D01*
X149234215Y-82281889D01*
X149120673Y-82395431D01*
X149059350Y-82428915D01*
X148989658Y-82423931D01*
X148933725Y-82382059D01*
X148916810Y-82351082D01*
X148867797Y-82219671D01*
X148867793Y-82219664D01*
X148781547Y-82104455D01*
X148781544Y-82104452D01*
X148666335Y-82018206D01*
X148666328Y-82018202D01*
X148531482Y-81967908D01*
X148531483Y-81967908D01*
X148471883Y-81961501D01*
X148471881Y-81961500D01*
X148471873Y-81961500D01*
X148471864Y-81961500D01*
X146676129Y-81961500D01*
X146676123Y-81961501D01*
X146616516Y-81967908D01*
X146481671Y-82018202D01*
X146481664Y-82018206D01*
X146366452Y-82104454D01*
X146362425Y-82108482D01*
X146301100Y-82141964D01*
X146231409Y-82136977D01*
X146187067Y-82108478D01*
X144341285Y-80262696D01*
X145752669Y-80262696D01*
X146338873Y-80848900D01*
X147254669Y-80848900D01*
X148252669Y-80848900D01*
X149754669Y-80848900D01*
X149754669Y-80413832D01*
X149666165Y-80396132D01*
X149605934Y-80365245D01*
X149190870Y-79978350D01*
X149155833Y-79920435D01*
X148998573Y-79346900D01*
X148252669Y-79346900D01*
X148252669Y-80848900D01*
X147254669Y-80848900D01*
X147254669Y-79346900D01*
X145752669Y-79346900D01*
X145752669Y-80262696D01*
X144341285Y-80262696D01*
X142470819Y-78392230D01*
X142437334Y-78330907D01*
X142434500Y-78304549D01*
X142434500Y-78234157D01*
X142434499Y-78234144D01*
X142432546Y-78215028D01*
X142424087Y-78132225D01*
X142369362Y-77967075D01*
X142369358Y-77967069D01*
X142369357Y-77967066D01*
X142278028Y-77819000D01*
X142278025Y-77818996D01*
X142155003Y-77695974D01*
X142154999Y-77695971D01*
X142006933Y-77604642D01*
X142006927Y-77604639D01*
X142006925Y-77604638D01*
X141983573Y-77596900D01*
X143296398Y-77596900D01*
X143305104Y-77618814D01*
X143307570Y-77625590D01*
X143379997Y-77844157D01*
X143381949Y-77850635D01*
X143392685Y-77890131D01*
X143394281Y-77896704D01*
X143396351Y-77906378D01*
X143838873Y-78348900D01*
X144754669Y-78348900D01*
X145752669Y-78348900D01*
X147254669Y-78348900D01*
X147254669Y-77596900D01*
X145752669Y-77596900D01*
X145752669Y-78348900D01*
X144754669Y-78348900D01*
X144754669Y-77596900D01*
X143296398Y-77596900D01*
X141983573Y-77596900D01*
X141841776Y-77549913D01*
X141739855Y-77539500D01*
X141739848Y-77539500D01*
X141153152Y-77539500D01*
X141153144Y-77539500D01*
X141051223Y-77549913D01*
X140886077Y-77604637D01*
X140886066Y-77604642D01*
X140738000Y-77695971D01*
X140737996Y-77695974D01*
X140614974Y-77818996D01*
X140614971Y-77819000D01*
X140614538Y-77819703D01*
X140614114Y-77820083D01*
X140610493Y-77824664D01*
X140609710Y-77824045D01*
X140562590Y-77866428D01*
X140493628Y-77877649D01*
X140429546Y-77849806D01*
X140407657Y-77824544D01*
X140407507Y-77824664D01*
X140404859Y-77821315D01*
X140403462Y-77819703D01*
X140403028Y-77819000D01*
X140403025Y-77818996D01*
X140280003Y-77695974D01*
X140279999Y-77695971D01*
X140131933Y-77604642D01*
X140131927Y-77604639D01*
X140131925Y-77604638D01*
X140108573Y-77596900D01*
X139966776Y-77549913D01*
X139864855Y-77539500D01*
X139864848Y-77539500D01*
X139278152Y-77539500D01*
X139278144Y-77539500D01*
X139176223Y-77549913D01*
X139011077Y-77604637D01*
X139011066Y-77604642D01*
X138863000Y-77695971D01*
X138862996Y-77695974D01*
X138739974Y-77818996D01*
X138739971Y-77819000D01*
X138648642Y-77967066D01*
X138648637Y-77967077D01*
X138593913Y-78132223D01*
X138583500Y-78234144D01*
X138583500Y-79245855D01*
X138593913Y-79347776D01*
X138648637Y-79512922D01*
X138648642Y-79512933D01*
X138739971Y-79660999D01*
X138739974Y-79661003D01*
X138862997Y-79784026D01*
X138887096Y-79798891D01*
X138933821Y-79850837D01*
X138946000Y-79904429D01*
X138946000Y-81224770D01*
X138926315Y-81291809D01*
X138909681Y-81312451D01*
X138844789Y-81377342D01*
X138752687Y-81526663D01*
X138752685Y-81526668D01*
X138738322Y-81570013D01*
X138697501Y-81693203D01*
X138697501Y-81693204D01*
X138697500Y-81693204D01*
X138687000Y-81795983D01*
X138687000Y-82796001D01*
X138687001Y-82796019D01*
X138697500Y-82898796D01*
X138697501Y-82898799D01*
X138726527Y-82986392D01*
X138752686Y-83065334D01*
X138844788Y-83214656D01*
X138968844Y-83338712D01*
X139118166Y-83430814D01*
X139284703Y-83485999D01*
X139387491Y-83496500D01*
X140012508Y-83496499D01*
X140012516Y-83496498D01*
X140012519Y-83496498D01*
X140094778Y-83488095D01*
X140115297Y-83485999D01*
X140281834Y-83430814D01*
X140431156Y-83338712D01*
X140525175Y-83244692D01*
X140586494Y-83211210D01*
X140656186Y-83216194D01*
X140700534Y-83244695D01*
X140794154Y-83338315D01*
X140943375Y-83430356D01*
X140943380Y-83430358D01*
X141109802Y-83485505D01*
X141109809Y-83485506D01*
X141212519Y-83495999D01*
X141775000Y-83495999D01*
X141837472Y-83495999D01*
X141837486Y-83495998D01*
X141940197Y-83485505D01*
X142106619Y-83430358D01*
X142106624Y-83430356D01*
X142255845Y-83338315D01*
X142379815Y-83214345D01*
X142471856Y-83065124D01*
X142471858Y-83065119D01*
X142527005Y-82898697D01*
X142527006Y-82898690D01*
X142537499Y-82795986D01*
X142537500Y-82795973D01*
X142537500Y-82546000D01*
X141775000Y-82546000D01*
X141775000Y-83495999D01*
X141212519Y-83495999D01*
X141274999Y-83495998D01*
X141275000Y-83495998D01*
X141275000Y-82046000D01*
X141775000Y-82046000D01*
X142537499Y-82046000D01*
X142537499Y-81796028D01*
X142537498Y-81796013D01*
X142527005Y-81693302D01*
X142471858Y-81526880D01*
X142471856Y-81526875D01*
X142379815Y-81377654D01*
X142255845Y-81253684D01*
X142106624Y-81161643D01*
X142106619Y-81161641D01*
X141940197Y-81106494D01*
X141940190Y-81106493D01*
X141837486Y-81096000D01*
X141775000Y-81096000D01*
X141775000Y-82046000D01*
X141275000Y-82046000D01*
X141275000Y-81096000D01*
X141274999Y-81095999D01*
X141212528Y-81096000D01*
X141212511Y-81096001D01*
X141109802Y-81106494D01*
X140943380Y-81161641D01*
X140943375Y-81161643D01*
X140794157Y-81253682D01*
X140700534Y-81347305D01*
X140639210Y-81380789D01*
X140569519Y-81375805D01*
X140525172Y-81347304D01*
X140431157Y-81253289D01*
X140431156Y-81253288D01*
X140281834Y-81161186D01*
X140281832Y-81161185D01*
X140281830Y-81161184D01*
X140275289Y-81158134D01*
X140275829Y-81156973D01*
X140224542Y-81121456D01*
X140197727Y-81056937D01*
X140197000Y-81043533D01*
X140197000Y-79904429D01*
X140216685Y-79837390D01*
X140255902Y-79798891D01*
X140280003Y-79784026D01*
X140403026Y-79661003D01*
X140403458Y-79660301D01*
X140403881Y-79659921D01*
X140407507Y-79655336D01*
X140408290Y-79655955D01*
X140455402Y-79613575D01*
X140524364Y-79602349D01*
X140588448Y-79630188D01*
X140610342Y-79655455D01*
X140610493Y-79655336D01*
X140613143Y-79658687D01*
X140614540Y-79660299D01*
X140614972Y-79660999D01*
X140614975Y-79661004D01*
X140737996Y-79784025D01*
X140738000Y-79784028D01*
X140886066Y-79875357D01*
X140886069Y-79875358D01*
X140886075Y-79875362D01*
X141051225Y-79930087D01*
X141153152Y-79940500D01*
X141153157Y-79940500D01*
X141739843Y-79940500D01*
X141739848Y-79940500D01*
X141841775Y-79930087D01*
X142006925Y-79875362D01*
X142033473Y-79858986D01*
X142100864Y-79840545D01*
X142167528Y-79861466D01*
X142186252Y-79876843D01*
X145736181Y-83426772D01*
X145769666Y-83488095D01*
X145772500Y-83514453D01*
X145772500Y-83918496D01*
X145752815Y-83985535D01*
X145700011Y-84031290D01*
X145630853Y-84041234D01*
X145601049Y-84033058D01*
X145486315Y-83985535D01*
X145449066Y-83970106D01*
X145449062Y-83970105D01*
X145449058Y-83970103D01*
X145275094Y-83935500D01*
X145275091Y-83935500D01*
X145097709Y-83935500D01*
X145097706Y-83935500D01*
X144923741Y-83970103D01*
X144923732Y-83970106D01*
X144759859Y-84037983D01*
X144759846Y-84037990D01*
X144612365Y-84136535D01*
X144612361Y-84136538D01*
X144486938Y-84261961D01*
X144486935Y-84261965D01*
X144388390Y-84409446D01*
X144388383Y-84409459D01*
X144320506Y-84573332D01*
X144320503Y-84573341D01*
X144285900Y-84747304D01*
X144285900Y-84924695D01*
X144316456Y-85078309D01*
X144310229Y-85147900D01*
X144267366Y-85203078D01*
X144201476Y-85226322D01*
X144194839Y-85226500D01*
X142609517Y-85226500D01*
X142542478Y-85206815D01*
X142496723Y-85154011D01*
X142491811Y-85141505D01*
X142482080Y-85112139D01*
X142472314Y-85082666D01*
X142380212Y-84933344D01*
X142256156Y-84809288D01*
X142110769Y-84719613D01*
X142106836Y-84717187D01*
X142106831Y-84717185D01*
X142040608Y-84695241D01*
X141940297Y-84662001D01*
X141940295Y-84662000D01*
X141837516Y-84651500D01*
X141260452Y-84651500D01*
X141193413Y-84631815D01*
X141172771Y-84615181D01*
X140989198Y-84431608D01*
X140989178Y-84431586D01*
X140897736Y-84340144D01*
X140897728Y-84340138D01*
X140845962Y-84305549D01*
X140845960Y-84305548D01*
X140795290Y-84271690D01*
X140795286Y-84271688D01*
X140787671Y-84268534D01*
X140705594Y-84234537D01*
X140705592Y-84234535D01*
X140681458Y-84224539D01*
X140681454Y-84224537D01*
X140681452Y-84224537D01*
X140681448Y-84224536D01*
X140681444Y-84224535D01*
X140600639Y-84208462D01*
X140600638Y-84208462D01*
X140560611Y-84200500D01*
X140560607Y-84200500D01*
X140560606Y-84200500D01*
X136506593Y-84200500D01*
X136383379Y-84200500D01*
X136343346Y-84208463D01*
X136343345Y-84208462D01*
X136262541Y-84224535D01*
X136262531Y-84224538D01*
X136237482Y-84234914D01*
X136237481Y-84234914D01*
X136148703Y-84271685D01*
X136143894Y-84274900D01*
X136143891Y-84274902D01*
X136046254Y-84340140D01*
X136014580Y-84371815D01*
X135959128Y-84427267D01*
X135959125Y-84427270D01*
X135905296Y-84481099D01*
X135854988Y-84531407D01*
X135793665Y-84564891D01*
X135723973Y-84559907D01*
X135668040Y-84518035D01*
X135664205Y-84512616D01*
X135643146Y-84481099D01*
X135643146Y-84481100D01*
X135613858Y-84437267D01*
X135613855Y-84437264D01*
X135613853Y-84437261D01*
X135523637Y-84347045D01*
X135523606Y-84347016D01*
X134884770Y-83708180D01*
X134851285Y-83646857D01*
X134856269Y-83577165D01*
X134898141Y-83521232D01*
X134963605Y-83496815D01*
X134972451Y-83496499D01*
X135233502Y-83496499D01*
X135233508Y-83496499D01*
X135336297Y-83485999D01*
X135502834Y-83430814D01*
X135652156Y-83338712D01*
X135746175Y-83244692D01*
X135807494Y-83211210D01*
X135877186Y-83216194D01*
X135921534Y-83244695D01*
X136015154Y-83338315D01*
X136164375Y-83430356D01*
X136164380Y-83430358D01*
X136330802Y-83485505D01*
X136330809Y-83485506D01*
X136433519Y-83495999D01*
X136996000Y-83495999D01*
X137058472Y-83495999D01*
X137058486Y-83495998D01*
X137161197Y-83485505D01*
X137327619Y-83430358D01*
X137327624Y-83430356D01*
X137476845Y-83338315D01*
X137600815Y-83214345D01*
X137692856Y-83065124D01*
X137692858Y-83065119D01*
X137748005Y-82898697D01*
X137748006Y-82898690D01*
X137758499Y-82795986D01*
X137758500Y-82795973D01*
X137758500Y-82546000D01*
X136996000Y-82546000D01*
X136996000Y-83495999D01*
X136433519Y-83495999D01*
X136495999Y-83495998D01*
X136496000Y-83495998D01*
X136496000Y-82046000D01*
X136996000Y-82046000D01*
X137758499Y-82046000D01*
X137758499Y-81796028D01*
X137758498Y-81796013D01*
X137748005Y-81693302D01*
X137692858Y-81526880D01*
X137692856Y-81526875D01*
X137600815Y-81377654D01*
X137476845Y-81253684D01*
X137327624Y-81161643D01*
X137327619Y-81161641D01*
X137161197Y-81106494D01*
X137161190Y-81106493D01*
X137058486Y-81096000D01*
X136996000Y-81096000D01*
X136996000Y-82046000D01*
X136496000Y-82046000D01*
X136496000Y-81096000D01*
X136495999Y-81095999D01*
X136433528Y-81096000D01*
X136433511Y-81096001D01*
X136330802Y-81106494D01*
X136164380Y-81161641D01*
X136164375Y-81161643D01*
X136015157Y-81253682D01*
X135921534Y-81347305D01*
X135860210Y-81380789D01*
X135790519Y-81375805D01*
X135746172Y-81347304D01*
X135652155Y-81253287D01*
X135605402Y-81224449D01*
X135558678Y-81172500D01*
X135546500Y-81118911D01*
X135546500Y-79904429D01*
X135566185Y-79837390D01*
X135605402Y-79798891D01*
X135629503Y-79784026D01*
X135752526Y-79661003D01*
X135752958Y-79660301D01*
X135753381Y-79659921D01*
X135757007Y-79655336D01*
X135757790Y-79655955D01*
X135804902Y-79613575D01*
X135873864Y-79602349D01*
X135937948Y-79630188D01*
X135959842Y-79655455D01*
X135959993Y-79655336D01*
X135962643Y-79658687D01*
X135964040Y-79660299D01*
X135964472Y-79660999D01*
X135964475Y-79661004D01*
X136087496Y-79784025D01*
X136087500Y-79784028D01*
X136235566Y-79875357D01*
X136235569Y-79875358D01*
X136235575Y-79875362D01*
X136400725Y-79930087D01*
X136502652Y-79940500D01*
X136502657Y-79940500D01*
X137089343Y-79940500D01*
X137089348Y-79940500D01*
X137191275Y-79930087D01*
X137356425Y-79875362D01*
X137504503Y-79784026D01*
X137627526Y-79661003D01*
X137718862Y-79512925D01*
X137773587Y-79347775D01*
X137784000Y-79245848D01*
X137784000Y-78234152D01*
X137773587Y-78132225D01*
X137718862Y-77967075D01*
X137718858Y-77967069D01*
X137718857Y-77967066D01*
X137627528Y-77819000D01*
X137627525Y-77818996D01*
X137504503Y-77695974D01*
X137504499Y-77695971D01*
X137356433Y-77604642D01*
X137356427Y-77604639D01*
X137356425Y-77604638D01*
X137333073Y-77596900D01*
X137191276Y-77549913D01*
X137089355Y-77539500D01*
X137089348Y-77539500D01*
X136531452Y-77539500D01*
X136464413Y-77519815D01*
X136443771Y-77503181D01*
X136260198Y-77319608D01*
X136260178Y-77319586D01*
X136168733Y-77228141D01*
X136117509Y-77193915D01*
X136066287Y-77159689D01*
X136066286Y-77159688D01*
X136066283Y-77159686D01*
X136066280Y-77159685D01*
X135985792Y-77126347D01*
X135952453Y-77112537D01*
X135942427Y-77110543D01*
X135892029Y-77100518D01*
X135831610Y-77088500D01*
X135831607Y-77088500D01*
X135831606Y-77088500D01*
X134502239Y-77088500D01*
X134502219Y-77088499D01*
X134496105Y-77088499D01*
X134372892Y-77088499D01*
X134272095Y-77108548D01*
X134272090Y-77108548D01*
X134252047Y-77112536D01*
X134252045Y-77112536D01*
X134204895Y-77132067D01*
X134138217Y-77159685D01*
X134138215Y-77159686D01*
X134035764Y-77228141D01*
X134035761Y-77228144D01*
X133232091Y-78031815D01*
X133170768Y-78065300D01*
X133101076Y-78060316D01*
X133045143Y-78018444D01*
X133026704Y-77983137D01*
X133014359Y-77945882D01*
X133014356Y-77945875D01*
X132922315Y-77796654D01*
X132798345Y-77672684D01*
X132649124Y-77580643D01*
X132649119Y-77580641D01*
X132482697Y-77525494D01*
X132482690Y-77525493D01*
X132379986Y-77515000D01*
X132330000Y-77515000D01*
X132330000Y-79964999D01*
X132379972Y-79964999D01*
X132379986Y-79964998D01*
X132482697Y-79954505D01*
X132649119Y-79899358D01*
X132649124Y-79899356D01*
X132738603Y-79844165D01*
X132805995Y-79825725D01*
X132872659Y-79846647D01*
X132917429Y-79900289D01*
X132927700Y-79949704D01*
X132927700Y-80733038D01*
X132908015Y-80800077D01*
X132891381Y-80820719D01*
X132853738Y-80858361D01*
X132853735Y-80858365D01*
X132755190Y-81005846D01*
X132755183Y-81005859D01*
X132687306Y-81169732D01*
X132687304Y-81169738D01*
X132675754Y-81227805D01*
X132643368Y-81289715D01*
X132582652Y-81324289D01*
X132512883Y-81320548D01*
X132484461Y-81304533D01*
X132483798Y-81305526D01*
X132416129Y-81260311D01*
X132376287Y-81233689D01*
X132376286Y-81233688D01*
X132376283Y-81233686D01*
X132376280Y-81233685D01*
X132291447Y-81198547D01*
X132262455Y-81186538D01*
X132262453Y-81186537D01*
X132262452Y-81186537D01*
X132202029Y-81174518D01*
X132141610Y-81162500D01*
X132141607Y-81162500D01*
X132141606Y-81162500D01*
X129601607Y-81162500D01*
X129478393Y-81162500D01*
X129478389Y-81162500D01*
X129417971Y-81174518D01*
X129357548Y-81186537D01*
X129357546Y-81186537D01*
X129357545Y-81186538D01*
X129357543Y-81186538D01*
X129290626Y-81214256D01*
X129221156Y-81221725D01*
X129158677Y-81190449D01*
X129123025Y-81130360D01*
X129125520Y-81060535D01*
X129128605Y-81052262D01*
X129135894Y-81034666D01*
X129141626Y-81005853D01*
X129164977Y-80888456D01*
X129170500Y-80860691D01*
X129170500Y-80685451D01*
X129190185Y-80618412D01*
X129206819Y-80597770D01*
X129459143Y-80345446D01*
X129802772Y-80001816D01*
X129864093Y-79968333D01*
X129890441Y-79965499D01*
X130480008Y-79965499D01*
X130480016Y-79965498D01*
X130480019Y-79965498D01*
X130536302Y-79959748D01*
X130582797Y-79954999D01*
X130749334Y-79899814D01*
X130898656Y-79807712D01*
X131022712Y-79683656D01*
X131024752Y-79680347D01*
X131026745Y-79678555D01*
X131027193Y-79677989D01*
X131027289Y-79678065D01*
X131076694Y-79633623D01*
X131145656Y-79622395D01*
X131209740Y-79650234D01*
X131235829Y-79680339D01*
X131237681Y-79683341D01*
X131237683Y-79683344D01*
X131361654Y-79807315D01*
X131510875Y-79899356D01*
X131510880Y-79899358D01*
X131677302Y-79954505D01*
X131677309Y-79954506D01*
X131780019Y-79964999D01*
X131829999Y-79964998D01*
X131830000Y-79964998D01*
X131830000Y-77515000D01*
X131829999Y-77514999D01*
X131780029Y-77515000D01*
X131780011Y-77515001D01*
X131677302Y-77525494D01*
X131510880Y-77580641D01*
X131510875Y-77580643D01*
X131361654Y-77672684D01*
X131237683Y-77796655D01*
X131237679Y-77796660D01*
X131235826Y-77799665D01*
X131234018Y-77801290D01*
X131233202Y-77802323D01*
X131233025Y-77802183D01*
X131183874Y-77846385D01*
X131114911Y-77857601D01*
X131050831Y-77829752D01*
X131024753Y-77799653D01*
X131024737Y-77799628D01*
X131022712Y-77796344D01*
X130898656Y-77672288D01*
X130749334Y-77580186D01*
X130582797Y-77525001D01*
X130582795Y-77525000D01*
X130480010Y-77514500D01*
X129879998Y-77514500D01*
X129879980Y-77514501D01*
X129777203Y-77525000D01*
X129777200Y-77525001D01*
X129610668Y-77580185D01*
X129610663Y-77580187D01*
X129461342Y-77672289D01*
X129337289Y-77796342D01*
X129245187Y-77945663D01*
X129245185Y-77945668D01*
X129238091Y-77967077D01*
X129190001Y-78112203D01*
X129190001Y-78112204D01*
X129190000Y-78112204D01*
X129179500Y-78214983D01*
X129179500Y-78804546D01*
X129159815Y-78871585D01*
X129143181Y-78892227D01*
X128907681Y-79127727D01*
X128846358Y-79161212D01*
X128776666Y-79156228D01*
X128720733Y-79114356D01*
X128696316Y-79048892D01*
X128696000Y-79040046D01*
X128696000Y-78990000D01*
X127820000Y-78990000D01*
X127752961Y-78970315D01*
X127707206Y-78917511D01*
X127696000Y-78866000D01*
X127696000Y-78740000D01*
X127570000Y-78740000D01*
X127502961Y-78720315D01*
X127457206Y-78667511D01*
X127446000Y-78616000D01*
X127446000Y-78490000D01*
X127946000Y-78490000D01*
X128695999Y-78490000D01*
X128695999Y-78215028D01*
X128695998Y-78215013D01*
X128685505Y-78112302D01*
X128630358Y-77945880D01*
X128630356Y-77945875D01*
X128538315Y-77796654D01*
X128414345Y-77672684D01*
X128265124Y-77580643D01*
X128265119Y-77580641D01*
X128098697Y-77525494D01*
X128098690Y-77525493D01*
X127995986Y-77515000D01*
X127946000Y-77515000D01*
X127946000Y-78490000D01*
X127446000Y-78490000D01*
X127446000Y-77515000D01*
X127445999Y-77514999D01*
X127396029Y-77515000D01*
X127396011Y-77515001D01*
X127293302Y-77525494D01*
X127126880Y-77580641D01*
X127126875Y-77580643D01*
X126977654Y-77672684D01*
X126853683Y-77796655D01*
X126853679Y-77796660D01*
X126851826Y-77799665D01*
X126850018Y-77801290D01*
X126849202Y-77802323D01*
X126849025Y-77802183D01*
X126799874Y-77846385D01*
X126730911Y-77857601D01*
X126666831Y-77829752D01*
X126640753Y-77799653D01*
X126640737Y-77799628D01*
X126638712Y-77796344D01*
X126514656Y-77672288D01*
X126365334Y-77580186D01*
X126198797Y-77525001D01*
X126198795Y-77525000D01*
X126096010Y-77514500D01*
X125495998Y-77514500D01*
X125495980Y-77514501D01*
X125393203Y-77525000D01*
X125393200Y-77525001D01*
X125226668Y-77580185D01*
X125226663Y-77580187D01*
X125077342Y-77672289D01*
X124953289Y-77796342D01*
X124861187Y-77945663D01*
X124861185Y-77945668D01*
X124854091Y-77967077D01*
X124806001Y-78112203D01*
X124806001Y-78112204D01*
X124806000Y-78112204D01*
X124795500Y-78214983D01*
X124795500Y-79265001D01*
X124795501Y-79265019D01*
X124806000Y-79367796D01*
X124806001Y-79367799D01*
X124843121Y-79479817D01*
X124861186Y-79534334D01*
X124953096Y-79683345D01*
X124953289Y-79683657D01*
X125077345Y-79807713D01*
X125111594Y-79828837D01*
X125158320Y-79880784D01*
X125170500Y-79934377D01*
X125170500Y-80395548D01*
X125150815Y-80462587D01*
X125134181Y-80483229D01*
X125020229Y-80597181D01*
X124958906Y-80630666D01*
X124932548Y-80633500D01*
X124879306Y-80633500D01*
X124705341Y-80668103D01*
X124705332Y-80668106D01*
X124541459Y-80735983D01*
X124541446Y-80735990D01*
X124393965Y-80834535D01*
X124393961Y-80834538D01*
X124268538Y-80959961D01*
X124268535Y-80959965D01*
X124169990Y-81107446D01*
X124169983Y-81107459D01*
X124102106Y-81271332D01*
X124102103Y-81271341D01*
X124067500Y-81445304D01*
X124067500Y-81546500D01*
X124047815Y-81613539D01*
X123995011Y-81659294D01*
X123943500Y-81670500D01*
X119034930Y-81670500D01*
X118967891Y-81650815D01*
X118922136Y-81598011D01*
X118911439Y-81535279D01*
X118912202Y-81526880D01*
X118915000Y-81496091D01*
X118914999Y-81063910D01*
X118914999Y-81063909D01*
X118914999Y-81063901D01*
X118908931Y-80997117D01*
X118908928Y-80997106D01*
X118861032Y-80843400D01*
X118861031Y-80843398D01*
X118847321Y-80820719D01*
X118779581Y-80708664D01*
X118761745Y-80641112D01*
X118779582Y-80580365D01*
X118860571Y-80446394D01*
X118860572Y-80446393D01*
X118908432Y-80292802D01*
X118908435Y-80292792D01*
X118911414Y-80260000D01*
X116292585Y-80260000D01*
X116295564Y-80292792D01*
X116295567Y-80292802D01*
X116343427Y-80446392D01*
X116424418Y-80580366D01*
X116442254Y-80647920D01*
X116424418Y-80708666D01*
X116342969Y-80843397D01*
X116295069Y-80997116D01*
X116289000Y-81063911D01*
X116289000Y-81403047D01*
X116269315Y-81470086D01*
X116252681Y-81490728D01*
X115846144Y-81897264D01*
X115846138Y-81897272D01*
X115777690Y-81999708D01*
X115777688Y-81999713D01*
X115753587Y-82057900D01*
X115730538Y-82113544D01*
X115730535Y-82113556D01*
X115722336Y-82154774D01*
X115722337Y-82154775D01*
X115716479Y-82184229D01*
X115707554Y-82229098D01*
X115707552Y-82229104D01*
X115706500Y-82234391D01*
X115706500Y-83881610D01*
X115730535Y-84002444D01*
X115730539Y-84002458D01*
X115745695Y-84039048D01*
X115753164Y-84108517D01*
X115721888Y-84170996D01*
X115661799Y-84206648D01*
X115631134Y-84210500D01*
X113254889Y-84210500D01*
X113194471Y-84222518D01*
X113134048Y-84234537D01*
X113134046Y-84234537D01*
X113134045Y-84234538D01*
X113134043Y-84234538D01*
X113088481Y-84253411D01*
X113020216Y-84281686D01*
X113012102Y-84287109D01*
X113012101Y-84287110D01*
X112917768Y-84350140D01*
X112876409Y-84391500D01*
X112830642Y-84437267D01*
X112830639Y-84437270D01*
X111920180Y-85347728D01*
X111858857Y-85381213D01*
X111789165Y-85376229D01*
X111733232Y-85334357D01*
X111708815Y-85268893D01*
X111708499Y-85260063D01*
X111708499Y-85000910D01*
X111708499Y-85000901D01*
X111702431Y-84934117D01*
X111702428Y-84934106D01*
X111654532Y-84780401D01*
X111654531Y-84780400D01*
X111654531Y-84780398D01*
X111571236Y-84642612D01*
X111571234Y-84642610D01*
X111571233Y-84642608D01*
X111457391Y-84528766D01*
X111402584Y-84495634D01*
X111319602Y-84445469D01*
X111165887Y-84397570D01*
X111165885Y-84397569D01*
X111165883Y-84397569D01*
X111119117Y-84393319D01*
X111099091Y-84391500D01*
X111099088Y-84391500D01*
X110016252Y-84391500D01*
X109949213Y-84371815D01*
X109928571Y-84355181D01*
X109547219Y-83973829D01*
X109513734Y-83912506D01*
X109510900Y-83886148D01*
X109510900Y-83832906D01*
X109510899Y-83832904D01*
X109476296Y-83658941D01*
X109476293Y-83658932D01*
X109471291Y-83646857D01*
X109412950Y-83506008D01*
X109405482Y-83436540D01*
X109436757Y-83374061D01*
X109496847Y-83338409D01*
X109564402Y-83340171D01*
X109656707Y-83368934D01*
X109723457Y-83375000D01*
X110177000Y-83375000D01*
X110677000Y-83375000D01*
X111130543Y-83375000D01*
X111197292Y-83368934D01*
X111350896Y-83321070D01*
X111488580Y-83237836D01*
X111513916Y-83212500D01*
X113252669Y-83212500D01*
X114708500Y-83212500D01*
X114708500Y-82209881D01*
X114708649Y-82203795D01*
X114710457Y-82167001D01*
X114710906Y-82160926D01*
X114715713Y-82112146D01*
X114716458Y-82106109D01*
X114721862Y-82069685D01*
X114722903Y-82063685D01*
X114728737Y-82034364D01*
X114743511Y-81960082D01*
X114743512Y-81960079D01*
X114754669Y-81903991D01*
X114754669Y-81846900D01*
X113252669Y-81846900D01*
X113252669Y-83212500D01*
X111513916Y-83212500D01*
X111602336Y-83124080D01*
X111685572Y-82986392D01*
X111733432Y-82832802D01*
X111733435Y-82832792D01*
X111736414Y-82800000D01*
X110677000Y-82800000D01*
X110677000Y-83375000D01*
X110177000Y-83375000D01*
X110177000Y-82800000D01*
X109117585Y-82800000D01*
X109120564Y-82832792D01*
X109120565Y-82832794D01*
X109158235Y-82953682D01*
X109159385Y-83023542D01*
X109122584Y-83082935D01*
X109059515Y-83113003D01*
X108992398Y-83105134D01*
X108938803Y-83082935D01*
X108873066Y-83055706D01*
X108873062Y-83055705D01*
X108873058Y-83055703D01*
X108699094Y-83021100D01*
X108699091Y-83021100D01*
X108521709Y-83021100D01*
X108521706Y-83021100D01*
X108347741Y-83055703D01*
X108347732Y-83055706D01*
X108183859Y-83123583D01*
X108183846Y-83123590D01*
X108036365Y-83222135D01*
X108036361Y-83222138D01*
X107910938Y-83347561D01*
X107910935Y-83347565D01*
X107812390Y-83495046D01*
X107812383Y-83495059D01*
X107761060Y-83618968D01*
X107717220Y-83673372D01*
X107650926Y-83695437D01*
X107583226Y-83678158D01*
X107535615Y-83627021D01*
X107522499Y-83571516D01*
X107522499Y-83176129D01*
X107522498Y-83176123D01*
X107522497Y-83176116D01*
X107516091Y-83116517D01*
X107514780Y-83113003D01*
X107465797Y-82981671D01*
X107465793Y-82981664D01*
X107379547Y-82866455D01*
X107379544Y-82866452D01*
X107264335Y-82780206D01*
X107264328Y-82780202D01*
X107129482Y-82729908D01*
X107129483Y-82729908D01*
X107069883Y-82723501D01*
X107069881Y-82723500D01*
X107069873Y-82723500D01*
X107069864Y-82723500D01*
X105274129Y-82723500D01*
X105274123Y-82723501D01*
X105214516Y-82729908D01*
X105079671Y-82780202D01*
X105079664Y-82780206D01*
X104964455Y-82866452D01*
X104964452Y-82866455D01*
X104878206Y-82981664D01*
X104878202Y-82981671D01*
X104827908Y-83116517D01*
X104821501Y-83176116D01*
X104821501Y-83176123D01*
X104821500Y-83176135D01*
X104821500Y-84971870D01*
X104821501Y-84971876D01*
X104827908Y-85031483D01*
X104878202Y-85166328D01*
X104878206Y-85166335D01*
X104964452Y-85281544D01*
X104964455Y-85281547D01*
X105079664Y-85367793D01*
X105079671Y-85367797D01*
X105115642Y-85381213D01*
X105214517Y-85418091D01*
X105274127Y-85424500D01*
X105284685Y-85424499D01*
X105351723Y-85444179D01*
X105372372Y-85460818D01*
X106042591Y-86131037D01*
X105979007Y-86148075D01*
X105864993Y-86213901D01*
X105771901Y-86306993D01*
X105706075Y-86421007D01*
X105689037Y-86484591D01*
X105056728Y-85852282D01*
X105056727Y-85852282D01*
X105017380Y-85906439D01*
X104920904Y-86095782D01*
X104855242Y-86297869D01*
X104855242Y-86297872D01*
X104822000Y-86507753D01*
X104822000Y-86720246D01*
X104855242Y-86930127D01*
X104855242Y-86930130D01*
X104920904Y-87132217D01*
X105017375Y-87321550D01*
X105056728Y-87375716D01*
X105689037Y-86743408D01*
X105706075Y-86806993D01*
X105771901Y-86921007D01*
X105864993Y-87014099D01*
X105979007Y-87079925D01*
X106042590Y-87096962D01*
X105410282Y-87729269D01*
X105410282Y-87729270D01*
X105464449Y-87768624D01*
X105653782Y-87865095D01*
X105855870Y-87930757D01*
X106065754Y-87964000D01*
X106278246Y-87964000D01*
X106488127Y-87930757D01*
X106488130Y-87930757D01*
X106690217Y-87865095D01*
X106879554Y-87768622D01*
X106933716Y-87729270D01*
X106933717Y-87729270D01*
X106301408Y-87096962D01*
X106364993Y-87079925D01*
X106479007Y-87014099D01*
X106572099Y-86921007D01*
X106637925Y-86806993D01*
X106654962Y-86743409D01*
X107287270Y-87375717D01*
X107287270Y-87375716D01*
X107326622Y-87321554D01*
X107423095Y-87132217D01*
X107488757Y-86930130D01*
X107488757Y-86930127D01*
X107522000Y-86720246D01*
X107522000Y-86507753D01*
X107488757Y-86297872D01*
X107488757Y-86297869D01*
X107423095Y-86095782D01*
X107326624Y-85906449D01*
X107287270Y-85852282D01*
X107287269Y-85852282D01*
X106654962Y-86484590D01*
X106637925Y-86421007D01*
X106572099Y-86306993D01*
X106479007Y-86213901D01*
X106364993Y-86148075D01*
X106301409Y-86131037D01*
X106971627Y-85460818D01*
X107032950Y-85427333D01*
X107059307Y-85424499D01*
X107069872Y-85424499D01*
X107129483Y-85418091D01*
X107264331Y-85367796D01*
X107379546Y-85281546D01*
X107465796Y-85166331D01*
X107516091Y-85031483D01*
X107522500Y-84971873D01*
X107522499Y-84271681D01*
X107542183Y-84204645D01*
X107594987Y-84158890D01*
X107664146Y-84148946D01*
X107727702Y-84177971D01*
X107761060Y-84224232D01*
X107812383Y-84348140D01*
X107812390Y-84348153D01*
X107910935Y-84495634D01*
X107910938Y-84495638D01*
X108036361Y-84621061D01*
X108036365Y-84621064D01*
X108183846Y-84719609D01*
X108183859Y-84719616D01*
X108306763Y-84770523D01*
X108347734Y-84787494D01*
X108347736Y-84787494D01*
X108347741Y-84787496D01*
X108521704Y-84822099D01*
X108521707Y-84822100D01*
X108521709Y-84822100D01*
X108574948Y-84822100D01*
X108641987Y-84841785D01*
X108662629Y-84858419D01*
X109046181Y-85241971D01*
X109079666Y-85303294D01*
X109082500Y-85329651D01*
X109082500Y-85433098D01*
X109088568Y-85499882D01*
X109088571Y-85499893D01*
X109136467Y-85653599D01*
X109217625Y-85787850D01*
X109235461Y-85855405D01*
X109217625Y-85916150D01*
X109136469Y-86050397D01*
X109088569Y-86204116D01*
X109082500Y-86270911D01*
X109082500Y-86703098D01*
X109088568Y-86769882D01*
X109088569Y-86769885D01*
X109116477Y-86859446D01*
X109117627Y-86929307D01*
X109080826Y-86988699D01*
X109017757Y-87018767D01*
X108973900Y-87017953D01*
X108800694Y-86983500D01*
X108800691Y-86983500D01*
X108623309Y-86983500D01*
X108623306Y-86983500D01*
X108449341Y-87018103D01*
X108449332Y-87018106D01*
X108285459Y-87085983D01*
X108285446Y-87085990D01*
X108137965Y-87184535D01*
X108137961Y-87184538D01*
X108012538Y-87309961D01*
X108012535Y-87309965D01*
X107913990Y-87457446D01*
X107913983Y-87457459D01*
X107846106Y-87621332D01*
X107846103Y-87621341D01*
X107811500Y-87795304D01*
X107811500Y-87972695D01*
X107846103Y-88146658D01*
X107846106Y-88146667D01*
X107913983Y-88310540D01*
X107913990Y-88310553D01*
X108012535Y-88458034D01*
X108012538Y-88458038D01*
X108137961Y-88583461D01*
X108137965Y-88583464D01*
X108285446Y-88682009D01*
X108285459Y-88682016D01*
X108408363Y-88732923D01*
X108449334Y-88749894D01*
X108449336Y-88749894D01*
X108449341Y-88749896D01*
X108623304Y-88784499D01*
X108623307Y-88784500D01*
X108623309Y-88784500D01*
X108800693Y-88784500D01*
X108894621Y-88765815D01*
X108974666Y-88749894D01*
X108974667Y-88749893D01*
X108979415Y-88748949D01*
X109049007Y-88755176D01*
X109080718Y-88777000D01*
X111704915Y-88777000D01*
X111704914Y-88776999D01*
X111701935Y-88744207D01*
X111701932Y-88744197D01*
X111654072Y-88590606D01*
X111654071Y-88590604D01*
X111573082Y-88456634D01*
X111555245Y-88389079D01*
X111573080Y-88328336D01*
X111654531Y-88193602D01*
X111702430Y-88039887D01*
X111708500Y-87973091D01*
X111708499Y-87540910D01*
X111708499Y-87540901D01*
X111702431Y-87474117D01*
X111697238Y-87457453D01*
X111691598Y-87439354D01*
X111690449Y-87369494D01*
X111722302Y-87314786D01*
X111841285Y-87195803D01*
X113252669Y-87195803D01*
X113252669Y-88348900D01*
X113417500Y-88348900D01*
X113417500Y-88278809D01*
X113417649Y-88272726D01*
X113419455Y-88235954D01*
X113419903Y-88229884D01*
X113424706Y-88181112D01*
X113425451Y-88175071D01*
X113430855Y-88138640D01*
X113431896Y-88132643D01*
X113476065Y-87910592D01*
X113477399Y-87904651D01*
X113486351Y-87868916D01*
X113487975Y-87863048D01*
X113502202Y-87816155D01*
X113504110Y-87810380D01*
X113516509Y-87775728D01*
X113518699Y-87770051D01*
X113605329Y-87560905D01*
X113607794Y-87555344D01*
X113623534Y-87522062D01*
X113626271Y-87516623D01*
X113649373Y-87473401D01*
X113652373Y-87468106D01*
X113671309Y-87436512D01*
X113674566Y-87431368D01*
X113800343Y-87243131D01*
X113803847Y-87238155D01*
X113825779Y-87208583D01*
X113829524Y-87203785D01*
X113860613Y-87165903D01*
X113864587Y-87161296D01*
X113889318Y-87134009D01*
X113893516Y-87129600D01*
X114053600Y-86969516D01*
X114058009Y-86965318D01*
X114085296Y-86940587D01*
X114089903Y-86936613D01*
X114127785Y-86905524D01*
X114132583Y-86901779D01*
X114162155Y-86879847D01*
X114167131Y-86876343D01*
X114211195Y-86846900D01*
X113601573Y-86846900D01*
X113252669Y-87195803D01*
X111841285Y-87195803D01*
X113539271Y-85497819D01*
X113600594Y-85464334D01*
X113626952Y-85461500D01*
X115496315Y-85461500D01*
X115563354Y-85481185D01*
X115583996Y-85497819D01*
X115657497Y-85571320D01*
X115701909Y-85615732D01*
X115701910Y-85615733D01*
X115788512Y-85702335D01*
X115789036Y-85702859D01*
X115891475Y-85771307D01*
X115891481Y-85771310D01*
X115891482Y-85771311D01*
X116005316Y-85818463D01*
X116005320Y-85818463D01*
X116005321Y-85818464D01*
X116063282Y-85829993D01*
X116063298Y-85829996D01*
X116063318Y-85830000D01*
X116126159Y-85842499D01*
X116126160Y-85842500D01*
X116126161Y-85842500D01*
X116126162Y-85842500D01*
X116217875Y-85842500D01*
X116284914Y-85862185D01*
X116330669Y-85914989D01*
X116340613Y-85984147D01*
X116323992Y-86030650D01*
X116311927Y-86050606D01*
X116264067Y-86204197D01*
X116264064Y-86204207D01*
X116261085Y-86236999D01*
X116261085Y-86237000D01*
X117446500Y-86237000D01*
X117513539Y-86256685D01*
X117559294Y-86309489D01*
X117570500Y-86361000D01*
X117570500Y-86613000D01*
X117550815Y-86680039D01*
X117498011Y-86725794D01*
X117446500Y-86737000D01*
X116261085Y-86737000D01*
X116264064Y-86769792D01*
X116264067Y-86769802D01*
X116311927Y-86923393D01*
X116323992Y-86943350D01*
X116341828Y-87010905D01*
X116320310Y-87077379D01*
X116266270Y-87121666D01*
X116217875Y-87131500D01*
X116018741Y-87131500D01*
X116018721Y-87131499D01*
X116012607Y-87131499D01*
X115889394Y-87131499D01*
X115788597Y-87151548D01*
X115788592Y-87151548D01*
X115768548Y-87155536D01*
X115768545Y-87155537D01*
X115735454Y-87169245D01*
X115735451Y-87169246D01*
X115654721Y-87202684D01*
X115654708Y-87202691D01*
X115552267Y-87271141D01*
X115552263Y-87271144D01*
X115368228Y-87455181D01*
X115306905Y-87488666D01*
X115280547Y-87491500D01*
X115227306Y-87491500D01*
X115053341Y-87526103D01*
X115053332Y-87526106D01*
X114889459Y-87593983D01*
X114889446Y-87593990D01*
X114741965Y-87692535D01*
X114741961Y-87692538D01*
X114616538Y-87817961D01*
X114616535Y-87817965D01*
X114517990Y-87965446D01*
X114517983Y-87965459D01*
X114450106Y-88129332D01*
X114450103Y-88129341D01*
X114415500Y-88303304D01*
X114415500Y-88480695D01*
X114450103Y-88654658D01*
X114450106Y-88654667D01*
X114517983Y-88818540D01*
X114517990Y-88818553D01*
X114616535Y-88966034D01*
X114616538Y-88966038D01*
X114741961Y-89091461D01*
X114741965Y-89091464D01*
X114889446Y-89190009D01*
X114889459Y-89190016D01*
X114993601Y-89233152D01*
X115053334Y-89257894D01*
X115098692Y-89266916D01*
X115160601Y-89299300D01*
X115195176Y-89360015D01*
X115198500Y-89388533D01*
X115198500Y-89469607D01*
X115198500Y-89469609D01*
X115198499Y-89469609D01*
X115205998Y-89507303D01*
X115205998Y-89507305D01*
X115222535Y-89590446D01*
X115222539Y-89590459D01*
X115226939Y-89601080D01*
X115233644Y-89617267D01*
X115255114Y-89669100D01*
X115269688Y-89704287D01*
X115283287Y-89724638D01*
X115299702Y-89749203D01*
X115315387Y-89772677D01*
X115338143Y-89806735D01*
X115429586Y-89898178D01*
X115429608Y-89898198D01*
X115770181Y-90238771D01*
X115803666Y-90300094D01*
X115806500Y-90326452D01*
X115806500Y-92298500D01*
X115786815Y-92365539D01*
X115734011Y-92411294D01*
X115682501Y-92422500D01*
X115540612Y-92422500D01*
X115428348Y-92437279D01*
X115428337Y-92437282D01*
X115288647Y-92495143D01*
X115195163Y-92566876D01*
X115129994Y-92592070D01*
X115119677Y-92592500D01*
X114458052Y-92592500D01*
X114391013Y-92572815D01*
X114370371Y-92556181D01*
X112239619Y-90425429D01*
X112206134Y-90364106D01*
X112203300Y-90337748D01*
X112203300Y-90284506D01*
X112203299Y-90284504D01*
X112168696Y-90110541D01*
X112168693Y-90110532D01*
X112167991Y-90108838D01*
X112134133Y-90027095D01*
X113252669Y-90027095D01*
X113825239Y-90599665D01*
X113833750Y-90585778D01*
X113944773Y-90432967D01*
X113957410Y-90418171D01*
X114090971Y-90284610D01*
X114105767Y-90271973D01*
X114258578Y-90160950D01*
X114275168Y-90150783D01*
X114357116Y-90109028D01*
X114357032Y-90108838D01*
X114314483Y-90006115D01*
X114167131Y-89907657D01*
X114162155Y-89904153D01*
X114132583Y-89882221D01*
X114127785Y-89878476D01*
X114089903Y-89847387D01*
X114085296Y-89843413D01*
X114058009Y-89818682D01*
X114053600Y-89814484D01*
X113893516Y-89654400D01*
X113889318Y-89649991D01*
X113864587Y-89622704D01*
X113860613Y-89618097D01*
X113829524Y-89580215D01*
X113825779Y-89575417D01*
X113803847Y-89545845D01*
X113800343Y-89540869D01*
X113674566Y-89352632D01*
X113671309Y-89347488D01*
X113670957Y-89346900D01*
X113252669Y-89346900D01*
X113252669Y-90027095D01*
X112134133Y-90027095D01*
X112121855Y-89997453D01*
X112100816Y-89946659D01*
X112100809Y-89946646D01*
X112002264Y-89799165D01*
X112002261Y-89799161D01*
X111876838Y-89673738D01*
X111876834Y-89673735D01*
X111729348Y-89575187D01*
X111725395Y-89573074D01*
X111675552Y-89524110D01*
X111660093Y-89455972D01*
X111665466Y-89426826D01*
X111701933Y-89309799D01*
X111701935Y-89309792D01*
X111704914Y-89277000D01*
X110645500Y-89277000D01*
X110645500Y-89705638D01*
X110625815Y-89772677D01*
X110609181Y-89793319D01*
X110603338Y-89799161D01*
X110603335Y-89799165D01*
X110504790Y-89946646D01*
X110504783Y-89946659D01*
X110436906Y-90110532D01*
X110436903Y-90110541D01*
X110402300Y-90284504D01*
X110402300Y-90461895D01*
X110436903Y-90635858D01*
X110436906Y-90635867D01*
X110504783Y-90799740D01*
X110504790Y-90799753D01*
X110603335Y-90947234D01*
X110603338Y-90947238D01*
X110728761Y-91072661D01*
X110728765Y-91072664D01*
X110876246Y-91171209D01*
X110876259Y-91171216D01*
X110965408Y-91208142D01*
X111040134Y-91239094D01*
X111040136Y-91239094D01*
X111040141Y-91239096D01*
X111214104Y-91273699D01*
X111214107Y-91273700D01*
X111214109Y-91273700D01*
X111267348Y-91273700D01*
X111334387Y-91293385D01*
X111355029Y-91310019D01*
X112255829Y-92210819D01*
X112289314Y-92272142D01*
X112284330Y-92341834D01*
X112242458Y-92397767D01*
X112176994Y-92422184D01*
X112168148Y-92422500D01*
X111679953Y-92422500D01*
X111612914Y-92402815D01*
X111592272Y-92386181D01*
X110508428Y-91302338D01*
X110508425Y-91302334D01*
X110508425Y-91302335D01*
X110501358Y-91295268D01*
X110501358Y-91295267D01*
X110414233Y-91208142D01*
X110414232Y-91208141D01*
X110414231Y-91208140D01*
X110347883Y-91163808D01*
X110321427Y-91146130D01*
X110311785Y-91139687D01*
X110311781Y-91139685D01*
X110217587Y-91100670D01*
X110197953Y-91092537D01*
X110187927Y-91090543D01*
X110137529Y-91080518D01*
X110130259Y-91079072D01*
X110077110Y-91068500D01*
X110077107Y-91068500D01*
X110077106Y-91068500D01*
X107996499Y-91068500D01*
X107929460Y-91048815D01*
X107883705Y-90996011D01*
X107872499Y-90944500D01*
X107872499Y-89896129D01*
X107872498Y-89896123D01*
X107872497Y-89896116D01*
X107866091Y-89836517D01*
X107857873Y-89814484D01*
X107815797Y-89701671D01*
X107815793Y-89701664D01*
X107729547Y-89586455D01*
X107729544Y-89586452D01*
X107614335Y-89500206D01*
X107614328Y-89500202D01*
X107479482Y-89449908D01*
X107479483Y-89449908D01*
X107419883Y-89443501D01*
X107419881Y-89443500D01*
X107419873Y-89443500D01*
X107419864Y-89443500D01*
X104924129Y-89443500D01*
X104924123Y-89443501D01*
X104864516Y-89449908D01*
X104729671Y-89500202D01*
X104729664Y-89500206D01*
X104614455Y-89586452D01*
X104614452Y-89586455D01*
X104528206Y-89701664D01*
X104528202Y-89701671D01*
X104477908Y-89836517D01*
X104472995Y-89882221D01*
X104471501Y-89896123D01*
X104471500Y-89896135D01*
X104471500Y-93491870D01*
X104471501Y-93491876D01*
X104477908Y-93551483D01*
X104528202Y-93686328D01*
X104528206Y-93686335D01*
X104614452Y-93801544D01*
X104614455Y-93801547D01*
X104729664Y-93887793D01*
X104729671Y-93887797D01*
X104864517Y-93938091D01*
X104864516Y-93938091D01*
X104871444Y-93938835D01*
X104924127Y-93944500D01*
X107419872Y-93944499D01*
X107479483Y-93938091D01*
X107614331Y-93887796D01*
X107729546Y-93801546D01*
X107815796Y-93686331D01*
X107866091Y-93551483D01*
X107872500Y-93491873D01*
X107872500Y-92443500D01*
X107892185Y-92376461D01*
X107944989Y-92330706D01*
X107996500Y-92319500D01*
X109705048Y-92319500D01*
X109772087Y-92339185D01*
X109792729Y-92355819D01*
X110073157Y-92636247D01*
X110106642Y-92697570D01*
X110101658Y-92767262D01*
X110100037Y-92771380D01*
X110068782Y-92846837D01*
X110068781Y-92846841D01*
X110054000Y-92959105D01*
X110054000Y-93476888D01*
X110068779Y-93589151D01*
X110068782Y-93589162D01*
X110110984Y-93691048D01*
X110118453Y-93760517D01*
X110087177Y-93822996D01*
X110027088Y-93858648D01*
X109996423Y-93862500D01*
X108516389Y-93862500D01*
X108455971Y-93874518D01*
X108412743Y-93883116D01*
X108395546Y-93886537D01*
X108369967Y-93897133D01*
X108357353Y-93902358D01*
X108313044Y-93920711D01*
X108281714Y-93933688D01*
X108275124Y-93938092D01*
X108275122Y-93938093D01*
X108179268Y-94002140D01*
X108147230Y-94034179D01*
X108092142Y-94089267D01*
X108092139Y-94089270D01*
X107568400Y-94613008D01*
X107507077Y-94646493D01*
X107467465Y-94648616D01*
X107419873Y-94643500D01*
X107419865Y-94643500D01*
X104924129Y-94643500D01*
X104924123Y-94643501D01*
X104864516Y-94649908D01*
X104729671Y-94700202D01*
X104729664Y-94700206D01*
X104614455Y-94786452D01*
X104614452Y-94786455D01*
X104528206Y-94901664D01*
X104528202Y-94901671D01*
X104477908Y-95036517D01*
X104471501Y-95096116D01*
X104471500Y-95096135D01*
X104471500Y-98691870D01*
X104471501Y-98691876D01*
X104477908Y-98751483D01*
X104528202Y-98886328D01*
X104528206Y-98886335D01*
X104614452Y-99001544D01*
X104614455Y-99001547D01*
X104729664Y-99087793D01*
X104729671Y-99087797D01*
X104864517Y-99138091D01*
X104864516Y-99138091D01*
X104871444Y-99138835D01*
X104924127Y-99144500D01*
X107419872Y-99144499D01*
X107479483Y-99138091D01*
X107614331Y-99087796D01*
X107729546Y-99001546D01*
X107815796Y-98886331D01*
X107866091Y-98751483D01*
X107872500Y-98691873D01*
X107872499Y-96129451D01*
X107892184Y-96062413D01*
X107908818Y-96041771D01*
X108800771Y-95149819D01*
X108862094Y-95116334D01*
X108888452Y-95113500D01*
X109996423Y-95113500D01*
X110063462Y-95133185D01*
X110109217Y-95185989D01*
X110119161Y-95255147D01*
X110110984Y-95284952D01*
X110068782Y-95386837D01*
X110068781Y-95386841D01*
X110054000Y-95499105D01*
X110054000Y-95766047D01*
X110034315Y-95833086D01*
X110017681Y-95853728D01*
X109692644Y-96178764D01*
X109692638Y-96178772D01*
X109624190Y-96281208D01*
X109624188Y-96281213D01*
X109608144Y-96319948D01*
X109608144Y-96319949D01*
X109577038Y-96395044D01*
X109577036Y-96395050D01*
X109576611Y-96397189D01*
X109576611Y-96397190D01*
X109555195Y-96504861D01*
X109553000Y-96515894D01*
X109553000Y-96515897D01*
X109553000Y-98048109D01*
X109558647Y-98076497D01*
X109558647Y-98076500D01*
X109558648Y-98076500D01*
X109576993Y-98168733D01*
X109577036Y-98168950D01*
X109624185Y-98282780D01*
X109624190Y-98282789D01*
X109658414Y-98334007D01*
X109658415Y-98334009D01*
X109692640Y-98385231D01*
X109692641Y-98385232D01*
X109692642Y-98385233D01*
X109779767Y-98472358D01*
X109779768Y-98472358D01*
X109786835Y-98479425D01*
X109786834Y-98479425D01*
X109786838Y-98479428D01*
X110518015Y-99210605D01*
X110551500Y-99271928D01*
X110546516Y-99341620D01*
X110504644Y-99397553D01*
X110469339Y-99415992D01*
X110369166Y-99449186D01*
X110369163Y-99449187D01*
X110219842Y-99541289D01*
X110095789Y-99665342D01*
X110003687Y-99814663D01*
X110003686Y-99814666D01*
X109999953Y-99825933D01*
X109984189Y-99873505D01*
X109944416Y-99930949D01*
X109879900Y-99957772D01*
X109866483Y-99958500D01*
X109158388Y-99958500D01*
X109044258Y-99981201D01*
X109044259Y-99981202D01*
X109037552Y-99982536D01*
X109037549Y-99982536D01*
X109037548Y-99982537D01*
X109037546Y-99982537D01*
X109037545Y-99982538D01*
X108923716Y-100029687D01*
X108842446Y-100083991D01*
X108838616Y-100086550D01*
X108821263Y-100098144D01*
X108821262Y-100098145D01*
X106281269Y-102638140D01*
X106194144Y-102725264D01*
X106194138Y-102725272D01*
X106159914Y-102776489D01*
X106159915Y-102776490D01*
X106125691Y-102827708D01*
X106125689Y-102827712D01*
X106125688Y-102827714D01*
X106107615Y-102871348D01*
X106078538Y-102941545D01*
X106078535Y-102941555D01*
X106054500Y-103062389D01*
X106054500Y-104116847D01*
X106034815Y-104183886D01*
X105982011Y-104229641D01*
X105912853Y-104239585D01*
X105849297Y-104210560D01*
X105841393Y-104203079D01*
X104698800Y-103022400D01*
X103128669Y-103022400D01*
X103061630Y-103002715D01*
X103015875Y-102949911D01*
X103004669Y-102898349D01*
X103005565Y-100848900D01*
X104003565Y-100848900D01*
X104754669Y-100848900D01*
X105752669Y-100848900D01*
X106659124Y-100848900D01*
X107254669Y-100253354D01*
X107254669Y-100142499D01*
X105752669Y-100142499D01*
X105752669Y-100848900D01*
X104754669Y-100848900D01*
X104754669Y-100130031D01*
X104726825Y-100127038D01*
X104719157Y-100125971D01*
X104672971Y-100118064D01*
X104665381Y-100116519D01*
X104604670Y-100102174D01*
X104597191Y-100100158D01*
X104552328Y-100086550D01*
X104544988Y-100084071D01*
X104347498Y-100010413D01*
X104339318Y-100007025D01*
X104290581Y-99984767D01*
X104282667Y-99980805D01*
X104220077Y-99946628D01*
X104212463Y-99942110D01*
X104167396Y-99913146D01*
X104160126Y-99908098D01*
X104004027Y-99791241D01*
X104003565Y-100848900D01*
X103005565Y-100848900D01*
X103010627Y-89277000D01*
X109086085Y-89277000D01*
X109089064Y-89309792D01*
X109089067Y-89309802D01*
X109136927Y-89463392D01*
X109220163Y-89601080D01*
X109333919Y-89714836D01*
X109471603Y-89798070D01*
X109625207Y-89845934D01*
X109691957Y-89852000D01*
X110145500Y-89852000D01*
X110145500Y-89277000D01*
X109086085Y-89277000D01*
X103010627Y-89277000D01*
X103014098Y-81343704D01*
X106846300Y-81343704D01*
X106846300Y-81521095D01*
X106880903Y-81695058D01*
X106880906Y-81695067D01*
X106948783Y-81858940D01*
X106948790Y-81858953D01*
X107047335Y-82006434D01*
X107047338Y-82006438D01*
X107172761Y-82131861D01*
X107172765Y-82131864D01*
X107320246Y-82230409D01*
X107320259Y-82230416D01*
X107443163Y-82281323D01*
X107484134Y-82298294D01*
X107484136Y-82298294D01*
X107484141Y-82298296D01*
X107658104Y-82332899D01*
X107658107Y-82332900D01*
X107658109Y-82332900D01*
X107835493Y-82332900D01*
X107835494Y-82332899D01*
X107893482Y-82321364D01*
X108009458Y-82298296D01*
X108009461Y-82298294D01*
X108009466Y-82298294D01*
X108173347Y-82230413D01*
X108320835Y-82131864D01*
X108446264Y-82006435D01*
X108471788Y-81968236D01*
X108476884Y-81960610D01*
X108530496Y-81915804D01*
X108579986Y-81905500D01*
X109074375Y-81905500D01*
X109141414Y-81925185D01*
X109187169Y-81977989D01*
X109197113Y-82047147D01*
X109180492Y-82093650D01*
X109168427Y-82113606D01*
X109120567Y-82267197D01*
X109120564Y-82267207D01*
X109117585Y-82299999D01*
X109117585Y-82300000D01*
X111736415Y-82300000D01*
X111736414Y-82299999D01*
X111733435Y-82267207D01*
X111733432Y-82267197D01*
X111685572Y-82113606D01*
X111685571Y-82113604D01*
X111604582Y-81979634D01*
X111586745Y-81912079D01*
X111604580Y-81851336D01*
X111686031Y-81716602D01*
X111733930Y-81562887D01*
X111740000Y-81496091D01*
X111739999Y-81063910D01*
X111739999Y-81063909D01*
X111739999Y-81063901D01*
X111733931Y-80997117D01*
X111733928Y-80997106D01*
X111687746Y-80848900D01*
X113252669Y-80848900D01*
X114754669Y-80848900D01*
X114754669Y-80363500D01*
X113252669Y-80363500D01*
X113252669Y-80848900D01*
X111687746Y-80848900D01*
X111686032Y-80843400D01*
X111686031Y-80843398D01*
X111672321Y-80820719D01*
X111604581Y-80708664D01*
X111586745Y-80641112D01*
X111604582Y-80580365D01*
X111685571Y-80446394D01*
X111685572Y-80446393D01*
X111733432Y-80292802D01*
X111733435Y-80292792D01*
X111736414Y-80260000D01*
X110551000Y-80260000D01*
X110483961Y-80240315D01*
X110438206Y-80187511D01*
X110427000Y-80136000D01*
X110427000Y-79884000D01*
X110446685Y-79816961D01*
X110499489Y-79771206D01*
X110551000Y-79760000D01*
X111736415Y-79760000D01*
X111736414Y-79759999D01*
X111733435Y-79727207D01*
X111733432Y-79727197D01*
X111685572Y-79573606D01*
X111673508Y-79553650D01*
X111655672Y-79486095D01*
X111677190Y-79419621D01*
X111731230Y-79375334D01*
X111779625Y-79365500D01*
X116249375Y-79365500D01*
X116316414Y-79385185D01*
X116362169Y-79437989D01*
X116372113Y-79507147D01*
X116355492Y-79553650D01*
X116343427Y-79573606D01*
X116295567Y-79727197D01*
X116295564Y-79727207D01*
X116292585Y-79759999D01*
X116292585Y-79760000D01*
X118911415Y-79760000D01*
X118911414Y-79759999D01*
X118908435Y-79727207D01*
X118908432Y-79727197D01*
X118860572Y-79573606D01*
X118848508Y-79553650D01*
X118830672Y-79486095D01*
X118852190Y-79419621D01*
X118906230Y-79375334D01*
X118954625Y-79365500D01*
X120397699Y-79365500D01*
X120464738Y-79385185D01*
X120510493Y-79437989D01*
X120515403Y-79450492D01*
X120543186Y-79534334D01*
X120635288Y-79683656D01*
X120759344Y-79807712D01*
X120908666Y-79899814D01*
X121075203Y-79954999D01*
X121177991Y-79965500D01*
X121778008Y-79965499D01*
X121778016Y-79965498D01*
X121778019Y-79965498D01*
X121834302Y-79959748D01*
X121880797Y-79954999D01*
X122047334Y-79899814D01*
X122196656Y-79807712D01*
X122320712Y-79683656D01*
X122322752Y-79680347D01*
X122324745Y-79678555D01*
X122325193Y-79677989D01*
X122325289Y-79678065D01*
X122374694Y-79633623D01*
X122443656Y-79622395D01*
X122507740Y-79650234D01*
X122533829Y-79680339D01*
X122535681Y-79683341D01*
X122535683Y-79683344D01*
X122659654Y-79807315D01*
X122808875Y-79899356D01*
X122808880Y-79899358D01*
X122975302Y-79954505D01*
X122975309Y-79954506D01*
X123078019Y-79964999D01*
X123628000Y-79964999D01*
X123677972Y-79964999D01*
X123677986Y-79964998D01*
X123780697Y-79954505D01*
X123947119Y-79899358D01*
X123947124Y-79899356D01*
X124096345Y-79807315D01*
X124220315Y-79683345D01*
X124312356Y-79534124D01*
X124312358Y-79534119D01*
X124367505Y-79367697D01*
X124367506Y-79367690D01*
X124377999Y-79264986D01*
X124378000Y-79264973D01*
X124378000Y-78990000D01*
X123628000Y-78990000D01*
X123628000Y-79964999D01*
X123078019Y-79964999D01*
X123127999Y-79964998D01*
X123128000Y-79964998D01*
X123128000Y-78490000D01*
X123628000Y-78490000D01*
X124377999Y-78490000D01*
X124377999Y-78215028D01*
X124377998Y-78215013D01*
X124367505Y-78112302D01*
X124312358Y-77945880D01*
X124312356Y-77945875D01*
X124220315Y-77796654D01*
X124096345Y-77672684D01*
X123947124Y-77580643D01*
X123947119Y-77580641D01*
X123780697Y-77525494D01*
X123780690Y-77525493D01*
X123677986Y-77515000D01*
X123628000Y-77515000D01*
X123628000Y-78490000D01*
X123128000Y-78490000D01*
X123128000Y-77515000D01*
X123127999Y-77514999D01*
X123078029Y-77515000D01*
X123078011Y-77515001D01*
X122975302Y-77525494D01*
X122808880Y-77580641D01*
X122808875Y-77580643D01*
X122659654Y-77672684D01*
X122535683Y-77796655D01*
X122535679Y-77796660D01*
X122533826Y-77799665D01*
X122532018Y-77801290D01*
X122531202Y-77802323D01*
X122531025Y-77802183D01*
X122481874Y-77846385D01*
X122412911Y-77857601D01*
X122348831Y-77829752D01*
X122322753Y-77799653D01*
X122322737Y-77799628D01*
X122320712Y-77796344D01*
X122196656Y-77672288D01*
X122047334Y-77580186D01*
X121880797Y-77525001D01*
X121880795Y-77525000D01*
X121778010Y-77514500D01*
X121177998Y-77514500D01*
X121177980Y-77514501D01*
X121075203Y-77525000D01*
X121075200Y-77525001D01*
X120908668Y-77580185D01*
X120908663Y-77580187D01*
X120759342Y-77672289D01*
X120635289Y-77796342D01*
X120543187Y-77945663D01*
X120543185Y-77945668D01*
X120515405Y-78029504D01*
X120475632Y-78086949D01*
X120411116Y-78113772D01*
X120397699Y-78114500D01*
X118777987Y-78114500D01*
X118710948Y-78094815D01*
X118690306Y-78078181D01*
X118663891Y-78051766D01*
X118630888Y-78031815D01*
X118526102Y-77968469D01*
X118372387Y-77920570D01*
X118372385Y-77920569D01*
X118372383Y-77920569D01*
X118325617Y-77916319D01*
X118305591Y-77914500D01*
X118305588Y-77914500D01*
X116898401Y-77914500D01*
X116831617Y-77920568D01*
X116831606Y-77920571D01*
X116677901Y-77968467D01*
X116540108Y-78051766D01*
X116540107Y-78051767D01*
X116513694Y-78078181D01*
X116452371Y-78111666D01*
X116426013Y-78114500D01*
X111602987Y-78114500D01*
X111535948Y-78094815D01*
X111515306Y-78078181D01*
X111488891Y-78051766D01*
X111455888Y-78031815D01*
X111351102Y-77968469D01*
X111197387Y-77920570D01*
X111197385Y-77920569D01*
X111197383Y-77920569D01*
X111150617Y-77916319D01*
X111130591Y-77914500D01*
X111130588Y-77914500D01*
X109723401Y-77914500D01*
X109656617Y-77920568D01*
X109656606Y-77920571D01*
X109502901Y-77968467D01*
X109365108Y-78051766D01*
X109365107Y-78051767D01*
X109338694Y-78078181D01*
X109277371Y-78111666D01*
X109251013Y-78114500D01*
X109158388Y-78114500D01*
X109037555Y-78138535D01*
X109037547Y-78138537D01*
X108923716Y-78185687D01*
X108821265Y-78254142D01*
X108821262Y-78254145D01*
X108407898Y-78667511D01*
X108313269Y-78762140D01*
X108313267Y-78762142D01*
X108270863Y-78804546D01*
X108226142Y-78849266D01*
X108203105Y-78883744D01*
X108203104Y-78883743D01*
X108157689Y-78951712D01*
X108157685Y-78951719D01*
X108110540Y-79065538D01*
X108110538Y-79065545D01*
X108110537Y-79065548D01*
X108110537Y-79065549D01*
X108091510Y-79161212D01*
X108090190Y-79167847D01*
X108090189Y-79167850D01*
X108086500Y-79186393D01*
X108086500Y-80430734D01*
X108066815Y-80497773D01*
X108014011Y-80543528D01*
X107944853Y-80553472D01*
X107938309Y-80552351D01*
X107835495Y-80531900D01*
X107835491Y-80531900D01*
X107658109Y-80531900D01*
X107658106Y-80531900D01*
X107484141Y-80566503D01*
X107484132Y-80566506D01*
X107320259Y-80634383D01*
X107320246Y-80634390D01*
X107172765Y-80732935D01*
X107172761Y-80732938D01*
X107047338Y-80858361D01*
X107047335Y-80858365D01*
X106948790Y-81005846D01*
X106948783Y-81005859D01*
X106880906Y-81169732D01*
X106880903Y-81169741D01*
X106846300Y-81343704D01*
X103014098Y-81343704D01*
X103014314Y-80848900D01*
X104012313Y-80848900D01*
X104754669Y-80848900D01*
X105752669Y-80848900D01*
X105935583Y-80848900D01*
X105947309Y-80816128D01*
X105949499Y-80810451D01*
X106036129Y-80601305D01*
X106038594Y-80595744D01*
X106054334Y-80562462D01*
X106057071Y-80557023D01*
X106080173Y-80513801D01*
X106083173Y-80508506D01*
X106102109Y-80476912D01*
X106105366Y-80471768D01*
X106231143Y-80283531D01*
X106234647Y-80278555D01*
X106256579Y-80248983D01*
X106260324Y-80244185D01*
X106291413Y-80206303D01*
X106295387Y-80201696D01*
X106320118Y-80174409D01*
X106324316Y-80170000D01*
X106484400Y-80009916D01*
X106488809Y-80005718D01*
X106516096Y-79980987D01*
X106520703Y-79977013D01*
X106558585Y-79945924D01*
X106563383Y-79942179D01*
X106592955Y-79920247D01*
X106597931Y-79916743D01*
X106786168Y-79790966D01*
X106791312Y-79787709D01*
X106822906Y-79768773D01*
X106828201Y-79765773D01*
X106871423Y-79742671D01*
X106876862Y-79739934D01*
X106910144Y-79724194D01*
X106915705Y-79721729D01*
X107088500Y-79650155D01*
X107088500Y-79346900D01*
X105752669Y-79346900D01*
X105752669Y-80848900D01*
X104754669Y-80848900D01*
X104754669Y-79475516D01*
X104012618Y-80151815D01*
X104012313Y-80848900D01*
X103014314Y-80848900D01*
X103014862Y-79595082D01*
X103034576Y-79528053D01*
X103055330Y-79503496D01*
X104322177Y-78348900D01*
X105990818Y-78348900D01*
X107254669Y-78348900D01*
X107254669Y-77596900D01*
X106815929Y-77596900D01*
X105990818Y-78348900D01*
X104322177Y-78348900D01*
X104462308Y-78221186D01*
X104472917Y-78212544D01*
X104479219Y-78207966D01*
X104501943Y-78185241D01*
X104506032Y-78181337D01*
X106206821Y-76631251D01*
X106269628Y-76600643D01*
X106290346Y-76598900D01*
X149316005Y-76598901D01*
G37*
%TD.AperFunction*%
%TA.AperFunction,Conductor*%
G36*
X113230201Y-93185638D02*
G01*
X113236680Y-93191670D01*
X113658616Y-93613606D01*
X113658645Y-93613637D01*
X113748864Y-93703856D01*
X113748867Y-93703858D01*
X113805799Y-93741898D01*
X113805800Y-93741900D01*
X113825587Y-93755121D01*
X113851315Y-93772312D01*
X113851318Y-93772313D01*
X113854136Y-93774196D01*
X113898941Y-93827808D01*
X113907650Y-93897133D01*
X113877496Y-93960160D01*
X113872928Y-93964980D01*
X113814140Y-94023768D01*
X113814138Y-94023771D01*
X113784124Y-94068691D01*
X113784123Y-94068693D01*
X113745690Y-94126209D01*
X113745688Y-94126213D01*
X113745688Y-94126214D01*
X113715800Y-94198371D01*
X113698538Y-94240044D01*
X113698536Y-94240053D01*
X113692959Y-94268085D01*
X113692960Y-94268086D01*
X113677026Y-94348197D01*
X113674500Y-94360896D01*
X113674500Y-99422332D01*
X113654815Y-99489371D01*
X113602011Y-99535126D01*
X113532853Y-99545070D01*
X113485404Y-99527871D01*
X113357840Y-99449189D01*
X113357835Y-99449187D01*
X113357834Y-99449186D01*
X113191297Y-99394001D01*
X113191295Y-99394000D01*
X113088516Y-99383500D01*
X112511452Y-99383500D01*
X112444413Y-99363815D01*
X112423771Y-99347181D01*
X111111272Y-98034681D01*
X111077787Y-97973358D01*
X111082771Y-97903666D01*
X111124643Y-97847733D01*
X111190107Y-97823316D01*
X111198953Y-97823000D01*
X111289500Y-97823000D01*
X111789500Y-97823000D01*
X112488349Y-97823000D01*
X112488363Y-97822999D01*
X112600528Y-97808231D01*
X112600532Y-97808230D01*
X112740098Y-97750421D01*
X112859952Y-97658452D01*
X112951921Y-97538598D01*
X113009730Y-97399032D01*
X113009731Y-97399028D01*
X113024499Y-97286863D01*
X113024500Y-97286849D01*
X113024500Y-97278000D01*
X111789500Y-97278000D01*
X111789500Y-97823000D01*
X111289500Y-97823000D01*
X111289500Y-97152000D01*
X111309185Y-97084961D01*
X111361989Y-97039206D01*
X111413500Y-97028000D01*
X111539500Y-97028000D01*
X111539500Y-96902000D01*
X111559185Y-96834961D01*
X111611989Y-96789206D01*
X111663500Y-96778000D01*
X113024500Y-96778000D01*
X113024500Y-96769150D01*
X113024499Y-96769136D01*
X113009731Y-96656971D01*
X113009730Y-96656967D01*
X112951921Y-96517400D01*
X112951919Y-96517397D01*
X112914703Y-96468897D01*
X112889508Y-96403728D01*
X112903546Y-96335283D01*
X112914703Y-96317923D01*
X112952356Y-96268853D01*
X112966931Y-96233666D01*
X113010219Y-96129159D01*
X113025000Y-96016887D01*
X113024999Y-95499114D01*
X113021890Y-95475500D01*
X113010220Y-95386848D01*
X113010219Y-95386847D01*
X113010219Y-95386841D01*
X112984001Y-95323545D01*
X112952356Y-95247146D01*
X112915018Y-95198487D01*
X112889823Y-95133318D01*
X112903861Y-95064873D01*
X112915018Y-95047513D01*
X112952356Y-94998853D01*
X113010219Y-94859159D01*
X113025000Y-94746887D01*
X113024999Y-94229114D01*
X113024271Y-94223585D01*
X113010220Y-94116848D01*
X113010219Y-94116847D01*
X113010219Y-94116841D01*
X112984001Y-94053545D01*
X112952356Y-93977146D01*
X112915018Y-93928487D01*
X112889823Y-93863318D01*
X112903861Y-93794873D01*
X112915018Y-93777513D01*
X112952356Y-93728853D01*
X112969970Y-93686328D01*
X113010219Y-93589159D01*
X113025000Y-93476887D01*
X113024999Y-93279349D01*
X113044683Y-93212312D01*
X113097487Y-93166557D01*
X113166645Y-93156613D01*
X113230201Y-93185638D01*
G37*
%TD.AperFunction*%
%TA.AperFunction,Conductor*%
G36*
X149208096Y-89408121D02*
G01*
X149237647Y-89423985D01*
X149406442Y-89546620D01*
X149595782Y-89643095D01*
X149797870Y-89708757D01*
X150007754Y-89742000D01*
X150220246Y-89742000D01*
X150430127Y-89708757D01*
X150430130Y-89708757D01*
X150552182Y-89669100D01*
X150622023Y-89667105D01*
X150681856Y-89703185D01*
X150712684Y-89765886D01*
X150714500Y-89787031D01*
X150714500Y-90728000D01*
X150694815Y-90795039D01*
X150642011Y-90840794D01*
X150590500Y-90852000D01*
X150364000Y-90852000D01*
X150364000Y-91768988D01*
X150306993Y-91736075D01*
X150179826Y-91702000D01*
X150048174Y-91702000D01*
X149921007Y-91736075D01*
X149864000Y-91768988D01*
X149864000Y-90852000D01*
X149216155Y-90852000D01*
X149156627Y-90858401D01*
X149156620Y-90858403D01*
X149021913Y-90908645D01*
X149021906Y-90908649D01*
X148906812Y-90994809D01*
X148906809Y-90994812D01*
X148820649Y-91109906D01*
X148820645Y-91109913D01*
X148770403Y-91244620D01*
X148770401Y-91244627D01*
X148764000Y-91304155D01*
X148764000Y-91952000D01*
X149680988Y-91952000D01*
X149648075Y-92009007D01*
X149614000Y-92136174D01*
X149614000Y-92267826D01*
X149648075Y-92394993D01*
X149680988Y-92452000D01*
X148764000Y-92452000D01*
X148764000Y-93099844D01*
X148770401Y-93159372D01*
X148770403Y-93159379D01*
X148820645Y-93294086D01*
X148820649Y-93294093D01*
X148906809Y-93409187D01*
X148906812Y-93409190D01*
X149021906Y-93495350D01*
X149021913Y-93495354D01*
X149153470Y-93544422D01*
X149209404Y-93586293D01*
X149233821Y-93651758D01*
X149218969Y-93720031D01*
X149197819Y-93748285D01*
X149083889Y-93862215D01*
X148958951Y-94034179D01*
X148862444Y-94223585D01*
X148862443Y-94223587D01*
X148862443Y-94223588D01*
X148859148Y-94233729D01*
X148796753Y-94425760D01*
X148763500Y-94635713D01*
X148763500Y-94818459D01*
X148743815Y-94885498D01*
X148691011Y-94931253D01*
X148621853Y-94941197D01*
X148592050Y-94933021D01*
X148541121Y-94911927D01*
X148541120Y-94911926D01*
X148518458Y-94902539D01*
X148518454Y-94902537D01*
X148518452Y-94902537D01*
X148518448Y-94902536D01*
X148518444Y-94902535D01*
X148449222Y-94888766D01*
X148449221Y-94888766D01*
X148397611Y-94878500D01*
X148397607Y-94878500D01*
X148397606Y-94878500D01*
X145598453Y-94878500D01*
X145531414Y-94858815D01*
X145510772Y-94842181D01*
X144488054Y-93819463D01*
X143453770Y-92785180D01*
X143420286Y-92723858D01*
X143425270Y-92654166D01*
X143467142Y-92598233D01*
X143532606Y-92573816D01*
X143541452Y-92573500D01*
X145742723Y-92573500D01*
X145803145Y-92561481D01*
X145863568Y-92549463D01*
X145911362Y-92529666D01*
X145977402Y-92502312D01*
X146029990Y-92467173D01*
X146079849Y-92433858D01*
X146166974Y-92346733D01*
X146166975Y-92346731D01*
X146174041Y-92339665D01*
X146174044Y-92339661D01*
X149077085Y-89436619D01*
X149138404Y-89403137D01*
X149208096Y-89408121D01*
G37*
%TD.AperFunction*%
%TA.AperFunction,Conductor*%
G36*
X117527086Y-89872184D02*
G01*
X117547728Y-89888818D01*
X117702181Y-90043271D01*
X117735666Y-90104594D01*
X117738500Y-90130952D01*
X117738500Y-90911454D01*
X117762535Y-91032288D01*
X117762539Y-91032302D01*
X117767706Y-91044776D01*
X117809685Y-91146125D01*
X117809690Y-91146134D01*
X117834465Y-91183211D01*
X117834466Y-91183212D01*
X117881526Y-91253642D01*
X117879814Y-91254785D01*
X117903458Y-91310450D01*
X117904292Y-91324809D01*
X117904292Y-91390744D01*
X117884607Y-91457783D01*
X117880666Y-91463198D01*
X117850070Y-91508990D01*
X117850068Y-91508993D01*
X117844839Y-91516819D01*
X117809688Y-91569422D01*
X117797843Y-91598020D01*
X117783606Y-91632392D01*
X117762538Y-91683253D01*
X117762537Y-91683257D01*
X117762537Y-91683258D01*
X117761042Y-91690773D01*
X117743349Y-91779726D01*
X117739215Y-91800512D01*
X117739213Y-91800520D01*
X117738500Y-91804099D01*
X117738500Y-91847500D01*
X117718815Y-91914539D01*
X117666011Y-91960294D01*
X117614500Y-91971500D01*
X117181500Y-91971500D01*
X117114461Y-91951815D01*
X117068706Y-91899011D01*
X117057500Y-91847500D01*
X117057500Y-89976499D01*
X117077185Y-89909460D01*
X117129989Y-89863705D01*
X117181500Y-89852499D01*
X117460047Y-89852499D01*
X117527086Y-89872184D01*
G37*
%TD.AperFunction*%
%TA.AperFunction,Conductor*%
G36*
X129437271Y-85842815D02*
G01*
X129437291Y-85842744D01*
X129445141Y-85844847D01*
X129445144Y-85844847D01*
X129445146Y-85844848D01*
X129556439Y-85859500D01*
X129810501Y-85859499D01*
X129877539Y-85879183D01*
X129923294Y-85931987D01*
X129934500Y-85983499D01*
X129934500Y-86237562D01*
X129949150Y-86348846D01*
X129951255Y-86356700D01*
X129949345Y-86357211D01*
X129955662Y-86416031D01*
X129951185Y-86431276D01*
X129951256Y-86431295D01*
X129949152Y-86439146D01*
X129934500Y-86550431D01*
X129934500Y-87037562D01*
X129949150Y-87148846D01*
X129951255Y-87156700D01*
X129949345Y-87157211D01*
X129955662Y-87216031D01*
X129951185Y-87231276D01*
X129951256Y-87231295D01*
X129949152Y-87239146D01*
X129934500Y-87350431D01*
X129934500Y-87837562D01*
X129949150Y-87948851D01*
X129951255Y-87956704D01*
X129949539Y-87957163D01*
X129955933Y-88016681D01*
X129951615Y-88031386D01*
X129951743Y-88031421D01*
X129949640Y-88039270D01*
X129944773Y-88076234D01*
X129916505Y-88140130D01*
X129858180Y-88178600D01*
X129788315Y-88179430D01*
X129729092Y-88142356D01*
X129718732Y-88128937D01*
X129680664Y-88071965D01*
X129680661Y-88071961D01*
X129555238Y-87946538D01*
X129555234Y-87946535D01*
X129407753Y-87847990D01*
X129407740Y-87847983D01*
X129243870Y-87780107D01*
X129238034Y-87778337D01*
X129238829Y-87775715D01*
X129187369Y-87748775D01*
X129152814Y-87688049D01*
X129149500Y-87659571D01*
X129149500Y-87567361D01*
X129169185Y-87500322D01*
X129185820Y-87479679D01*
X129223461Y-87442038D01*
X129223464Y-87442035D01*
X129322013Y-87294547D01*
X129389894Y-87130666D01*
X129391685Y-87121666D01*
X129422784Y-86965318D01*
X129424500Y-86956691D01*
X129424500Y-86779309D01*
X129424500Y-86779306D01*
X129424499Y-86779304D01*
X129389896Y-86605341D01*
X129389893Y-86605332D01*
X129322016Y-86441459D01*
X129322009Y-86441446D01*
X129223464Y-86293965D01*
X129223461Y-86293961D01*
X129098038Y-86168538D01*
X129098034Y-86168535D01*
X128975412Y-86086601D01*
X128930607Y-86032989D01*
X128921900Y-85963664D01*
X128952055Y-85900636D01*
X129011498Y-85863917D01*
X129044299Y-85859499D01*
X129243560Y-85859499D01*
X129243562Y-85859499D01*
X129274659Y-85855405D01*
X129354854Y-85844848D01*
X129354857Y-85844846D01*
X129362708Y-85842744D01*
X129363221Y-85844659D01*
X129421994Y-85838330D01*
X129437271Y-85842815D01*
G37*
%TD.AperFunction*%
%TD*%
M02*
