M48
; DRILL file {KiCad 9.0.1} date 2025-12-21T14:23:17+0530
; FORMAT={-:-/ absolute / metric / decimal}
; #@! TF.CreationDate,2025-12-21T14:23:17+05:30
; #@! TF.GenerationSoftware,Kicad,Pcbnew,9.0.1
; #@! TF.FileFunction,Plated,1,2,PTH
FMAT,2
METRIC
; #@! TA.AperFunction,Plated,PTH,ViaDrill
T1C0.400
; #@! TA.AperFunction,Plated,PTH,ComponentDrill
T2C1.000
%
G90
G05
T1
X107.747Y-81.432
X108.61Y-83.922
X108.712Y-87.884
X111.303Y-90.373
X113.135Y-96.626
X114.96Y-91.288
X115.316Y-88.392
X115.316Y-88.392
X117.704Y-91.358
X119.583Y-89.865
X120.701Y-93.015
X123.153Y-92.818
X123.346Y-93.8
X123.973Y-91.629
X124.023Y-94.925
X124.16Y-86.507
X124.257Y-88.138
X124.968Y-81.534
X124.995Y-90.424
X125.686Y-94.708
X125.72Y-91.44
X126.644Y-87.833
X127.508Y-89.408
X128.27Y-80.772
X128.524Y-86.868
X128.981Y-88.646
X129.032Y-90.373
X129.642Y-86.157
X131.318Y-84.531
X131.521Y-93.116
X132.69Y-80.518
X133.096Y-89.916
X133.312Y-95.287
X133.553Y-81.432
X135.578Y-87.58
X137.363Y-80.467
X138.176Y-95.25
X139.852Y-92.673
X142.545Y-80.721
X142.951Y-87.122
X144.424Y-87.224
X145.186Y-84.836
X146.456Y-94.386
X152.4Y-93.98
T2
X106.172Y-84.074
X106.172Y-86.614
X108.458Y-104.394
X110.998Y-104.394
X113.538Y-104.394
X116.078Y-104.394
X118.618Y-104.394
X121.158Y-104.394
X123.698Y-104.394
X126.238Y-104.394
X128.778Y-104.394
X134.62Y-104.394
X137.16Y-104.394
X139.7Y-104.394
X142.24Y-104.394
X147.574Y-83.312
X147.574Y-85.852
X147.574Y-88.392
X150.114Y-83.312
X150.114Y-85.852
X150.114Y-88.392
X150.114Y-92.202
X150.114Y-94.742
X150.114Y-97.282
X150.114Y-99.822
M30
