%TF.GenerationSoftware,KiCad,Pcbnew,9.0.1*%
%TF.CreationDate,2025-12-21T14:26:40+05:30*%
%TF.ProjectId,MCU_Datalogger,4d43555f-4461-4746-916c-6f676765722e,rev?*%
%TF.SameCoordinates,Original*%
%TF.FileFunction,Legend,Top*%
%TF.FilePolarity,Positive*%
%FSLAX46Y46*%
G04 Gerber Fmt 4.6, Leading zero omitted, Abs format (unit mm)*
G04 Created by KiCad (PCBNEW 9.0.1) date 2025-12-21 14:26:40*
%MOMM*%
%LPD*%
G01*
G04 APERTURE LIST*
%ADD10C,0.100000*%
%ADD11C,0.120000*%
%ADD12C,0.127000*%
%ADD13C,0.200000*%
G04 APERTURE END LIST*
D10*
X151684836Y-86333609D02*
X151684836Y-85833609D01*
X151684836Y-85833609D02*
X151851503Y-86190752D01*
X151851503Y-86190752D02*
X152018169Y-85833609D01*
X152018169Y-85833609D02*
X152018169Y-86333609D01*
X152351503Y-85833609D02*
X152446741Y-85833609D01*
X152446741Y-85833609D02*
X152494360Y-85857419D01*
X152494360Y-85857419D02*
X152541979Y-85905038D01*
X152541979Y-85905038D02*
X152565789Y-86000276D01*
X152565789Y-86000276D02*
X152565789Y-86166942D01*
X152565789Y-86166942D02*
X152541979Y-86262180D01*
X152541979Y-86262180D02*
X152494360Y-86309800D01*
X152494360Y-86309800D02*
X152446741Y-86333609D01*
X152446741Y-86333609D02*
X152351503Y-86333609D01*
X152351503Y-86333609D02*
X152303884Y-86309800D01*
X152303884Y-86309800D02*
X152256265Y-86262180D01*
X152256265Y-86262180D02*
X152232456Y-86166942D01*
X152232456Y-86166942D02*
X152232456Y-86000276D01*
X152232456Y-86000276D02*
X152256265Y-85905038D01*
X152256265Y-85905038D02*
X152303884Y-85857419D01*
X152303884Y-85857419D02*
X152351503Y-85833609D01*
X152756266Y-86309800D02*
X152827694Y-86333609D01*
X152827694Y-86333609D02*
X152946742Y-86333609D01*
X152946742Y-86333609D02*
X152994361Y-86309800D01*
X152994361Y-86309800D02*
X153018170Y-86285990D01*
X153018170Y-86285990D02*
X153041980Y-86238371D01*
X153041980Y-86238371D02*
X153041980Y-86190752D01*
X153041980Y-86190752D02*
X153018170Y-86143133D01*
X153018170Y-86143133D02*
X152994361Y-86119323D01*
X152994361Y-86119323D02*
X152946742Y-86095514D01*
X152946742Y-86095514D02*
X152851504Y-86071704D01*
X152851504Y-86071704D02*
X152803885Y-86047895D01*
X152803885Y-86047895D02*
X152780075Y-86024085D01*
X152780075Y-86024085D02*
X152756266Y-85976466D01*
X152756266Y-85976466D02*
X152756266Y-85928847D01*
X152756266Y-85928847D02*
X152780075Y-85881228D01*
X152780075Y-85881228D02*
X152803885Y-85857419D01*
X152803885Y-85857419D02*
X152851504Y-85833609D01*
X152851504Y-85833609D02*
X152970551Y-85833609D01*
X152970551Y-85833609D02*
X153041980Y-85857419D01*
X153256265Y-86333609D02*
X153256265Y-85833609D01*
X151946741Y-88457419D02*
X151899122Y-88433609D01*
X151899122Y-88433609D02*
X151827693Y-88433609D01*
X151827693Y-88433609D02*
X151756265Y-88457419D01*
X151756265Y-88457419D02*
X151708646Y-88505038D01*
X151708646Y-88505038D02*
X151684836Y-88552657D01*
X151684836Y-88552657D02*
X151661027Y-88647895D01*
X151661027Y-88647895D02*
X151661027Y-88719323D01*
X151661027Y-88719323D02*
X151684836Y-88814561D01*
X151684836Y-88814561D02*
X151708646Y-88862180D01*
X151708646Y-88862180D02*
X151756265Y-88909800D01*
X151756265Y-88909800D02*
X151827693Y-88933609D01*
X151827693Y-88933609D02*
X151875312Y-88933609D01*
X151875312Y-88933609D02*
X151946741Y-88909800D01*
X151946741Y-88909800D02*
X151970550Y-88885990D01*
X151970550Y-88885990D02*
X151970550Y-88719323D01*
X151970550Y-88719323D02*
X151875312Y-88719323D01*
X152184836Y-88933609D02*
X152184836Y-88433609D01*
X152184836Y-88433609D02*
X152470550Y-88933609D01*
X152470550Y-88933609D02*
X152470550Y-88433609D01*
X152708646Y-88933609D02*
X152708646Y-88433609D01*
X152708646Y-88433609D02*
X152827694Y-88433609D01*
X152827694Y-88433609D02*
X152899122Y-88457419D01*
X152899122Y-88457419D02*
X152946741Y-88505038D01*
X152946741Y-88505038D02*
X152970551Y-88552657D01*
X152970551Y-88552657D02*
X152994360Y-88647895D01*
X152994360Y-88647895D02*
X152994360Y-88719323D01*
X152994360Y-88719323D02*
X152970551Y-88814561D01*
X152970551Y-88814561D02*
X152946741Y-88862180D01*
X152946741Y-88862180D02*
X152899122Y-88909800D01*
X152899122Y-88909800D02*
X152827694Y-88933609D01*
X152827694Y-88933609D02*
X152708646Y-88933609D01*
X151613408Y-83133609D02*
X151780074Y-83633609D01*
X151780074Y-83633609D02*
X151946741Y-83133609D01*
X152327693Y-83609800D02*
X152280074Y-83633609D01*
X152280074Y-83633609D02*
X152184836Y-83633609D01*
X152184836Y-83633609D02*
X152137217Y-83609800D01*
X152137217Y-83609800D02*
X152113407Y-83585990D01*
X152113407Y-83585990D02*
X152089598Y-83538371D01*
X152089598Y-83538371D02*
X152089598Y-83395514D01*
X152089598Y-83395514D02*
X152113407Y-83347895D01*
X152113407Y-83347895D02*
X152137217Y-83324085D01*
X152137217Y-83324085D02*
X152184836Y-83300276D01*
X152184836Y-83300276D02*
X152280074Y-83300276D01*
X152280074Y-83300276D02*
X152327693Y-83324085D01*
X152756264Y-83609800D02*
X152708645Y-83633609D01*
X152708645Y-83633609D02*
X152613407Y-83633609D01*
X152613407Y-83633609D02*
X152565788Y-83609800D01*
X152565788Y-83609800D02*
X152541978Y-83585990D01*
X152541978Y-83585990D02*
X152518169Y-83538371D01*
X152518169Y-83538371D02*
X152518169Y-83395514D01*
X152518169Y-83395514D02*
X152541978Y-83347895D01*
X152541978Y-83347895D02*
X152565788Y-83324085D01*
X152565788Y-83324085D02*
X152613407Y-83300276D01*
X152613407Y-83300276D02*
X152708645Y-83300276D01*
X152708645Y-83300276D02*
X152756264Y-83324085D01*
X144337216Y-83733609D02*
X144337216Y-83233609D01*
X144337216Y-83233609D02*
X144503883Y-83590752D01*
X144503883Y-83590752D02*
X144670549Y-83233609D01*
X144670549Y-83233609D02*
X144670549Y-83733609D01*
X144908645Y-83733609D02*
X144908645Y-83233609D01*
X145122931Y-83709800D02*
X145194359Y-83733609D01*
X145194359Y-83733609D02*
X145313407Y-83733609D01*
X145313407Y-83733609D02*
X145361026Y-83709800D01*
X145361026Y-83709800D02*
X145384835Y-83685990D01*
X145384835Y-83685990D02*
X145408645Y-83638371D01*
X145408645Y-83638371D02*
X145408645Y-83590752D01*
X145408645Y-83590752D02*
X145384835Y-83543133D01*
X145384835Y-83543133D02*
X145361026Y-83519323D01*
X145361026Y-83519323D02*
X145313407Y-83495514D01*
X145313407Y-83495514D02*
X145218169Y-83471704D01*
X145218169Y-83471704D02*
X145170550Y-83447895D01*
X145170550Y-83447895D02*
X145146740Y-83424085D01*
X145146740Y-83424085D02*
X145122931Y-83376466D01*
X145122931Y-83376466D02*
X145122931Y-83328847D01*
X145122931Y-83328847D02*
X145146740Y-83281228D01*
X145146740Y-83281228D02*
X145170550Y-83257419D01*
X145170550Y-83257419D02*
X145218169Y-83233609D01*
X145218169Y-83233609D02*
X145337216Y-83233609D01*
X145337216Y-83233609D02*
X145408645Y-83257419D01*
X145718168Y-83233609D02*
X145813406Y-83233609D01*
X145813406Y-83233609D02*
X145861025Y-83257419D01*
X145861025Y-83257419D02*
X145908644Y-83305038D01*
X145908644Y-83305038D02*
X145932454Y-83400276D01*
X145932454Y-83400276D02*
X145932454Y-83566942D01*
X145932454Y-83566942D02*
X145908644Y-83662180D01*
X145908644Y-83662180D02*
X145861025Y-83709800D01*
X145861025Y-83709800D02*
X145813406Y-83733609D01*
X145813406Y-83733609D02*
X145718168Y-83733609D01*
X145718168Y-83733609D02*
X145670549Y-83709800D01*
X145670549Y-83709800D02*
X145622930Y-83662180D01*
X145622930Y-83662180D02*
X145599121Y-83566942D01*
X145599121Y-83566942D02*
X145599121Y-83400276D01*
X145599121Y-83400276D02*
X145622930Y-83305038D01*
X145622930Y-83305038D02*
X145670549Y-83257419D01*
X145670549Y-83257419D02*
X145718168Y-83233609D01*
X144170550Y-88933609D02*
X144003884Y-88695514D01*
X143884836Y-88933609D02*
X143884836Y-88433609D01*
X143884836Y-88433609D02*
X144075312Y-88433609D01*
X144075312Y-88433609D02*
X144122931Y-88457419D01*
X144122931Y-88457419D02*
X144146741Y-88481228D01*
X144146741Y-88481228D02*
X144170550Y-88528847D01*
X144170550Y-88528847D02*
X144170550Y-88600276D01*
X144170550Y-88600276D02*
X144146741Y-88647895D01*
X144146741Y-88647895D02*
X144122931Y-88671704D01*
X144122931Y-88671704D02*
X144075312Y-88695514D01*
X144075312Y-88695514D02*
X143884836Y-88695514D01*
X144384836Y-88671704D02*
X144551503Y-88671704D01*
X144622931Y-88933609D02*
X144384836Y-88933609D01*
X144384836Y-88933609D02*
X144384836Y-88433609D01*
X144384836Y-88433609D02*
X144622931Y-88433609D01*
X144813408Y-88909800D02*
X144884836Y-88933609D01*
X144884836Y-88933609D02*
X145003884Y-88933609D01*
X145003884Y-88933609D02*
X145051503Y-88909800D01*
X145051503Y-88909800D02*
X145075312Y-88885990D01*
X145075312Y-88885990D02*
X145099122Y-88838371D01*
X145099122Y-88838371D02*
X145099122Y-88790752D01*
X145099122Y-88790752D02*
X145075312Y-88743133D01*
X145075312Y-88743133D02*
X145051503Y-88719323D01*
X145051503Y-88719323D02*
X145003884Y-88695514D01*
X145003884Y-88695514D02*
X144908646Y-88671704D01*
X144908646Y-88671704D02*
X144861027Y-88647895D01*
X144861027Y-88647895D02*
X144837217Y-88624085D01*
X144837217Y-88624085D02*
X144813408Y-88576466D01*
X144813408Y-88576466D02*
X144813408Y-88528847D01*
X144813408Y-88528847D02*
X144837217Y-88481228D01*
X144837217Y-88481228D02*
X144861027Y-88457419D01*
X144861027Y-88457419D02*
X144908646Y-88433609D01*
X144908646Y-88433609D02*
X145027693Y-88433609D01*
X145027693Y-88433609D02*
X145099122Y-88457419D01*
X145313407Y-88671704D02*
X145480074Y-88671704D01*
X145551502Y-88933609D02*
X145313407Y-88933609D01*
X145313407Y-88933609D02*
X145313407Y-88433609D01*
X145313407Y-88433609D02*
X145551502Y-88433609D01*
X145694360Y-88433609D02*
X145980074Y-88433609D01*
X145837217Y-88933609D02*
X145837217Y-88433609D01*
X144646741Y-86209800D02*
X144718169Y-86233609D01*
X144718169Y-86233609D02*
X144837217Y-86233609D01*
X144837217Y-86233609D02*
X144884836Y-86209800D01*
X144884836Y-86209800D02*
X144908645Y-86185990D01*
X144908645Y-86185990D02*
X144932455Y-86138371D01*
X144932455Y-86138371D02*
X144932455Y-86090752D01*
X144932455Y-86090752D02*
X144908645Y-86043133D01*
X144908645Y-86043133D02*
X144884836Y-86019323D01*
X144884836Y-86019323D02*
X144837217Y-85995514D01*
X144837217Y-85995514D02*
X144741979Y-85971704D01*
X144741979Y-85971704D02*
X144694360Y-85947895D01*
X144694360Y-85947895D02*
X144670550Y-85924085D01*
X144670550Y-85924085D02*
X144646741Y-85876466D01*
X144646741Y-85876466D02*
X144646741Y-85828847D01*
X144646741Y-85828847D02*
X144670550Y-85781228D01*
X144670550Y-85781228D02*
X144694360Y-85757419D01*
X144694360Y-85757419D02*
X144741979Y-85733609D01*
X144741979Y-85733609D02*
X144861026Y-85733609D01*
X144861026Y-85733609D02*
X144932455Y-85757419D01*
X145432454Y-86185990D02*
X145408645Y-86209800D01*
X145408645Y-86209800D02*
X145337216Y-86233609D01*
X145337216Y-86233609D02*
X145289597Y-86233609D01*
X145289597Y-86233609D02*
X145218169Y-86209800D01*
X145218169Y-86209800D02*
X145170550Y-86162180D01*
X145170550Y-86162180D02*
X145146740Y-86114561D01*
X145146740Y-86114561D02*
X145122931Y-86019323D01*
X145122931Y-86019323D02*
X145122931Y-85947895D01*
X145122931Y-85947895D02*
X145146740Y-85852657D01*
X145146740Y-85852657D02*
X145170550Y-85805038D01*
X145170550Y-85805038D02*
X145218169Y-85757419D01*
X145218169Y-85757419D02*
X145289597Y-85733609D01*
X145289597Y-85733609D02*
X145337216Y-85733609D01*
X145337216Y-85733609D02*
X145408645Y-85757419D01*
X145408645Y-85757419D02*
X145432454Y-85781228D01*
X145646740Y-86233609D02*
X145646740Y-85733609D01*
X145932454Y-86233609D02*
X145718169Y-85947895D01*
X145932454Y-85733609D02*
X145646740Y-86019323D01*
X148984836Y-81533609D02*
X148984836Y-81033609D01*
X149508645Y-81485990D02*
X149484836Y-81509800D01*
X149484836Y-81509800D02*
X149413407Y-81533609D01*
X149413407Y-81533609D02*
X149365788Y-81533609D01*
X149365788Y-81533609D02*
X149294360Y-81509800D01*
X149294360Y-81509800D02*
X149246741Y-81462180D01*
X149246741Y-81462180D02*
X149222931Y-81414561D01*
X149222931Y-81414561D02*
X149199122Y-81319323D01*
X149199122Y-81319323D02*
X149199122Y-81247895D01*
X149199122Y-81247895D02*
X149222931Y-81152657D01*
X149222931Y-81152657D02*
X149246741Y-81105038D01*
X149246741Y-81105038D02*
X149294360Y-81057419D01*
X149294360Y-81057419D02*
X149365788Y-81033609D01*
X149365788Y-81033609D02*
X149413407Y-81033609D01*
X149413407Y-81033609D02*
X149484836Y-81057419D01*
X149484836Y-81057419D02*
X149508645Y-81081228D01*
X149699122Y-81509800D02*
X149770550Y-81533609D01*
X149770550Y-81533609D02*
X149889598Y-81533609D01*
X149889598Y-81533609D02*
X149937217Y-81509800D01*
X149937217Y-81509800D02*
X149961026Y-81485990D01*
X149961026Y-81485990D02*
X149984836Y-81438371D01*
X149984836Y-81438371D02*
X149984836Y-81390752D01*
X149984836Y-81390752D02*
X149961026Y-81343133D01*
X149961026Y-81343133D02*
X149937217Y-81319323D01*
X149937217Y-81319323D02*
X149889598Y-81295514D01*
X149889598Y-81295514D02*
X149794360Y-81271704D01*
X149794360Y-81271704D02*
X149746741Y-81247895D01*
X149746741Y-81247895D02*
X149722931Y-81224085D01*
X149722931Y-81224085D02*
X149699122Y-81176466D01*
X149699122Y-81176466D02*
X149699122Y-81128847D01*
X149699122Y-81128847D02*
X149722931Y-81081228D01*
X149722931Y-81081228D02*
X149746741Y-81057419D01*
X149746741Y-81057419D02*
X149794360Y-81033609D01*
X149794360Y-81033609D02*
X149913407Y-81033609D01*
X149913407Y-81033609D02*
X149984836Y-81057419D01*
X150199121Y-81533609D02*
X150199121Y-81033609D01*
X150199121Y-81033609D02*
X150389597Y-81033609D01*
X150389597Y-81033609D02*
X150437216Y-81057419D01*
X150437216Y-81057419D02*
X150461026Y-81081228D01*
X150461026Y-81081228D02*
X150484835Y-81128847D01*
X150484835Y-81128847D02*
X150484835Y-81200276D01*
X150484835Y-81200276D02*
X150461026Y-81247895D01*
X150461026Y-81247895D02*
X150437216Y-81271704D01*
X150437216Y-81271704D02*
X150389597Y-81295514D01*
X150389597Y-81295514D02*
X150199121Y-81295514D01*
X144061027Y-104204828D02*
X144132455Y-104228637D01*
X144132455Y-104228637D02*
X144251503Y-104228637D01*
X144251503Y-104228637D02*
X144299122Y-104204828D01*
X144299122Y-104204828D02*
X144322931Y-104181018D01*
X144322931Y-104181018D02*
X144346741Y-104133399D01*
X144346741Y-104133399D02*
X144346741Y-104085780D01*
X144346741Y-104085780D02*
X144322931Y-104038161D01*
X144322931Y-104038161D02*
X144299122Y-104014351D01*
X144299122Y-104014351D02*
X144251503Y-103990542D01*
X144251503Y-103990542D02*
X144156265Y-103966732D01*
X144156265Y-103966732D02*
X144108646Y-103942923D01*
X144108646Y-103942923D02*
X144084836Y-103919113D01*
X144084836Y-103919113D02*
X144061027Y-103871494D01*
X144061027Y-103871494D02*
X144061027Y-103823875D01*
X144061027Y-103823875D02*
X144084836Y-103776256D01*
X144084836Y-103776256D02*
X144108646Y-103752447D01*
X144108646Y-103752447D02*
X144156265Y-103728637D01*
X144156265Y-103728637D02*
X144275312Y-103728637D01*
X144275312Y-103728637D02*
X144346741Y-103752447D01*
X144561026Y-103966732D02*
X144727693Y-103966732D01*
X144799121Y-104228637D02*
X144561026Y-104228637D01*
X144561026Y-104228637D02*
X144561026Y-103728637D01*
X144561026Y-103728637D02*
X144799121Y-103728637D01*
X145299121Y-104228637D02*
X145132455Y-103990542D01*
X145013407Y-104228637D02*
X145013407Y-103728637D01*
X145013407Y-103728637D02*
X145203883Y-103728637D01*
X145203883Y-103728637D02*
X145251502Y-103752447D01*
X145251502Y-103752447D02*
X145275312Y-103776256D01*
X145275312Y-103776256D02*
X145299121Y-103823875D01*
X145299121Y-103823875D02*
X145299121Y-103895304D01*
X145299121Y-103895304D02*
X145275312Y-103942923D01*
X145275312Y-103942923D02*
X145251502Y-103966732D01*
X145251502Y-103966732D02*
X145203883Y-103990542D01*
X145203883Y-103990542D02*
X145013407Y-103990542D01*
X145513407Y-104228637D02*
X145513407Y-103728637D01*
X145727693Y-104085780D02*
X145965788Y-104085780D01*
X145680074Y-104228637D02*
X145846740Y-103728637D01*
X145846740Y-103728637D02*
X146013407Y-104228637D01*
X146418168Y-104228637D02*
X146180073Y-104228637D01*
X146180073Y-104228637D02*
X146180073Y-103728637D01*
X144084836Y-104533609D02*
X144084836Y-104938371D01*
X144084836Y-104938371D02*
X144108646Y-104985990D01*
X144108646Y-104985990D02*
X144132455Y-105009800D01*
X144132455Y-105009800D02*
X144180074Y-105033609D01*
X144180074Y-105033609D02*
X144275312Y-105033609D01*
X144275312Y-105033609D02*
X144322931Y-105009800D01*
X144322931Y-105009800D02*
X144346741Y-104985990D01*
X144346741Y-104985990D02*
X144370550Y-104938371D01*
X144370550Y-104938371D02*
X144370550Y-104533609D01*
X144584837Y-104890752D02*
X144822932Y-104890752D01*
X144537218Y-105033609D02*
X144703884Y-104533609D01*
X144703884Y-104533609D02*
X144870551Y-105033609D01*
X145322931Y-105033609D02*
X145156265Y-104795514D01*
X145037217Y-105033609D02*
X145037217Y-104533609D01*
X145037217Y-104533609D02*
X145227693Y-104533609D01*
X145227693Y-104533609D02*
X145275312Y-104557419D01*
X145275312Y-104557419D02*
X145299122Y-104581228D01*
X145299122Y-104581228D02*
X145322931Y-104628847D01*
X145322931Y-104628847D02*
X145322931Y-104700276D01*
X145322931Y-104700276D02*
X145299122Y-104747895D01*
X145299122Y-104747895D02*
X145275312Y-104771704D01*
X145275312Y-104771704D02*
X145227693Y-104795514D01*
X145227693Y-104795514D02*
X145037217Y-104795514D01*
X145465789Y-104533609D02*
X145751503Y-104533609D01*
X145608646Y-105033609D02*
X145608646Y-104533609D01*
X149684836Y-101933609D02*
X149684836Y-101433609D01*
X149899122Y-101481228D02*
X149922931Y-101457419D01*
X149922931Y-101457419D02*
X149970550Y-101433609D01*
X149970550Y-101433609D02*
X150089598Y-101433609D01*
X150089598Y-101433609D02*
X150137217Y-101457419D01*
X150137217Y-101457419D02*
X150161026Y-101481228D01*
X150161026Y-101481228D02*
X150184836Y-101528847D01*
X150184836Y-101528847D02*
X150184836Y-101576466D01*
X150184836Y-101576466D02*
X150161026Y-101647895D01*
X150161026Y-101647895D02*
X149875312Y-101933609D01*
X149875312Y-101933609D02*
X150184836Y-101933609D01*
X150684835Y-101885990D02*
X150661026Y-101909800D01*
X150661026Y-101909800D02*
X150589597Y-101933609D01*
X150589597Y-101933609D02*
X150541978Y-101933609D01*
X150541978Y-101933609D02*
X150470550Y-101909800D01*
X150470550Y-101909800D02*
X150422931Y-101862180D01*
X150422931Y-101862180D02*
X150399121Y-101814561D01*
X150399121Y-101814561D02*
X150375312Y-101719323D01*
X150375312Y-101719323D02*
X150375312Y-101647895D01*
X150375312Y-101647895D02*
X150399121Y-101552657D01*
X150399121Y-101552657D02*
X150422931Y-101505038D01*
X150422931Y-101505038D02*
X150470550Y-101457419D01*
X150470550Y-101457419D02*
X150541978Y-101433609D01*
X150541978Y-101433609D02*
X150589597Y-101433609D01*
X150589597Y-101433609D02*
X150661026Y-101457419D01*
X150661026Y-101457419D02*
X150684835Y-101481228D01*
X147446741Y-91957419D02*
X147399122Y-91933609D01*
X147399122Y-91933609D02*
X147327693Y-91933609D01*
X147327693Y-91933609D02*
X147256265Y-91957419D01*
X147256265Y-91957419D02*
X147208646Y-92005038D01*
X147208646Y-92005038D02*
X147184836Y-92052657D01*
X147184836Y-92052657D02*
X147161027Y-92147895D01*
X147161027Y-92147895D02*
X147161027Y-92219323D01*
X147161027Y-92219323D02*
X147184836Y-92314561D01*
X147184836Y-92314561D02*
X147208646Y-92362180D01*
X147208646Y-92362180D02*
X147256265Y-92409800D01*
X147256265Y-92409800D02*
X147327693Y-92433609D01*
X147327693Y-92433609D02*
X147375312Y-92433609D01*
X147375312Y-92433609D02*
X147446741Y-92409800D01*
X147446741Y-92409800D02*
X147470550Y-92385990D01*
X147470550Y-92385990D02*
X147470550Y-92219323D01*
X147470550Y-92219323D02*
X147375312Y-92219323D01*
X147684836Y-92433609D02*
X147684836Y-91933609D01*
X147684836Y-91933609D02*
X147970550Y-92433609D01*
X147970550Y-92433609D02*
X147970550Y-91933609D01*
X148208646Y-92433609D02*
X148208646Y-91933609D01*
X148208646Y-91933609D02*
X148327694Y-91933609D01*
X148327694Y-91933609D02*
X148399122Y-91957419D01*
X148399122Y-91957419D02*
X148446741Y-92005038D01*
X148446741Y-92005038D02*
X148470551Y-92052657D01*
X148470551Y-92052657D02*
X148494360Y-92147895D01*
X148494360Y-92147895D02*
X148494360Y-92219323D01*
X148494360Y-92219323D02*
X148470551Y-92314561D01*
X148470551Y-92314561D02*
X148446741Y-92362180D01*
X148446741Y-92362180D02*
X148399122Y-92409800D01*
X148399122Y-92409800D02*
X148327694Y-92433609D01*
X148327694Y-92433609D02*
X148208646Y-92433609D01*
X147361027Y-100009800D02*
X147432455Y-100033609D01*
X147432455Y-100033609D02*
X147551503Y-100033609D01*
X147551503Y-100033609D02*
X147599122Y-100009800D01*
X147599122Y-100009800D02*
X147622931Y-99985990D01*
X147622931Y-99985990D02*
X147646741Y-99938371D01*
X147646741Y-99938371D02*
X147646741Y-99890752D01*
X147646741Y-99890752D02*
X147622931Y-99843133D01*
X147622931Y-99843133D02*
X147599122Y-99819323D01*
X147599122Y-99819323D02*
X147551503Y-99795514D01*
X147551503Y-99795514D02*
X147456265Y-99771704D01*
X147456265Y-99771704D02*
X147408646Y-99747895D01*
X147408646Y-99747895D02*
X147384836Y-99724085D01*
X147384836Y-99724085D02*
X147361027Y-99676466D01*
X147361027Y-99676466D02*
X147361027Y-99628847D01*
X147361027Y-99628847D02*
X147384836Y-99581228D01*
X147384836Y-99581228D02*
X147408646Y-99557419D01*
X147408646Y-99557419D02*
X147456265Y-99533609D01*
X147456265Y-99533609D02*
X147575312Y-99533609D01*
X147575312Y-99533609D02*
X147646741Y-99557419D01*
X148146740Y-99985990D02*
X148122931Y-100009800D01*
X148122931Y-100009800D02*
X148051502Y-100033609D01*
X148051502Y-100033609D02*
X148003883Y-100033609D01*
X148003883Y-100033609D02*
X147932455Y-100009800D01*
X147932455Y-100009800D02*
X147884836Y-99962180D01*
X147884836Y-99962180D02*
X147861026Y-99914561D01*
X147861026Y-99914561D02*
X147837217Y-99819323D01*
X147837217Y-99819323D02*
X147837217Y-99747895D01*
X147837217Y-99747895D02*
X147861026Y-99652657D01*
X147861026Y-99652657D02*
X147884836Y-99605038D01*
X147884836Y-99605038D02*
X147932455Y-99557419D01*
X147932455Y-99557419D02*
X148003883Y-99533609D01*
X148003883Y-99533609D02*
X148051502Y-99533609D01*
X148051502Y-99533609D02*
X148122931Y-99557419D01*
X148122931Y-99557419D02*
X148146740Y-99581228D01*
X148361026Y-100033609D02*
X148361026Y-99533609D01*
X148646740Y-100033609D02*
X148432455Y-99747895D01*
X148646740Y-99533609D02*
X148361026Y-99819323D01*
X147161027Y-97509800D02*
X147232455Y-97533609D01*
X147232455Y-97533609D02*
X147351503Y-97533609D01*
X147351503Y-97533609D02*
X147399122Y-97509800D01*
X147399122Y-97509800D02*
X147422931Y-97485990D01*
X147422931Y-97485990D02*
X147446741Y-97438371D01*
X147446741Y-97438371D02*
X147446741Y-97390752D01*
X147446741Y-97390752D02*
X147422931Y-97343133D01*
X147422931Y-97343133D02*
X147399122Y-97319323D01*
X147399122Y-97319323D02*
X147351503Y-97295514D01*
X147351503Y-97295514D02*
X147256265Y-97271704D01*
X147256265Y-97271704D02*
X147208646Y-97247895D01*
X147208646Y-97247895D02*
X147184836Y-97224085D01*
X147184836Y-97224085D02*
X147161027Y-97176466D01*
X147161027Y-97176466D02*
X147161027Y-97128847D01*
X147161027Y-97128847D02*
X147184836Y-97081228D01*
X147184836Y-97081228D02*
X147208646Y-97057419D01*
X147208646Y-97057419D02*
X147256265Y-97033609D01*
X147256265Y-97033609D02*
X147375312Y-97033609D01*
X147375312Y-97033609D02*
X147446741Y-97057419D01*
X147661026Y-97533609D02*
X147661026Y-97033609D01*
X147661026Y-97033609D02*
X147780074Y-97033609D01*
X147780074Y-97033609D02*
X147851502Y-97057419D01*
X147851502Y-97057419D02*
X147899121Y-97105038D01*
X147899121Y-97105038D02*
X147922931Y-97152657D01*
X147922931Y-97152657D02*
X147946740Y-97247895D01*
X147946740Y-97247895D02*
X147946740Y-97319323D01*
X147946740Y-97319323D02*
X147922931Y-97414561D01*
X147922931Y-97414561D02*
X147899121Y-97462180D01*
X147899121Y-97462180D02*
X147851502Y-97509800D01*
X147851502Y-97509800D02*
X147780074Y-97533609D01*
X147780074Y-97533609D02*
X147661026Y-97533609D01*
X148137217Y-97390752D02*
X148375312Y-97390752D01*
X148089598Y-97533609D02*
X148256264Y-97033609D01*
X148256264Y-97033609D02*
X148422931Y-97533609D01*
X147313408Y-94433609D02*
X147480074Y-94933609D01*
X147480074Y-94933609D02*
X147646741Y-94433609D01*
X148027693Y-94909800D02*
X147980074Y-94933609D01*
X147980074Y-94933609D02*
X147884836Y-94933609D01*
X147884836Y-94933609D02*
X147837217Y-94909800D01*
X147837217Y-94909800D02*
X147813407Y-94885990D01*
X147813407Y-94885990D02*
X147789598Y-94838371D01*
X147789598Y-94838371D02*
X147789598Y-94695514D01*
X147789598Y-94695514D02*
X147813407Y-94647895D01*
X147813407Y-94647895D02*
X147837217Y-94624085D01*
X147837217Y-94624085D02*
X147884836Y-94600276D01*
X147884836Y-94600276D02*
X147980074Y-94600276D01*
X147980074Y-94600276D02*
X148027693Y-94624085D01*
X148456264Y-94909800D02*
X148408645Y-94933609D01*
X148408645Y-94933609D02*
X148313407Y-94933609D01*
X148313407Y-94933609D02*
X148265788Y-94909800D01*
X148265788Y-94909800D02*
X148241978Y-94885990D01*
X148241978Y-94885990D02*
X148218169Y-94838371D01*
X148218169Y-94838371D02*
X148218169Y-94695514D01*
X148218169Y-94695514D02*
X148241978Y-94647895D01*
X148241978Y-94647895D02*
X148265788Y-94624085D01*
X148265788Y-94624085D02*
X148313407Y-94600276D01*
X148313407Y-94600276D02*
X148408645Y-94600276D01*
X148408645Y-94600276D02*
X148456264Y-94624085D01*
X141813408Y-102133609D02*
X142099122Y-102133609D01*
X141956265Y-102633609D02*
X141956265Y-102133609D01*
X142218169Y-102633609D02*
X142480074Y-102300276D01*
X142218169Y-102300276D02*
X142480074Y-102633609D01*
X139670550Y-102633609D02*
X139503884Y-102395514D01*
X139384836Y-102633609D02*
X139384836Y-102133609D01*
X139384836Y-102133609D02*
X139575312Y-102133609D01*
X139575312Y-102133609D02*
X139622931Y-102157419D01*
X139622931Y-102157419D02*
X139646741Y-102181228D01*
X139646741Y-102181228D02*
X139670550Y-102228847D01*
X139670550Y-102228847D02*
X139670550Y-102300276D01*
X139670550Y-102300276D02*
X139646741Y-102347895D01*
X139646741Y-102347895D02*
X139622931Y-102371704D01*
X139622931Y-102371704D02*
X139575312Y-102395514D01*
X139575312Y-102395514D02*
X139384836Y-102395514D01*
X139837217Y-102633609D02*
X140099122Y-102300276D01*
X139837217Y-102300276D02*
X140099122Y-102633609D01*
X136513408Y-102133609D02*
X136680074Y-102633609D01*
X136680074Y-102633609D02*
X136846741Y-102133609D01*
X137227693Y-102609800D02*
X137180074Y-102633609D01*
X137180074Y-102633609D02*
X137084836Y-102633609D01*
X137084836Y-102633609D02*
X137037217Y-102609800D01*
X137037217Y-102609800D02*
X137013407Y-102585990D01*
X137013407Y-102585990D02*
X136989598Y-102538371D01*
X136989598Y-102538371D02*
X136989598Y-102395514D01*
X136989598Y-102395514D02*
X137013407Y-102347895D01*
X137013407Y-102347895D02*
X137037217Y-102324085D01*
X137037217Y-102324085D02*
X137084836Y-102300276D01*
X137084836Y-102300276D02*
X137180074Y-102300276D01*
X137180074Y-102300276D02*
X137227693Y-102324085D01*
X137656264Y-102609800D02*
X137608645Y-102633609D01*
X137608645Y-102633609D02*
X137513407Y-102633609D01*
X137513407Y-102633609D02*
X137465788Y-102609800D01*
X137465788Y-102609800D02*
X137441978Y-102585990D01*
X137441978Y-102585990D02*
X137418169Y-102538371D01*
X137418169Y-102538371D02*
X137418169Y-102395514D01*
X137418169Y-102395514D02*
X137441978Y-102347895D01*
X137441978Y-102347895D02*
X137465788Y-102324085D01*
X137465788Y-102324085D02*
X137513407Y-102300276D01*
X137513407Y-102300276D02*
X137608645Y-102300276D01*
X137608645Y-102300276D02*
X137656264Y-102324085D01*
X134246741Y-102157419D02*
X134199122Y-102133609D01*
X134199122Y-102133609D02*
X134127693Y-102133609D01*
X134127693Y-102133609D02*
X134056265Y-102157419D01*
X134056265Y-102157419D02*
X134008646Y-102205038D01*
X134008646Y-102205038D02*
X133984836Y-102252657D01*
X133984836Y-102252657D02*
X133961027Y-102347895D01*
X133961027Y-102347895D02*
X133961027Y-102419323D01*
X133961027Y-102419323D02*
X133984836Y-102514561D01*
X133984836Y-102514561D02*
X134008646Y-102562180D01*
X134008646Y-102562180D02*
X134056265Y-102609800D01*
X134056265Y-102609800D02*
X134127693Y-102633609D01*
X134127693Y-102633609D02*
X134175312Y-102633609D01*
X134175312Y-102633609D02*
X134246741Y-102609800D01*
X134246741Y-102609800D02*
X134270550Y-102585990D01*
X134270550Y-102585990D02*
X134270550Y-102419323D01*
X134270550Y-102419323D02*
X134175312Y-102419323D01*
X134484836Y-102633609D02*
X134484836Y-102133609D01*
X134484836Y-102133609D02*
X134770550Y-102633609D01*
X134770550Y-102633609D02*
X134770550Y-102133609D01*
X135008646Y-102633609D02*
X135008646Y-102133609D01*
X135008646Y-102133609D02*
X135127694Y-102133609D01*
X135127694Y-102133609D02*
X135199122Y-102157419D01*
X135199122Y-102157419D02*
X135246741Y-102205038D01*
X135246741Y-102205038D02*
X135270551Y-102252657D01*
X135270551Y-102252657D02*
X135294360Y-102347895D01*
X135294360Y-102347895D02*
X135294360Y-102419323D01*
X135294360Y-102419323D02*
X135270551Y-102514561D01*
X135270551Y-102514561D02*
X135246741Y-102562180D01*
X135246741Y-102562180D02*
X135199122Y-102609800D01*
X135199122Y-102609800D02*
X135127694Y-102633609D01*
X135127694Y-102633609D02*
X135008646Y-102633609D01*
X128213408Y-102133609D02*
X128380074Y-102633609D01*
X128380074Y-102633609D02*
X128546741Y-102133609D01*
X128927693Y-102609800D02*
X128880074Y-102633609D01*
X128880074Y-102633609D02*
X128784836Y-102633609D01*
X128784836Y-102633609D02*
X128737217Y-102609800D01*
X128737217Y-102609800D02*
X128713407Y-102585990D01*
X128713407Y-102585990D02*
X128689598Y-102538371D01*
X128689598Y-102538371D02*
X128689598Y-102395514D01*
X128689598Y-102395514D02*
X128713407Y-102347895D01*
X128713407Y-102347895D02*
X128737217Y-102324085D01*
X128737217Y-102324085D02*
X128784836Y-102300276D01*
X128784836Y-102300276D02*
X128880074Y-102300276D01*
X128880074Y-102300276D02*
X128927693Y-102324085D01*
X129356264Y-102609800D02*
X129308645Y-102633609D01*
X129308645Y-102633609D02*
X129213407Y-102633609D01*
X129213407Y-102633609D02*
X129165788Y-102609800D01*
X129165788Y-102609800D02*
X129141978Y-102585990D01*
X129141978Y-102585990D02*
X129118169Y-102538371D01*
X129118169Y-102538371D02*
X129118169Y-102395514D01*
X129118169Y-102395514D02*
X129141978Y-102347895D01*
X129141978Y-102347895D02*
X129165788Y-102324085D01*
X129165788Y-102324085D02*
X129213407Y-102300276D01*
X129213407Y-102300276D02*
X129308645Y-102300276D01*
X129308645Y-102300276D02*
X129356264Y-102324085D01*
X110865788Y-102133609D02*
X111175312Y-102133609D01*
X111175312Y-102133609D02*
X111008645Y-102324085D01*
X111008645Y-102324085D02*
X111080074Y-102324085D01*
X111080074Y-102324085D02*
X111127693Y-102347895D01*
X111127693Y-102347895D02*
X111151502Y-102371704D01*
X111151502Y-102371704D02*
X111175312Y-102419323D01*
X111175312Y-102419323D02*
X111175312Y-102538371D01*
X111175312Y-102538371D02*
X111151502Y-102585990D01*
X111151502Y-102585990D02*
X111127693Y-102609800D01*
X111127693Y-102609800D02*
X111080074Y-102633609D01*
X111080074Y-102633609D02*
X110937217Y-102633609D01*
X110937217Y-102633609D02*
X110889598Y-102609800D01*
X110889598Y-102609800D02*
X110865788Y-102585990D01*
X125846741Y-102157419D02*
X125799122Y-102133609D01*
X125799122Y-102133609D02*
X125727693Y-102133609D01*
X125727693Y-102133609D02*
X125656265Y-102157419D01*
X125656265Y-102157419D02*
X125608646Y-102205038D01*
X125608646Y-102205038D02*
X125584836Y-102252657D01*
X125584836Y-102252657D02*
X125561027Y-102347895D01*
X125561027Y-102347895D02*
X125561027Y-102419323D01*
X125561027Y-102419323D02*
X125584836Y-102514561D01*
X125584836Y-102514561D02*
X125608646Y-102562180D01*
X125608646Y-102562180D02*
X125656265Y-102609800D01*
X125656265Y-102609800D02*
X125727693Y-102633609D01*
X125727693Y-102633609D02*
X125775312Y-102633609D01*
X125775312Y-102633609D02*
X125846741Y-102609800D01*
X125846741Y-102609800D02*
X125870550Y-102585990D01*
X125870550Y-102585990D02*
X125870550Y-102419323D01*
X125870550Y-102419323D02*
X125775312Y-102419323D01*
X126084836Y-102633609D02*
X126084836Y-102133609D01*
X126084836Y-102133609D02*
X126370550Y-102633609D01*
X126370550Y-102633609D02*
X126370550Y-102133609D01*
X126608646Y-102633609D02*
X126608646Y-102133609D01*
X126608646Y-102133609D02*
X126727694Y-102133609D01*
X126727694Y-102133609D02*
X126799122Y-102157419D01*
X126799122Y-102157419D02*
X126846741Y-102205038D01*
X126846741Y-102205038D02*
X126870551Y-102252657D01*
X126870551Y-102252657D02*
X126894360Y-102347895D01*
X126894360Y-102347895D02*
X126894360Y-102419323D01*
X126894360Y-102419323D02*
X126870551Y-102514561D01*
X126870551Y-102514561D02*
X126846741Y-102562180D01*
X126846741Y-102562180D02*
X126799122Y-102609800D01*
X126799122Y-102609800D02*
X126727694Y-102633609D01*
X126727694Y-102633609D02*
X126608646Y-102633609D01*
X123627694Y-102347895D02*
X123580075Y-102324085D01*
X123580075Y-102324085D02*
X123556265Y-102300276D01*
X123556265Y-102300276D02*
X123532456Y-102252657D01*
X123532456Y-102252657D02*
X123532456Y-102228847D01*
X123532456Y-102228847D02*
X123556265Y-102181228D01*
X123556265Y-102181228D02*
X123580075Y-102157419D01*
X123580075Y-102157419D02*
X123627694Y-102133609D01*
X123627694Y-102133609D02*
X123722932Y-102133609D01*
X123722932Y-102133609D02*
X123770551Y-102157419D01*
X123770551Y-102157419D02*
X123794360Y-102181228D01*
X123794360Y-102181228D02*
X123818170Y-102228847D01*
X123818170Y-102228847D02*
X123818170Y-102252657D01*
X123818170Y-102252657D02*
X123794360Y-102300276D01*
X123794360Y-102300276D02*
X123770551Y-102324085D01*
X123770551Y-102324085D02*
X123722932Y-102347895D01*
X123722932Y-102347895D02*
X123627694Y-102347895D01*
X123627694Y-102347895D02*
X123580075Y-102371704D01*
X123580075Y-102371704D02*
X123556265Y-102395514D01*
X123556265Y-102395514D02*
X123532456Y-102443133D01*
X123532456Y-102443133D02*
X123532456Y-102538371D01*
X123532456Y-102538371D02*
X123556265Y-102585990D01*
X123556265Y-102585990D02*
X123580075Y-102609800D01*
X123580075Y-102609800D02*
X123627694Y-102633609D01*
X123627694Y-102633609D02*
X123722932Y-102633609D01*
X123722932Y-102633609D02*
X123770551Y-102609800D01*
X123770551Y-102609800D02*
X123794360Y-102585990D01*
X123794360Y-102585990D02*
X123818170Y-102538371D01*
X123818170Y-102538371D02*
X123818170Y-102443133D01*
X123818170Y-102443133D02*
X123794360Y-102395514D01*
X123794360Y-102395514D02*
X123770551Y-102371704D01*
X123770551Y-102371704D02*
X123722932Y-102347895D01*
X120980074Y-102133609D02*
X121313407Y-102133609D01*
X121313407Y-102133609D02*
X121099122Y-102633609D01*
X118713408Y-102133609D02*
X118618170Y-102133609D01*
X118618170Y-102133609D02*
X118570551Y-102157419D01*
X118570551Y-102157419D02*
X118546741Y-102181228D01*
X118546741Y-102181228D02*
X118499122Y-102252657D01*
X118499122Y-102252657D02*
X118475313Y-102347895D01*
X118475313Y-102347895D02*
X118475313Y-102538371D01*
X118475313Y-102538371D02*
X118499122Y-102585990D01*
X118499122Y-102585990D02*
X118522932Y-102609800D01*
X118522932Y-102609800D02*
X118570551Y-102633609D01*
X118570551Y-102633609D02*
X118665789Y-102633609D01*
X118665789Y-102633609D02*
X118713408Y-102609800D01*
X118713408Y-102609800D02*
X118737217Y-102585990D01*
X118737217Y-102585990D02*
X118761027Y-102538371D01*
X118761027Y-102538371D02*
X118761027Y-102419323D01*
X118761027Y-102419323D02*
X118737217Y-102371704D01*
X118737217Y-102371704D02*
X118713408Y-102347895D01*
X118713408Y-102347895D02*
X118665789Y-102324085D01*
X118665789Y-102324085D02*
X118570551Y-102324085D01*
X118570551Y-102324085D02*
X118522932Y-102347895D01*
X118522932Y-102347895D02*
X118499122Y-102371704D01*
X118499122Y-102371704D02*
X118475313Y-102419323D01*
X116208645Y-102133609D02*
X115970550Y-102133609D01*
X115970550Y-102133609D02*
X115946741Y-102371704D01*
X115946741Y-102371704D02*
X115970550Y-102347895D01*
X115970550Y-102347895D02*
X116018169Y-102324085D01*
X116018169Y-102324085D02*
X116137217Y-102324085D01*
X116137217Y-102324085D02*
X116184836Y-102347895D01*
X116184836Y-102347895D02*
X116208645Y-102371704D01*
X116208645Y-102371704D02*
X116232455Y-102419323D01*
X116232455Y-102419323D02*
X116232455Y-102538371D01*
X116232455Y-102538371D02*
X116208645Y-102585990D01*
X116208645Y-102585990D02*
X116184836Y-102609800D01*
X116184836Y-102609800D02*
X116137217Y-102633609D01*
X116137217Y-102633609D02*
X116018169Y-102633609D01*
X116018169Y-102633609D02*
X115970550Y-102609800D01*
X115970550Y-102609800D02*
X115946741Y-102585990D01*
X113656265Y-102300276D02*
X113656265Y-102633609D01*
X113537217Y-102109800D02*
X113418170Y-102466942D01*
X113418170Y-102466942D02*
X113727693Y-102466942D01*
X108361027Y-102181228D02*
X108384836Y-102157419D01*
X108384836Y-102157419D02*
X108432455Y-102133609D01*
X108432455Y-102133609D02*
X108551503Y-102133609D01*
X108551503Y-102133609D02*
X108599122Y-102157419D01*
X108599122Y-102157419D02*
X108622931Y-102181228D01*
X108622931Y-102181228D02*
X108646741Y-102228847D01*
X108646741Y-102228847D02*
X108646741Y-102276466D01*
X108646741Y-102276466D02*
X108622931Y-102347895D01*
X108622931Y-102347895D02*
X108337217Y-102633609D01*
X108337217Y-102633609D02*
X108646741Y-102633609D01*
X116866666Y-83718633D02*
X116866666Y-84285300D01*
X116866666Y-84285300D02*
X116900000Y-84351966D01*
X116900000Y-84351966D02*
X116933333Y-84385300D01*
X116933333Y-84385300D02*
X117000000Y-84418633D01*
X117000000Y-84418633D02*
X117133333Y-84418633D01*
X117133333Y-84418633D02*
X117200000Y-84385300D01*
X117200000Y-84385300D02*
X117233333Y-84351966D01*
X117233333Y-84351966D02*
X117266666Y-84285300D01*
X117266666Y-84285300D02*
X117266666Y-83718633D01*
X117966666Y-84418633D02*
X117566666Y-84418633D01*
X117766666Y-84418633D02*
X117766666Y-83718633D01*
X117766666Y-83718633D02*
X117699999Y-83818633D01*
X117699999Y-83818633D02*
X117633333Y-83885300D01*
X117633333Y-83885300D02*
X117566666Y-83918633D01*
X110614287Y-83773728D02*
X110638096Y-83749919D01*
X110638096Y-83749919D02*
X110685715Y-83726109D01*
X110685715Y-83726109D02*
X110804763Y-83726109D01*
X110804763Y-83726109D02*
X110852382Y-83749919D01*
X110852382Y-83749919D02*
X110876191Y-83773728D01*
X110876191Y-83773728D02*
X110900001Y-83821347D01*
X110900001Y-83821347D02*
X110900001Y-83868966D01*
X110900001Y-83868966D02*
X110876191Y-83940395D01*
X110876191Y-83940395D02*
X110590477Y-84226109D01*
X110590477Y-84226109D02*
X110900001Y-84226109D01*
X111328572Y-83892776D02*
X111328572Y-84226109D01*
X111209524Y-83702300D02*
X111090477Y-84059442D01*
X111090477Y-84059442D02*
X111400000Y-84059442D01*
X111828571Y-84226109D02*
X111590476Y-84226109D01*
X111590476Y-84226109D02*
X111590476Y-83726109D01*
X112280952Y-84178490D02*
X112257143Y-84202300D01*
X112257143Y-84202300D02*
X112185714Y-84226109D01*
X112185714Y-84226109D02*
X112138095Y-84226109D01*
X112138095Y-84226109D02*
X112066667Y-84202300D01*
X112066667Y-84202300D02*
X112019048Y-84154680D01*
X112019048Y-84154680D02*
X111995238Y-84107061D01*
X111995238Y-84107061D02*
X111971429Y-84011823D01*
X111971429Y-84011823D02*
X111971429Y-83940395D01*
X111971429Y-83940395D02*
X111995238Y-83845157D01*
X111995238Y-83845157D02*
X112019048Y-83797538D01*
X112019048Y-83797538D02*
X112066667Y-83749919D01*
X112066667Y-83749919D02*
X112138095Y-83726109D01*
X112138095Y-83726109D02*
X112185714Y-83726109D01*
X112185714Y-83726109D02*
X112257143Y-83749919D01*
X112257143Y-83749919D02*
X112280952Y-83773728D01*
X112757143Y-84226109D02*
X112471429Y-84226109D01*
X112614286Y-84226109D02*
X112614286Y-83726109D01*
X112614286Y-83726109D02*
X112566667Y-83797538D01*
X112566667Y-83797538D02*
X112519048Y-83845157D01*
X112519048Y-83845157D02*
X112471429Y-83868966D01*
X113066666Y-83726109D02*
X113114285Y-83726109D01*
X113114285Y-83726109D02*
X113161904Y-83749919D01*
X113161904Y-83749919D02*
X113185714Y-83773728D01*
X113185714Y-83773728D02*
X113209523Y-83821347D01*
X113209523Y-83821347D02*
X113233333Y-83916585D01*
X113233333Y-83916585D02*
X113233333Y-84035633D01*
X113233333Y-84035633D02*
X113209523Y-84130871D01*
X113209523Y-84130871D02*
X113185714Y-84178490D01*
X113185714Y-84178490D02*
X113161904Y-84202300D01*
X113161904Y-84202300D02*
X113114285Y-84226109D01*
X113114285Y-84226109D02*
X113066666Y-84226109D01*
X113066666Y-84226109D02*
X113019047Y-84202300D01*
X113019047Y-84202300D02*
X112995238Y-84178490D01*
X112995238Y-84178490D02*
X112971428Y-84130871D01*
X112971428Y-84130871D02*
X112947619Y-84035633D01*
X112947619Y-84035633D02*
X112947619Y-83916585D01*
X112947619Y-83916585D02*
X112971428Y-83821347D01*
X112971428Y-83821347D02*
X112995238Y-83773728D01*
X112995238Y-83773728D02*
X113019047Y-83749919D01*
X113019047Y-83749919D02*
X113066666Y-83726109D01*
X113423809Y-83773728D02*
X113447618Y-83749919D01*
X113447618Y-83749919D02*
X113495237Y-83726109D01*
X113495237Y-83726109D02*
X113614285Y-83726109D01*
X113614285Y-83726109D02*
X113661904Y-83749919D01*
X113661904Y-83749919D02*
X113685713Y-83773728D01*
X113685713Y-83773728D02*
X113709523Y-83821347D01*
X113709523Y-83821347D02*
X113709523Y-83868966D01*
X113709523Y-83868966D02*
X113685713Y-83940395D01*
X113685713Y-83940395D02*
X113399999Y-84226109D01*
X113399999Y-84226109D02*
X113709523Y-84226109D01*
X114161903Y-83726109D02*
X113923808Y-83726109D01*
X113923808Y-83726109D02*
X113899999Y-83964204D01*
X113899999Y-83964204D02*
X113923808Y-83940395D01*
X113923808Y-83940395D02*
X113971427Y-83916585D01*
X113971427Y-83916585D02*
X114090475Y-83916585D01*
X114090475Y-83916585D02*
X114138094Y-83940395D01*
X114138094Y-83940395D02*
X114161903Y-83964204D01*
X114161903Y-83964204D02*
X114185713Y-84011823D01*
X114185713Y-84011823D02*
X114185713Y-84130871D01*
X114185713Y-84130871D02*
X114161903Y-84178490D01*
X114161903Y-84178490D02*
X114138094Y-84202300D01*
X114138094Y-84202300D02*
X114090475Y-84226109D01*
X114090475Y-84226109D02*
X113971427Y-84226109D01*
X113971427Y-84226109D02*
X113923808Y-84202300D01*
X113923808Y-84202300D02*
X113899999Y-84178490D01*
X134983333Y-98551966D02*
X134950000Y-98585300D01*
X134950000Y-98585300D02*
X134850000Y-98618633D01*
X134850000Y-98618633D02*
X134783333Y-98618633D01*
X134783333Y-98618633D02*
X134683333Y-98585300D01*
X134683333Y-98585300D02*
X134616667Y-98518633D01*
X134616667Y-98518633D02*
X134583333Y-98451966D01*
X134583333Y-98451966D02*
X134550000Y-98318633D01*
X134550000Y-98318633D02*
X134550000Y-98218633D01*
X134550000Y-98218633D02*
X134583333Y-98085300D01*
X134583333Y-98085300D02*
X134616667Y-98018633D01*
X134616667Y-98018633D02*
X134683333Y-97951966D01*
X134683333Y-97951966D02*
X134783333Y-97918633D01*
X134783333Y-97918633D02*
X134850000Y-97918633D01*
X134850000Y-97918633D02*
X134950000Y-97951966D01*
X134950000Y-97951966D02*
X134983333Y-97985300D01*
X135650000Y-98618633D02*
X135250000Y-98618633D01*
X135450000Y-98618633D02*
X135450000Y-97918633D01*
X135450000Y-97918633D02*
X135383333Y-98018633D01*
X135383333Y-98018633D02*
X135316667Y-98085300D01*
X135316667Y-98085300D02*
X135250000Y-98118633D01*
X136578572Y-98026109D02*
X136626191Y-98026109D01*
X136626191Y-98026109D02*
X136673810Y-98049919D01*
X136673810Y-98049919D02*
X136697620Y-98073728D01*
X136697620Y-98073728D02*
X136721429Y-98121347D01*
X136721429Y-98121347D02*
X136745239Y-98216585D01*
X136745239Y-98216585D02*
X136745239Y-98335633D01*
X136745239Y-98335633D02*
X136721429Y-98430871D01*
X136721429Y-98430871D02*
X136697620Y-98478490D01*
X136697620Y-98478490D02*
X136673810Y-98502300D01*
X136673810Y-98502300D02*
X136626191Y-98526109D01*
X136626191Y-98526109D02*
X136578572Y-98526109D01*
X136578572Y-98526109D02*
X136530953Y-98502300D01*
X136530953Y-98502300D02*
X136507144Y-98478490D01*
X136507144Y-98478490D02*
X136483334Y-98430871D01*
X136483334Y-98430871D02*
X136459525Y-98335633D01*
X136459525Y-98335633D02*
X136459525Y-98216585D01*
X136459525Y-98216585D02*
X136483334Y-98121347D01*
X136483334Y-98121347D02*
X136507144Y-98073728D01*
X136507144Y-98073728D02*
X136530953Y-98049919D01*
X136530953Y-98049919D02*
X136578572Y-98026109D01*
X136959524Y-98478490D02*
X136983334Y-98502300D01*
X136983334Y-98502300D02*
X136959524Y-98526109D01*
X136959524Y-98526109D02*
X136935715Y-98502300D01*
X136935715Y-98502300D02*
X136959524Y-98478490D01*
X136959524Y-98478490D02*
X136959524Y-98526109D01*
X137459524Y-98526109D02*
X137173810Y-98526109D01*
X137316667Y-98526109D02*
X137316667Y-98026109D01*
X137316667Y-98026109D02*
X137269048Y-98097538D01*
X137269048Y-98097538D02*
X137221429Y-98145157D01*
X137221429Y-98145157D02*
X137173810Y-98168966D01*
X137888095Y-98192776D02*
X137888095Y-98526109D01*
X137673809Y-98192776D02*
X137673809Y-98454680D01*
X137673809Y-98454680D02*
X137697619Y-98502300D01*
X137697619Y-98502300D02*
X137745238Y-98526109D01*
X137745238Y-98526109D02*
X137816666Y-98526109D01*
X137816666Y-98526109D02*
X137864285Y-98502300D01*
X137864285Y-98502300D02*
X137888095Y-98478490D01*
X138292857Y-98264204D02*
X138126190Y-98264204D01*
X138126190Y-98526109D02*
X138126190Y-98026109D01*
X138126190Y-98026109D02*
X138364285Y-98026109D01*
X147266666Y-90718633D02*
X147266666Y-91218633D01*
X147266666Y-91218633D02*
X147233333Y-91318633D01*
X147233333Y-91318633D02*
X147166666Y-91385300D01*
X147166666Y-91385300D02*
X147066666Y-91418633D01*
X147066666Y-91418633D02*
X147000000Y-91418633D01*
X147966666Y-91418633D02*
X147566666Y-91418633D01*
X147766666Y-91418633D02*
X147766666Y-90718633D01*
X147766666Y-90718633D02*
X147699999Y-90818633D01*
X147699999Y-90818633D02*
X147633333Y-90885300D01*
X147633333Y-90885300D02*
X147566666Y-90918633D01*
X103505966Y-86150000D02*
X103539300Y-86050000D01*
X103539300Y-86050000D02*
X103572633Y-86016666D01*
X103572633Y-86016666D02*
X103639300Y-85983333D01*
X103639300Y-85983333D02*
X103739300Y-85983333D01*
X103739300Y-85983333D02*
X103805966Y-86016666D01*
X103805966Y-86016666D02*
X103839300Y-86050000D01*
X103839300Y-86050000D02*
X103872633Y-86116666D01*
X103872633Y-86116666D02*
X103872633Y-86383333D01*
X103872633Y-86383333D02*
X103172633Y-86383333D01*
X103172633Y-86383333D02*
X103172633Y-86150000D01*
X103172633Y-86150000D02*
X103205966Y-86083333D01*
X103205966Y-86083333D02*
X103239300Y-86050000D01*
X103239300Y-86050000D02*
X103305966Y-86016666D01*
X103305966Y-86016666D02*
X103372633Y-86016666D01*
X103372633Y-86016666D02*
X103439300Y-86050000D01*
X103439300Y-86050000D02*
X103472633Y-86083333D01*
X103472633Y-86083333D02*
X103505966Y-86150000D01*
X103505966Y-86150000D02*
X103505966Y-86383333D01*
X103172633Y-85783333D02*
X103172633Y-85383333D01*
X103872633Y-85583333D02*
X103172633Y-85583333D01*
X103872633Y-84783333D02*
X103872633Y-85183333D01*
X103872633Y-84983333D02*
X103172633Y-84983333D01*
X103172633Y-84983333D02*
X103272633Y-85050000D01*
X103272633Y-85050000D02*
X103339300Y-85116667D01*
X103339300Y-85116667D02*
X103372633Y-85183333D01*
X105838667Y-88958204D02*
X105910095Y-88982014D01*
X105910095Y-88982014D02*
X105933905Y-89005823D01*
X105933905Y-89005823D02*
X105957714Y-89053442D01*
X105957714Y-89053442D02*
X105957714Y-89124871D01*
X105957714Y-89124871D02*
X105933905Y-89172490D01*
X105933905Y-89172490D02*
X105910095Y-89196300D01*
X105910095Y-89196300D02*
X105862476Y-89220109D01*
X105862476Y-89220109D02*
X105672000Y-89220109D01*
X105672000Y-89220109D02*
X105672000Y-88720109D01*
X105672000Y-88720109D02*
X105838667Y-88720109D01*
X105838667Y-88720109D02*
X105886286Y-88743919D01*
X105886286Y-88743919D02*
X105910095Y-88767728D01*
X105910095Y-88767728D02*
X105933905Y-88815347D01*
X105933905Y-88815347D02*
X105933905Y-88862966D01*
X105933905Y-88862966D02*
X105910095Y-88910585D01*
X105910095Y-88910585D02*
X105886286Y-88934395D01*
X105886286Y-88934395D02*
X105838667Y-88958204D01*
X105838667Y-88958204D02*
X105672000Y-88958204D01*
X106386286Y-89220109D02*
X106386286Y-88958204D01*
X106386286Y-88958204D02*
X106362476Y-88910585D01*
X106362476Y-88910585D02*
X106314857Y-88886776D01*
X106314857Y-88886776D02*
X106219619Y-88886776D01*
X106219619Y-88886776D02*
X106172000Y-88910585D01*
X106386286Y-89196300D02*
X106338667Y-89220109D01*
X106338667Y-89220109D02*
X106219619Y-89220109D01*
X106219619Y-89220109D02*
X106172000Y-89196300D01*
X106172000Y-89196300D02*
X106148191Y-89148680D01*
X106148191Y-89148680D02*
X106148191Y-89101061D01*
X106148191Y-89101061D02*
X106172000Y-89053442D01*
X106172000Y-89053442D02*
X106219619Y-89029633D01*
X106219619Y-89029633D02*
X106338667Y-89029633D01*
X106338667Y-89029633D02*
X106386286Y-89005823D01*
X106552953Y-88886776D02*
X106743429Y-88886776D01*
X106624381Y-88720109D02*
X106624381Y-89148680D01*
X106624381Y-89148680D02*
X106648191Y-89196300D01*
X106648191Y-89196300D02*
X106695810Y-89220109D01*
X106695810Y-89220109D02*
X106743429Y-89220109D01*
X139283333Y-87418633D02*
X139050000Y-87085300D01*
X138883333Y-87418633D02*
X138883333Y-86718633D01*
X138883333Y-86718633D02*
X139150000Y-86718633D01*
X139150000Y-86718633D02*
X139216667Y-86751966D01*
X139216667Y-86751966D02*
X139250000Y-86785300D01*
X139250000Y-86785300D02*
X139283333Y-86851966D01*
X139283333Y-86851966D02*
X139283333Y-86951966D01*
X139283333Y-86951966D02*
X139250000Y-87018633D01*
X139250000Y-87018633D02*
X139216667Y-87051966D01*
X139216667Y-87051966D02*
X139150000Y-87085300D01*
X139150000Y-87085300D02*
X138883333Y-87085300D01*
X139916667Y-86718633D02*
X139583333Y-86718633D01*
X139583333Y-86718633D02*
X139550000Y-87051966D01*
X139550000Y-87051966D02*
X139583333Y-87018633D01*
X139583333Y-87018633D02*
X139650000Y-86985300D01*
X139650000Y-86985300D02*
X139816667Y-86985300D01*
X139816667Y-86985300D02*
X139883333Y-87018633D01*
X139883333Y-87018633D02*
X139916667Y-87051966D01*
X139916667Y-87051966D02*
X139950000Y-87118633D01*
X139950000Y-87118633D02*
X139950000Y-87285300D01*
X139950000Y-87285300D02*
X139916667Y-87351966D01*
X139916667Y-87351966D02*
X139883333Y-87385300D01*
X139883333Y-87385300D02*
X139816667Y-87418633D01*
X139816667Y-87418633D02*
X139650000Y-87418633D01*
X139650000Y-87418633D02*
X139583333Y-87385300D01*
X139583333Y-87385300D02*
X139550000Y-87351966D01*
X141254762Y-87326109D02*
X140969048Y-87326109D01*
X141111905Y-87326109D02*
X141111905Y-86826109D01*
X141111905Y-86826109D02*
X141064286Y-86897538D01*
X141064286Y-86897538D02*
X141016667Y-86945157D01*
X141016667Y-86945157D02*
X140969048Y-86968966D01*
X141564285Y-86826109D02*
X141611904Y-86826109D01*
X141611904Y-86826109D02*
X141659523Y-86849919D01*
X141659523Y-86849919D02*
X141683333Y-86873728D01*
X141683333Y-86873728D02*
X141707142Y-86921347D01*
X141707142Y-86921347D02*
X141730952Y-87016585D01*
X141730952Y-87016585D02*
X141730952Y-87135633D01*
X141730952Y-87135633D02*
X141707142Y-87230871D01*
X141707142Y-87230871D02*
X141683333Y-87278490D01*
X141683333Y-87278490D02*
X141659523Y-87302300D01*
X141659523Y-87302300D02*
X141611904Y-87326109D01*
X141611904Y-87326109D02*
X141564285Y-87326109D01*
X141564285Y-87326109D02*
X141516666Y-87302300D01*
X141516666Y-87302300D02*
X141492857Y-87278490D01*
X141492857Y-87278490D02*
X141469047Y-87230871D01*
X141469047Y-87230871D02*
X141445238Y-87135633D01*
X141445238Y-87135633D02*
X141445238Y-87016585D01*
X141445238Y-87016585D02*
X141469047Y-86921347D01*
X141469047Y-86921347D02*
X141492857Y-86873728D01*
X141492857Y-86873728D02*
X141516666Y-86849919D01*
X141516666Y-86849919D02*
X141564285Y-86826109D01*
X141945237Y-87326109D02*
X141945237Y-86826109D01*
X142230951Y-87326109D02*
X142016666Y-87040395D01*
X142230951Y-86826109D02*
X141945237Y-87111823D01*
X126366666Y-82618633D02*
X126366666Y-83185300D01*
X126366666Y-83185300D02*
X126400000Y-83251966D01*
X126400000Y-83251966D02*
X126433333Y-83285300D01*
X126433333Y-83285300D02*
X126500000Y-83318633D01*
X126500000Y-83318633D02*
X126633333Y-83318633D01*
X126633333Y-83318633D02*
X126700000Y-83285300D01*
X126700000Y-83285300D02*
X126733333Y-83251966D01*
X126733333Y-83251966D02*
X126766666Y-83185300D01*
X126766666Y-83185300D02*
X126766666Y-82618633D01*
X127399999Y-82851966D02*
X127399999Y-83318633D01*
X127233333Y-82585300D02*
X127066666Y-83085300D01*
X127066666Y-83085300D02*
X127499999Y-83085300D01*
X126629333Y-77311966D02*
X126596000Y-77345300D01*
X126596000Y-77345300D02*
X126496000Y-77378633D01*
X126496000Y-77378633D02*
X126429333Y-77378633D01*
X126429333Y-77378633D02*
X126329333Y-77345300D01*
X126329333Y-77345300D02*
X126262667Y-77278633D01*
X126262667Y-77278633D02*
X126229333Y-77211966D01*
X126229333Y-77211966D02*
X126196000Y-77078633D01*
X126196000Y-77078633D02*
X126196000Y-76978633D01*
X126196000Y-76978633D02*
X126229333Y-76845300D01*
X126229333Y-76845300D02*
X126262667Y-76778633D01*
X126262667Y-76778633D02*
X126329333Y-76711966D01*
X126329333Y-76711966D02*
X126429333Y-76678633D01*
X126429333Y-76678633D02*
X126496000Y-76678633D01*
X126496000Y-76678633D02*
X126596000Y-76711966D01*
X126596000Y-76711966D02*
X126629333Y-76745300D01*
X126896000Y-76745300D02*
X126929333Y-76711966D01*
X126929333Y-76711966D02*
X126996000Y-76678633D01*
X126996000Y-76678633D02*
X127162667Y-76678633D01*
X127162667Y-76678633D02*
X127229333Y-76711966D01*
X127229333Y-76711966D02*
X127262667Y-76745300D01*
X127262667Y-76745300D02*
X127296000Y-76811966D01*
X127296000Y-76811966D02*
X127296000Y-76878633D01*
X127296000Y-76878633D02*
X127262667Y-76978633D01*
X127262667Y-76978633D02*
X126862667Y-77378633D01*
X126862667Y-77378633D02*
X127296000Y-77378633D01*
X125924572Y-80193728D02*
X125948381Y-80169919D01*
X125948381Y-80169919D02*
X125996000Y-80146109D01*
X125996000Y-80146109D02*
X126115048Y-80146109D01*
X126115048Y-80146109D02*
X126162667Y-80169919D01*
X126162667Y-80169919D02*
X126186476Y-80193728D01*
X126186476Y-80193728D02*
X126210286Y-80241347D01*
X126210286Y-80241347D02*
X126210286Y-80288966D01*
X126210286Y-80288966D02*
X126186476Y-80360395D01*
X126186476Y-80360395D02*
X125900762Y-80646109D01*
X125900762Y-80646109D02*
X126210286Y-80646109D01*
X126400762Y-80193728D02*
X126424571Y-80169919D01*
X126424571Y-80169919D02*
X126472190Y-80146109D01*
X126472190Y-80146109D02*
X126591238Y-80146109D01*
X126591238Y-80146109D02*
X126638857Y-80169919D01*
X126638857Y-80169919D02*
X126662666Y-80193728D01*
X126662666Y-80193728D02*
X126686476Y-80241347D01*
X126686476Y-80241347D02*
X126686476Y-80288966D01*
X126686476Y-80288966D02*
X126662666Y-80360395D01*
X126662666Y-80360395D02*
X126376952Y-80646109D01*
X126376952Y-80646109D02*
X126686476Y-80646109D01*
X126900761Y-80312776D02*
X126900761Y-80812776D01*
X126900761Y-80336585D02*
X126948380Y-80312776D01*
X126948380Y-80312776D02*
X127043618Y-80312776D01*
X127043618Y-80312776D02*
X127091237Y-80336585D01*
X127091237Y-80336585D02*
X127115047Y-80360395D01*
X127115047Y-80360395D02*
X127138856Y-80408014D01*
X127138856Y-80408014D02*
X127138856Y-80550871D01*
X127138856Y-80550871D02*
X127115047Y-80598490D01*
X127115047Y-80598490D02*
X127091237Y-80622300D01*
X127091237Y-80622300D02*
X127043618Y-80646109D01*
X127043618Y-80646109D02*
X126948380Y-80646109D01*
X126948380Y-80646109D02*
X126900761Y-80622300D01*
X127519809Y-80384204D02*
X127353142Y-80384204D01*
X127353142Y-80646109D02*
X127353142Y-80146109D01*
X127353142Y-80146109D02*
X127591237Y-80146109D01*
X110183333Y-99518633D02*
X109950000Y-99185300D01*
X109783333Y-99518633D02*
X109783333Y-98818633D01*
X109783333Y-98818633D02*
X110050000Y-98818633D01*
X110050000Y-98818633D02*
X110116667Y-98851966D01*
X110116667Y-98851966D02*
X110150000Y-98885300D01*
X110150000Y-98885300D02*
X110183333Y-98951966D01*
X110183333Y-98951966D02*
X110183333Y-99051966D01*
X110183333Y-99051966D02*
X110150000Y-99118633D01*
X110150000Y-99118633D02*
X110116667Y-99151966D01*
X110116667Y-99151966D02*
X110050000Y-99185300D01*
X110050000Y-99185300D02*
X109783333Y-99185300D01*
X110416667Y-98818633D02*
X110850000Y-98818633D01*
X110850000Y-98818633D02*
X110616667Y-99085300D01*
X110616667Y-99085300D02*
X110716667Y-99085300D01*
X110716667Y-99085300D02*
X110783333Y-99118633D01*
X110783333Y-99118633D02*
X110816667Y-99151966D01*
X110816667Y-99151966D02*
X110850000Y-99218633D01*
X110850000Y-99218633D02*
X110850000Y-99385300D01*
X110850000Y-99385300D02*
X110816667Y-99451966D01*
X110816667Y-99451966D02*
X110783333Y-99485300D01*
X110783333Y-99485300D02*
X110716667Y-99518633D01*
X110716667Y-99518633D02*
X110516667Y-99518633D01*
X110516667Y-99518633D02*
X110450000Y-99485300D01*
X110450000Y-99485300D02*
X110416667Y-99451966D01*
X112554762Y-99526109D02*
X112269048Y-99526109D01*
X112411905Y-99526109D02*
X112411905Y-99026109D01*
X112411905Y-99026109D02*
X112364286Y-99097538D01*
X112364286Y-99097538D02*
X112316667Y-99145157D01*
X112316667Y-99145157D02*
X112269048Y-99168966D01*
X112864285Y-99026109D02*
X112911904Y-99026109D01*
X112911904Y-99026109D02*
X112959523Y-99049919D01*
X112959523Y-99049919D02*
X112983333Y-99073728D01*
X112983333Y-99073728D02*
X113007142Y-99121347D01*
X113007142Y-99121347D02*
X113030952Y-99216585D01*
X113030952Y-99216585D02*
X113030952Y-99335633D01*
X113030952Y-99335633D02*
X113007142Y-99430871D01*
X113007142Y-99430871D02*
X112983333Y-99478490D01*
X112983333Y-99478490D02*
X112959523Y-99502300D01*
X112959523Y-99502300D02*
X112911904Y-99526109D01*
X112911904Y-99526109D02*
X112864285Y-99526109D01*
X112864285Y-99526109D02*
X112816666Y-99502300D01*
X112816666Y-99502300D02*
X112792857Y-99478490D01*
X112792857Y-99478490D02*
X112769047Y-99430871D01*
X112769047Y-99430871D02*
X112745238Y-99335633D01*
X112745238Y-99335633D02*
X112745238Y-99216585D01*
X112745238Y-99216585D02*
X112769047Y-99121347D01*
X112769047Y-99121347D02*
X112792857Y-99073728D01*
X112792857Y-99073728D02*
X112816666Y-99049919D01*
X112816666Y-99049919D02*
X112864285Y-99026109D01*
X113245237Y-99526109D02*
X113245237Y-99026109D01*
X113530951Y-99526109D02*
X113316666Y-99240395D01*
X113530951Y-99026109D02*
X113245237Y-99311823D01*
X111666666Y-91718633D02*
X111666666Y-92285300D01*
X111666666Y-92285300D02*
X111700000Y-92351966D01*
X111700000Y-92351966D02*
X111733333Y-92385300D01*
X111733333Y-92385300D02*
X111800000Y-92418633D01*
X111800000Y-92418633D02*
X111933333Y-92418633D01*
X111933333Y-92418633D02*
X112000000Y-92385300D01*
X112000000Y-92385300D02*
X112033333Y-92351966D01*
X112033333Y-92351966D02*
X112066666Y-92285300D01*
X112066666Y-92285300D02*
X112066666Y-91718633D01*
X112333333Y-91718633D02*
X112766666Y-91718633D01*
X112766666Y-91718633D02*
X112533333Y-91985300D01*
X112533333Y-91985300D02*
X112633333Y-91985300D01*
X112633333Y-91985300D02*
X112699999Y-92018633D01*
X112699999Y-92018633D02*
X112733333Y-92051966D01*
X112733333Y-92051966D02*
X112766666Y-92118633D01*
X112766666Y-92118633D02*
X112766666Y-92285300D01*
X112766666Y-92285300D02*
X112733333Y-92351966D01*
X112733333Y-92351966D02*
X112699999Y-92385300D01*
X112699999Y-92385300D02*
X112633333Y-92418633D01*
X112633333Y-92418633D02*
X112433333Y-92418633D01*
X112433333Y-92418633D02*
X112366666Y-92385300D01*
X112366666Y-92385300D02*
X112333333Y-92351966D01*
X112550001Y-98426109D02*
X112550001Y-97926109D01*
X112550001Y-97926109D02*
X112669049Y-97926109D01*
X112669049Y-97926109D02*
X112740477Y-97949919D01*
X112740477Y-97949919D02*
X112788096Y-97997538D01*
X112788096Y-97997538D02*
X112811906Y-98045157D01*
X112811906Y-98045157D02*
X112835715Y-98140395D01*
X112835715Y-98140395D02*
X112835715Y-98211823D01*
X112835715Y-98211823D02*
X112811906Y-98307061D01*
X112811906Y-98307061D02*
X112788096Y-98354680D01*
X112788096Y-98354680D02*
X112740477Y-98402300D01*
X112740477Y-98402300D02*
X112669049Y-98426109D01*
X112669049Y-98426109D02*
X112550001Y-98426109D01*
X113026192Y-98402300D02*
X113097620Y-98426109D01*
X113097620Y-98426109D02*
X113216668Y-98426109D01*
X113216668Y-98426109D02*
X113264287Y-98402300D01*
X113264287Y-98402300D02*
X113288096Y-98378490D01*
X113288096Y-98378490D02*
X113311906Y-98330871D01*
X113311906Y-98330871D02*
X113311906Y-98283252D01*
X113311906Y-98283252D02*
X113288096Y-98235633D01*
X113288096Y-98235633D02*
X113264287Y-98211823D01*
X113264287Y-98211823D02*
X113216668Y-98188014D01*
X113216668Y-98188014D02*
X113121430Y-98164204D01*
X113121430Y-98164204D02*
X113073811Y-98140395D01*
X113073811Y-98140395D02*
X113050001Y-98116585D01*
X113050001Y-98116585D02*
X113026192Y-98068966D01*
X113026192Y-98068966D02*
X113026192Y-98021347D01*
X113026192Y-98021347D02*
X113050001Y-97973728D01*
X113050001Y-97973728D02*
X113073811Y-97949919D01*
X113073811Y-97949919D02*
X113121430Y-97926109D01*
X113121430Y-97926109D02*
X113240477Y-97926109D01*
X113240477Y-97926109D02*
X113311906Y-97949919D01*
X113788096Y-98426109D02*
X113502382Y-98426109D01*
X113645239Y-98426109D02*
X113645239Y-97926109D01*
X113645239Y-97926109D02*
X113597620Y-97997538D01*
X113597620Y-97997538D02*
X113550001Y-98045157D01*
X113550001Y-98045157D02*
X113502382Y-98068966D01*
X113954762Y-97926109D02*
X114264286Y-97926109D01*
X114264286Y-97926109D02*
X114097619Y-98116585D01*
X114097619Y-98116585D02*
X114169048Y-98116585D01*
X114169048Y-98116585D02*
X114216667Y-98140395D01*
X114216667Y-98140395D02*
X114240476Y-98164204D01*
X114240476Y-98164204D02*
X114264286Y-98211823D01*
X114264286Y-98211823D02*
X114264286Y-98330871D01*
X114264286Y-98330871D02*
X114240476Y-98378490D01*
X114240476Y-98378490D02*
X114216667Y-98402300D01*
X114216667Y-98402300D02*
X114169048Y-98426109D01*
X114169048Y-98426109D02*
X114026191Y-98426109D01*
X114026191Y-98426109D02*
X113978572Y-98402300D01*
X113978572Y-98402300D02*
X113954762Y-98378490D01*
X114430952Y-97926109D02*
X114740476Y-97926109D01*
X114740476Y-97926109D02*
X114573809Y-98116585D01*
X114573809Y-98116585D02*
X114645238Y-98116585D01*
X114645238Y-98116585D02*
X114692857Y-98140395D01*
X114692857Y-98140395D02*
X114716666Y-98164204D01*
X114716666Y-98164204D02*
X114740476Y-98211823D01*
X114740476Y-98211823D02*
X114740476Y-98330871D01*
X114740476Y-98330871D02*
X114716666Y-98378490D01*
X114716666Y-98378490D02*
X114692857Y-98402300D01*
X114692857Y-98402300D02*
X114645238Y-98426109D01*
X114645238Y-98426109D02*
X114502381Y-98426109D01*
X114502381Y-98426109D02*
X114454762Y-98402300D01*
X114454762Y-98402300D02*
X114430952Y-98378490D01*
X114907142Y-97926109D02*
X115240475Y-97926109D01*
X115240475Y-97926109D02*
X115026190Y-98426109D01*
X115407142Y-98402300D02*
X115478570Y-98426109D01*
X115478570Y-98426109D02*
X115597618Y-98426109D01*
X115597618Y-98426109D02*
X115645237Y-98402300D01*
X115645237Y-98402300D02*
X115669046Y-98378490D01*
X115669046Y-98378490D02*
X115692856Y-98330871D01*
X115692856Y-98330871D02*
X115692856Y-98283252D01*
X115692856Y-98283252D02*
X115669046Y-98235633D01*
X115669046Y-98235633D02*
X115645237Y-98211823D01*
X115645237Y-98211823D02*
X115597618Y-98188014D01*
X115597618Y-98188014D02*
X115502380Y-98164204D01*
X115502380Y-98164204D02*
X115454761Y-98140395D01*
X115454761Y-98140395D02*
X115430951Y-98116585D01*
X115430951Y-98116585D02*
X115407142Y-98068966D01*
X115407142Y-98068966D02*
X115407142Y-98021347D01*
X115407142Y-98021347D02*
X115430951Y-97973728D01*
X115430951Y-97973728D02*
X115454761Y-97949919D01*
X115454761Y-97949919D02*
X115502380Y-97926109D01*
X115502380Y-97926109D02*
X115621427Y-97926109D01*
X115621427Y-97926109D02*
X115692856Y-97949919D01*
X115788094Y-98473728D02*
X116169046Y-98473728D01*
X105566666Y-103018633D02*
X105566666Y-103518633D01*
X105566666Y-103518633D02*
X105533333Y-103618633D01*
X105533333Y-103618633D02*
X105466666Y-103685300D01*
X105466666Y-103685300D02*
X105366666Y-103718633D01*
X105366666Y-103718633D02*
X105300000Y-103718633D01*
X105833333Y-103018633D02*
X106266666Y-103018633D01*
X106266666Y-103018633D02*
X106033333Y-103285300D01*
X106033333Y-103285300D02*
X106133333Y-103285300D01*
X106133333Y-103285300D02*
X106199999Y-103318633D01*
X106199999Y-103318633D02*
X106233333Y-103351966D01*
X106233333Y-103351966D02*
X106266666Y-103418633D01*
X106266666Y-103418633D02*
X106266666Y-103585300D01*
X106266666Y-103585300D02*
X106233333Y-103651966D01*
X106233333Y-103651966D02*
X106199999Y-103685300D01*
X106199999Y-103685300D02*
X106133333Y-103718633D01*
X106133333Y-103718633D02*
X105933333Y-103718633D01*
X105933333Y-103718633D02*
X105866666Y-103685300D01*
X105866666Y-103685300D02*
X105833333Y-103651966D01*
X146366666Y-80518633D02*
X146366666Y-81018633D01*
X146366666Y-81018633D02*
X146333333Y-81118633D01*
X146333333Y-81118633D02*
X146266666Y-81185300D01*
X146266666Y-81185300D02*
X146166666Y-81218633D01*
X146166666Y-81218633D02*
X146100000Y-81218633D01*
X147033333Y-80518633D02*
X146699999Y-80518633D01*
X146699999Y-80518633D02*
X146666666Y-80851966D01*
X146666666Y-80851966D02*
X146699999Y-80818633D01*
X146699999Y-80818633D02*
X146766666Y-80785300D01*
X146766666Y-80785300D02*
X146933333Y-80785300D01*
X146933333Y-80785300D02*
X146999999Y-80818633D01*
X146999999Y-80818633D02*
X147033333Y-80851966D01*
X147033333Y-80851966D02*
X147066666Y-80918633D01*
X147066666Y-80918633D02*
X147066666Y-81085300D01*
X147066666Y-81085300D02*
X147033333Y-81151966D01*
X147033333Y-81151966D02*
X146999999Y-81185300D01*
X146999999Y-81185300D02*
X146933333Y-81218633D01*
X146933333Y-81218633D02*
X146766666Y-81218633D01*
X146766666Y-81218633D02*
X146699999Y-81185300D01*
X146699999Y-81185300D02*
X146666666Y-81151966D01*
X139583333Y-83918633D02*
X139350000Y-83585300D01*
X139183333Y-83918633D02*
X139183333Y-83218633D01*
X139183333Y-83218633D02*
X139450000Y-83218633D01*
X139450000Y-83218633D02*
X139516667Y-83251966D01*
X139516667Y-83251966D02*
X139550000Y-83285300D01*
X139550000Y-83285300D02*
X139583333Y-83351966D01*
X139583333Y-83351966D02*
X139583333Y-83451966D01*
X139583333Y-83451966D02*
X139550000Y-83518633D01*
X139550000Y-83518633D02*
X139516667Y-83551966D01*
X139516667Y-83551966D02*
X139450000Y-83585300D01*
X139450000Y-83585300D02*
X139183333Y-83585300D01*
X139850000Y-83285300D02*
X139883333Y-83251966D01*
X139883333Y-83251966D02*
X139950000Y-83218633D01*
X139950000Y-83218633D02*
X140116667Y-83218633D01*
X140116667Y-83218633D02*
X140183333Y-83251966D01*
X140183333Y-83251966D02*
X140216667Y-83285300D01*
X140216667Y-83285300D02*
X140250000Y-83351966D01*
X140250000Y-83351966D02*
X140250000Y-83418633D01*
X140250000Y-83418633D02*
X140216667Y-83518633D01*
X140216667Y-83518633D02*
X139816667Y-83918633D01*
X139816667Y-83918633D02*
X140250000Y-83918633D01*
X141057143Y-83326109D02*
X141366667Y-83326109D01*
X141366667Y-83326109D02*
X141200000Y-83516585D01*
X141200000Y-83516585D02*
X141271429Y-83516585D01*
X141271429Y-83516585D02*
X141319048Y-83540395D01*
X141319048Y-83540395D02*
X141342857Y-83564204D01*
X141342857Y-83564204D02*
X141366667Y-83611823D01*
X141366667Y-83611823D02*
X141366667Y-83730871D01*
X141366667Y-83730871D02*
X141342857Y-83778490D01*
X141342857Y-83778490D02*
X141319048Y-83802300D01*
X141319048Y-83802300D02*
X141271429Y-83826109D01*
X141271429Y-83826109D02*
X141128572Y-83826109D01*
X141128572Y-83826109D02*
X141080953Y-83802300D01*
X141080953Y-83802300D02*
X141057143Y-83778490D01*
X141533333Y-83326109D02*
X141842857Y-83326109D01*
X141842857Y-83326109D02*
X141676190Y-83516585D01*
X141676190Y-83516585D02*
X141747619Y-83516585D01*
X141747619Y-83516585D02*
X141795238Y-83540395D01*
X141795238Y-83540395D02*
X141819047Y-83564204D01*
X141819047Y-83564204D02*
X141842857Y-83611823D01*
X141842857Y-83611823D02*
X141842857Y-83730871D01*
X141842857Y-83730871D02*
X141819047Y-83778490D01*
X141819047Y-83778490D02*
X141795238Y-83802300D01*
X141795238Y-83802300D02*
X141747619Y-83826109D01*
X141747619Y-83826109D02*
X141604762Y-83826109D01*
X141604762Y-83826109D02*
X141557143Y-83802300D01*
X141557143Y-83802300D02*
X141533333Y-83778490D01*
X142152380Y-83326109D02*
X142199999Y-83326109D01*
X142199999Y-83326109D02*
X142247618Y-83349919D01*
X142247618Y-83349919D02*
X142271428Y-83373728D01*
X142271428Y-83373728D02*
X142295237Y-83421347D01*
X142295237Y-83421347D02*
X142319047Y-83516585D01*
X142319047Y-83516585D02*
X142319047Y-83635633D01*
X142319047Y-83635633D02*
X142295237Y-83730871D01*
X142295237Y-83730871D02*
X142271428Y-83778490D01*
X142271428Y-83778490D02*
X142247618Y-83802300D01*
X142247618Y-83802300D02*
X142199999Y-83826109D01*
X142199999Y-83826109D02*
X142152380Y-83826109D01*
X142152380Y-83826109D02*
X142104761Y-83802300D01*
X142104761Y-83802300D02*
X142080952Y-83778490D01*
X142080952Y-83778490D02*
X142057142Y-83730871D01*
X142057142Y-83730871D02*
X142033333Y-83635633D01*
X142033333Y-83635633D02*
X142033333Y-83516585D01*
X142033333Y-83516585D02*
X142057142Y-83421347D01*
X142057142Y-83421347D02*
X142080952Y-83373728D01*
X142080952Y-83373728D02*
X142104761Y-83349919D01*
X142104761Y-83349919D02*
X142152380Y-83326109D01*
X132166666Y-104118633D02*
X132166666Y-104618633D01*
X132166666Y-104618633D02*
X132133333Y-104718633D01*
X132133333Y-104718633D02*
X132066666Y-104785300D01*
X132066666Y-104785300D02*
X131966666Y-104818633D01*
X131966666Y-104818633D02*
X131900000Y-104818633D01*
X132466666Y-104185300D02*
X132499999Y-104151966D01*
X132499999Y-104151966D02*
X132566666Y-104118633D01*
X132566666Y-104118633D02*
X132733333Y-104118633D01*
X132733333Y-104118633D02*
X132799999Y-104151966D01*
X132799999Y-104151966D02*
X132833333Y-104185300D01*
X132833333Y-104185300D02*
X132866666Y-104251966D01*
X132866666Y-104251966D02*
X132866666Y-104318633D01*
X132866666Y-104318633D02*
X132833333Y-104418633D01*
X132833333Y-104418633D02*
X132433333Y-104818633D01*
X132433333Y-104818633D02*
X132866666Y-104818633D01*
X115483333Y-99618633D02*
X115250000Y-99285300D01*
X115083333Y-99618633D02*
X115083333Y-98918633D01*
X115083333Y-98918633D02*
X115350000Y-98918633D01*
X115350000Y-98918633D02*
X115416667Y-98951966D01*
X115416667Y-98951966D02*
X115450000Y-98985300D01*
X115450000Y-98985300D02*
X115483333Y-99051966D01*
X115483333Y-99051966D02*
X115483333Y-99151966D01*
X115483333Y-99151966D02*
X115450000Y-99218633D01*
X115450000Y-99218633D02*
X115416667Y-99251966D01*
X115416667Y-99251966D02*
X115350000Y-99285300D01*
X115350000Y-99285300D02*
X115083333Y-99285300D01*
X116083333Y-99151966D02*
X116083333Y-99618633D01*
X115916667Y-98885300D02*
X115750000Y-99385300D01*
X115750000Y-99385300D02*
X116183333Y-99385300D01*
X117154762Y-99526109D02*
X116869048Y-99526109D01*
X117011905Y-99526109D02*
X117011905Y-99026109D01*
X117011905Y-99026109D02*
X116964286Y-99097538D01*
X116964286Y-99097538D02*
X116916667Y-99145157D01*
X116916667Y-99145157D02*
X116869048Y-99168966D01*
X117464285Y-99026109D02*
X117511904Y-99026109D01*
X117511904Y-99026109D02*
X117559523Y-99049919D01*
X117559523Y-99049919D02*
X117583333Y-99073728D01*
X117583333Y-99073728D02*
X117607142Y-99121347D01*
X117607142Y-99121347D02*
X117630952Y-99216585D01*
X117630952Y-99216585D02*
X117630952Y-99335633D01*
X117630952Y-99335633D02*
X117607142Y-99430871D01*
X117607142Y-99430871D02*
X117583333Y-99478490D01*
X117583333Y-99478490D02*
X117559523Y-99502300D01*
X117559523Y-99502300D02*
X117511904Y-99526109D01*
X117511904Y-99526109D02*
X117464285Y-99526109D01*
X117464285Y-99526109D02*
X117416666Y-99502300D01*
X117416666Y-99502300D02*
X117392857Y-99478490D01*
X117392857Y-99478490D02*
X117369047Y-99430871D01*
X117369047Y-99430871D02*
X117345238Y-99335633D01*
X117345238Y-99335633D02*
X117345238Y-99216585D01*
X117345238Y-99216585D02*
X117369047Y-99121347D01*
X117369047Y-99121347D02*
X117392857Y-99073728D01*
X117392857Y-99073728D02*
X117416666Y-99049919D01*
X117416666Y-99049919D02*
X117464285Y-99026109D01*
X117845237Y-99526109D02*
X117845237Y-99026109D01*
X118130951Y-99526109D02*
X117916666Y-99240395D01*
X118130951Y-99026109D02*
X117845237Y-99311823D01*
X122311333Y-77311966D02*
X122278000Y-77345300D01*
X122278000Y-77345300D02*
X122178000Y-77378633D01*
X122178000Y-77378633D02*
X122111333Y-77378633D01*
X122111333Y-77378633D02*
X122011333Y-77345300D01*
X122011333Y-77345300D02*
X121944667Y-77278633D01*
X121944667Y-77278633D02*
X121911333Y-77211966D01*
X121911333Y-77211966D02*
X121878000Y-77078633D01*
X121878000Y-77078633D02*
X121878000Y-76978633D01*
X121878000Y-76978633D02*
X121911333Y-76845300D01*
X121911333Y-76845300D02*
X121944667Y-76778633D01*
X121944667Y-76778633D02*
X122011333Y-76711966D01*
X122011333Y-76711966D02*
X122111333Y-76678633D01*
X122111333Y-76678633D02*
X122178000Y-76678633D01*
X122178000Y-76678633D02*
X122278000Y-76711966D01*
X122278000Y-76711966D02*
X122311333Y-76745300D01*
X122911333Y-76911966D02*
X122911333Y-77378633D01*
X122744667Y-76645300D02*
X122578000Y-77145300D01*
X122578000Y-77145300D02*
X123011333Y-77145300D01*
X121606572Y-80146109D02*
X121654191Y-80146109D01*
X121654191Y-80146109D02*
X121701810Y-80169919D01*
X121701810Y-80169919D02*
X121725620Y-80193728D01*
X121725620Y-80193728D02*
X121749429Y-80241347D01*
X121749429Y-80241347D02*
X121773239Y-80336585D01*
X121773239Y-80336585D02*
X121773239Y-80455633D01*
X121773239Y-80455633D02*
X121749429Y-80550871D01*
X121749429Y-80550871D02*
X121725620Y-80598490D01*
X121725620Y-80598490D02*
X121701810Y-80622300D01*
X121701810Y-80622300D02*
X121654191Y-80646109D01*
X121654191Y-80646109D02*
X121606572Y-80646109D01*
X121606572Y-80646109D02*
X121558953Y-80622300D01*
X121558953Y-80622300D02*
X121535144Y-80598490D01*
X121535144Y-80598490D02*
X121511334Y-80550871D01*
X121511334Y-80550871D02*
X121487525Y-80455633D01*
X121487525Y-80455633D02*
X121487525Y-80336585D01*
X121487525Y-80336585D02*
X121511334Y-80241347D01*
X121511334Y-80241347D02*
X121535144Y-80193728D01*
X121535144Y-80193728D02*
X121558953Y-80169919D01*
X121558953Y-80169919D02*
X121606572Y-80146109D01*
X121987524Y-80598490D02*
X122011334Y-80622300D01*
X122011334Y-80622300D02*
X121987524Y-80646109D01*
X121987524Y-80646109D02*
X121963715Y-80622300D01*
X121963715Y-80622300D02*
X121987524Y-80598490D01*
X121987524Y-80598490D02*
X121987524Y-80646109D01*
X122487524Y-80646109D02*
X122201810Y-80646109D01*
X122344667Y-80646109D02*
X122344667Y-80146109D01*
X122344667Y-80146109D02*
X122297048Y-80217538D01*
X122297048Y-80217538D02*
X122249429Y-80265157D01*
X122249429Y-80265157D02*
X122201810Y-80288966D01*
X122916095Y-80312776D02*
X122916095Y-80646109D01*
X122701809Y-80312776D02*
X122701809Y-80574680D01*
X122701809Y-80574680D02*
X122725619Y-80622300D01*
X122725619Y-80622300D02*
X122773238Y-80646109D01*
X122773238Y-80646109D02*
X122844666Y-80646109D01*
X122844666Y-80646109D02*
X122892285Y-80622300D01*
X122892285Y-80622300D02*
X122916095Y-80598490D01*
X123320857Y-80384204D02*
X123154190Y-80384204D01*
X123154190Y-80646109D02*
X123154190Y-80146109D01*
X123154190Y-80146109D02*
X123392285Y-80146109D01*
X134583333Y-87418633D02*
X134350000Y-87085300D01*
X134183333Y-87418633D02*
X134183333Y-86718633D01*
X134183333Y-86718633D02*
X134450000Y-86718633D01*
X134450000Y-86718633D02*
X134516667Y-86751966D01*
X134516667Y-86751966D02*
X134550000Y-86785300D01*
X134550000Y-86785300D02*
X134583333Y-86851966D01*
X134583333Y-86851966D02*
X134583333Y-86951966D01*
X134583333Y-86951966D02*
X134550000Y-87018633D01*
X134550000Y-87018633D02*
X134516667Y-87051966D01*
X134516667Y-87051966D02*
X134450000Y-87085300D01*
X134450000Y-87085300D02*
X134183333Y-87085300D01*
X134816667Y-86718633D02*
X135283333Y-86718633D01*
X135283333Y-86718633D02*
X134983333Y-87418633D01*
X136288096Y-86992776D02*
X136288096Y-87326109D01*
X136169048Y-86802300D02*
X136050001Y-87159442D01*
X136050001Y-87159442D02*
X136359524Y-87159442D01*
X136550000Y-87278490D02*
X136573810Y-87302300D01*
X136573810Y-87302300D02*
X136550000Y-87326109D01*
X136550000Y-87326109D02*
X136526191Y-87302300D01*
X136526191Y-87302300D02*
X136550000Y-87278490D01*
X136550000Y-87278490D02*
X136550000Y-87326109D01*
X136740476Y-86826109D02*
X137073809Y-86826109D01*
X137073809Y-86826109D02*
X136859524Y-87326109D01*
X137264285Y-87326109D02*
X137264285Y-86826109D01*
X137549999Y-87326109D02*
X137335714Y-87040395D01*
X137549999Y-86826109D02*
X137264285Y-87111823D01*
X134783333Y-91018633D02*
X134550000Y-90685300D01*
X134383333Y-91018633D02*
X134383333Y-90318633D01*
X134383333Y-90318633D02*
X134650000Y-90318633D01*
X134650000Y-90318633D02*
X134716667Y-90351966D01*
X134716667Y-90351966D02*
X134750000Y-90385300D01*
X134750000Y-90385300D02*
X134783333Y-90451966D01*
X134783333Y-90451966D02*
X134783333Y-90551966D01*
X134783333Y-90551966D02*
X134750000Y-90618633D01*
X134750000Y-90618633D02*
X134716667Y-90651966D01*
X134716667Y-90651966D02*
X134650000Y-90685300D01*
X134650000Y-90685300D02*
X134383333Y-90685300D01*
X135383333Y-90318633D02*
X135250000Y-90318633D01*
X135250000Y-90318633D02*
X135183333Y-90351966D01*
X135183333Y-90351966D02*
X135150000Y-90385300D01*
X135150000Y-90385300D02*
X135083333Y-90485300D01*
X135083333Y-90485300D02*
X135050000Y-90618633D01*
X135050000Y-90618633D02*
X135050000Y-90885300D01*
X135050000Y-90885300D02*
X135083333Y-90951966D01*
X135083333Y-90951966D02*
X135116667Y-90985300D01*
X135116667Y-90985300D02*
X135183333Y-91018633D01*
X135183333Y-91018633D02*
X135316667Y-91018633D01*
X135316667Y-91018633D02*
X135383333Y-90985300D01*
X135383333Y-90985300D02*
X135416667Y-90951966D01*
X135416667Y-90951966D02*
X135450000Y-90885300D01*
X135450000Y-90885300D02*
X135450000Y-90718633D01*
X135450000Y-90718633D02*
X135416667Y-90651966D01*
X135416667Y-90651966D02*
X135383333Y-90618633D01*
X135383333Y-90618633D02*
X135316667Y-90585300D01*
X135316667Y-90585300D02*
X135183333Y-90585300D01*
X135183333Y-90585300D02*
X135116667Y-90618633D01*
X135116667Y-90618633D02*
X135083333Y-90651966D01*
X135083333Y-90651966D02*
X135050000Y-90718633D01*
X136488096Y-90492776D02*
X136488096Y-90826109D01*
X136369048Y-90302300D02*
X136250001Y-90659442D01*
X136250001Y-90659442D02*
X136559524Y-90659442D01*
X136750000Y-90778490D02*
X136773810Y-90802300D01*
X136773810Y-90802300D02*
X136750000Y-90826109D01*
X136750000Y-90826109D02*
X136726191Y-90802300D01*
X136726191Y-90802300D02*
X136750000Y-90778490D01*
X136750000Y-90778490D02*
X136750000Y-90826109D01*
X136940476Y-90326109D02*
X137273809Y-90326109D01*
X137273809Y-90326109D02*
X137059524Y-90826109D01*
X137464285Y-90826109D02*
X137464285Y-90326109D01*
X137749999Y-90826109D02*
X137535714Y-90540395D01*
X137749999Y-90326109D02*
X137464285Y-90611823D01*
X126666667Y-99961300D02*
X126666667Y-100294633D01*
X126433333Y-99594633D02*
X126666667Y-99961300D01*
X126666667Y-99961300D02*
X126900000Y-99594633D01*
X127100000Y-99661300D02*
X127133333Y-99627966D01*
X127133333Y-99627966D02*
X127200000Y-99594633D01*
X127200000Y-99594633D02*
X127366667Y-99594633D01*
X127366667Y-99594633D02*
X127433333Y-99627966D01*
X127433333Y-99627966D02*
X127466667Y-99661300D01*
X127466667Y-99661300D02*
X127500000Y-99727966D01*
X127500000Y-99727966D02*
X127500000Y-99794633D01*
X127500000Y-99794633D02*
X127466667Y-99894633D01*
X127466667Y-99894633D02*
X127066667Y-100294633D01*
X127066667Y-100294633D02*
X127500000Y-100294633D01*
X126354762Y-94926109D02*
X126069048Y-94926109D01*
X126211905Y-94926109D02*
X126211905Y-94426109D01*
X126211905Y-94426109D02*
X126164286Y-94497538D01*
X126164286Y-94497538D02*
X126116667Y-94545157D01*
X126116667Y-94545157D02*
X126069048Y-94568966D01*
X126783333Y-94426109D02*
X126688095Y-94426109D01*
X126688095Y-94426109D02*
X126640476Y-94449919D01*
X126640476Y-94449919D02*
X126616666Y-94473728D01*
X126616666Y-94473728D02*
X126569047Y-94545157D01*
X126569047Y-94545157D02*
X126545238Y-94640395D01*
X126545238Y-94640395D02*
X126545238Y-94830871D01*
X126545238Y-94830871D02*
X126569047Y-94878490D01*
X126569047Y-94878490D02*
X126592857Y-94902300D01*
X126592857Y-94902300D02*
X126640476Y-94926109D01*
X126640476Y-94926109D02*
X126735714Y-94926109D01*
X126735714Y-94926109D02*
X126783333Y-94902300D01*
X126783333Y-94902300D02*
X126807142Y-94878490D01*
X126807142Y-94878490D02*
X126830952Y-94830871D01*
X126830952Y-94830871D02*
X126830952Y-94711823D01*
X126830952Y-94711823D02*
X126807142Y-94664204D01*
X126807142Y-94664204D02*
X126783333Y-94640395D01*
X126783333Y-94640395D02*
X126735714Y-94616585D01*
X126735714Y-94616585D02*
X126640476Y-94616585D01*
X126640476Y-94616585D02*
X126592857Y-94640395D01*
X126592857Y-94640395D02*
X126569047Y-94664204D01*
X126569047Y-94664204D02*
X126545238Y-94711823D01*
X127045237Y-94926109D02*
X127045237Y-94426109D01*
X127045237Y-94426109D02*
X127211904Y-94783252D01*
X127211904Y-94783252D02*
X127378570Y-94426109D01*
X127378570Y-94426109D02*
X127378570Y-94926109D01*
X127616666Y-94926109D02*
X127616666Y-94426109D01*
X127616666Y-94664204D02*
X127902380Y-94664204D01*
X127902380Y-94926109D02*
X127902380Y-94426109D01*
X128092857Y-94592776D02*
X128354762Y-94592776D01*
X128354762Y-94592776D02*
X128092857Y-94926109D01*
X128092857Y-94926109D02*
X128354762Y-94926109D01*
X103357300Y-94627333D02*
X103690633Y-94627333D01*
X102990633Y-94860666D02*
X103357300Y-94627333D01*
X103357300Y-94627333D02*
X102990633Y-94393999D01*
X103690633Y-93793999D02*
X103690633Y-94193999D01*
X103690633Y-93993999D02*
X102990633Y-93993999D01*
X102990633Y-93993999D02*
X103090633Y-94060666D01*
X103090633Y-94060666D02*
X103157300Y-94127333D01*
X103157300Y-94127333D02*
X103190633Y-94193999D01*
X108698109Y-96246379D02*
X108698109Y-95936855D01*
X108698109Y-95936855D02*
X108888585Y-96103522D01*
X108888585Y-96103522D02*
X108888585Y-96032093D01*
X108888585Y-96032093D02*
X108912395Y-95984474D01*
X108912395Y-95984474D02*
X108936204Y-95960665D01*
X108936204Y-95960665D02*
X108983823Y-95936855D01*
X108983823Y-95936855D02*
X109102871Y-95936855D01*
X109102871Y-95936855D02*
X109150490Y-95960665D01*
X109150490Y-95960665D02*
X109174300Y-95984474D01*
X109174300Y-95984474D02*
X109198109Y-96032093D01*
X109198109Y-96032093D02*
X109198109Y-96174950D01*
X109198109Y-96174950D02*
X109174300Y-96222569D01*
X109174300Y-96222569D02*
X109150490Y-96246379D01*
X108745728Y-95746379D02*
X108721919Y-95722570D01*
X108721919Y-95722570D02*
X108698109Y-95674951D01*
X108698109Y-95674951D02*
X108698109Y-95555903D01*
X108698109Y-95555903D02*
X108721919Y-95508284D01*
X108721919Y-95508284D02*
X108745728Y-95484475D01*
X108745728Y-95484475D02*
X108793347Y-95460665D01*
X108793347Y-95460665D02*
X108840966Y-95460665D01*
X108840966Y-95460665D02*
X108912395Y-95484475D01*
X108912395Y-95484475D02*
X109198109Y-95770189D01*
X109198109Y-95770189D02*
X109198109Y-95460665D01*
X109150490Y-95246380D02*
X109174300Y-95222570D01*
X109174300Y-95222570D02*
X109198109Y-95246380D01*
X109198109Y-95246380D02*
X109174300Y-95270189D01*
X109174300Y-95270189D02*
X109150490Y-95246380D01*
X109150490Y-95246380D02*
X109198109Y-95246380D01*
X108698109Y-95055904D02*
X108698109Y-94722571D01*
X108698109Y-94722571D02*
X109198109Y-94936856D01*
X108698109Y-94317809D02*
X108698109Y-94413047D01*
X108698109Y-94413047D02*
X108721919Y-94460666D01*
X108721919Y-94460666D02*
X108745728Y-94484476D01*
X108745728Y-94484476D02*
X108817157Y-94532095D01*
X108817157Y-94532095D02*
X108912395Y-94555904D01*
X108912395Y-94555904D02*
X109102871Y-94555904D01*
X109102871Y-94555904D02*
X109150490Y-94532095D01*
X109150490Y-94532095D02*
X109174300Y-94508285D01*
X109174300Y-94508285D02*
X109198109Y-94460666D01*
X109198109Y-94460666D02*
X109198109Y-94365428D01*
X109198109Y-94365428D02*
X109174300Y-94317809D01*
X109174300Y-94317809D02*
X109150490Y-94294000D01*
X109150490Y-94294000D02*
X109102871Y-94270190D01*
X109102871Y-94270190D02*
X108983823Y-94270190D01*
X108983823Y-94270190D02*
X108936204Y-94294000D01*
X108936204Y-94294000D02*
X108912395Y-94317809D01*
X108912395Y-94317809D02*
X108888585Y-94365428D01*
X108888585Y-94365428D02*
X108888585Y-94460666D01*
X108888585Y-94460666D02*
X108912395Y-94508285D01*
X108912395Y-94508285D02*
X108936204Y-94532095D01*
X108936204Y-94532095D02*
X108983823Y-94555904D01*
X108912395Y-93984476D02*
X108888585Y-94032095D01*
X108888585Y-94032095D02*
X108864776Y-94055905D01*
X108864776Y-94055905D02*
X108817157Y-94079714D01*
X108817157Y-94079714D02*
X108793347Y-94079714D01*
X108793347Y-94079714D02*
X108745728Y-94055905D01*
X108745728Y-94055905D02*
X108721919Y-94032095D01*
X108721919Y-94032095D02*
X108698109Y-93984476D01*
X108698109Y-93984476D02*
X108698109Y-93889238D01*
X108698109Y-93889238D02*
X108721919Y-93841619D01*
X108721919Y-93841619D02*
X108745728Y-93817810D01*
X108745728Y-93817810D02*
X108793347Y-93794000D01*
X108793347Y-93794000D02*
X108817157Y-93794000D01*
X108817157Y-93794000D02*
X108864776Y-93817810D01*
X108864776Y-93817810D02*
X108888585Y-93841619D01*
X108888585Y-93841619D02*
X108912395Y-93889238D01*
X108912395Y-93889238D02*
X108912395Y-93984476D01*
X108912395Y-93984476D02*
X108936204Y-94032095D01*
X108936204Y-94032095D02*
X108960014Y-94055905D01*
X108960014Y-94055905D02*
X109007633Y-94079714D01*
X109007633Y-94079714D02*
X109102871Y-94079714D01*
X109102871Y-94079714D02*
X109150490Y-94055905D01*
X109150490Y-94055905D02*
X109174300Y-94032095D01*
X109174300Y-94032095D02*
X109198109Y-93984476D01*
X109198109Y-93984476D02*
X109198109Y-93889238D01*
X109198109Y-93889238D02*
X109174300Y-93841619D01*
X109174300Y-93841619D02*
X109150490Y-93817810D01*
X109150490Y-93817810D02*
X109102871Y-93794000D01*
X109102871Y-93794000D02*
X109007633Y-93794000D01*
X109007633Y-93794000D02*
X108960014Y-93817810D01*
X108960014Y-93817810D02*
X108936204Y-93841619D01*
X108936204Y-93841619D02*
X108912395Y-93889238D01*
X109198109Y-93579715D02*
X108698109Y-93579715D01*
X109198109Y-93294001D02*
X108912395Y-93508286D01*
X108698109Y-93294001D02*
X108983823Y-93579715D01*
X109198109Y-93079715D02*
X108698109Y-93079715D01*
X108936204Y-93079715D02*
X108936204Y-92794001D01*
X109198109Y-92794001D02*
X108698109Y-92794001D01*
X108864776Y-92603524D02*
X108864776Y-92341619D01*
X108864776Y-92341619D02*
X109198109Y-92603524D01*
X109198109Y-92603524D02*
X109198109Y-92341619D01*
X139992333Y-77408633D02*
X139992333Y-76708633D01*
X139992333Y-76708633D02*
X140159000Y-76708633D01*
X140159000Y-76708633D02*
X140259000Y-76741966D01*
X140259000Y-76741966D02*
X140325667Y-76808633D01*
X140325667Y-76808633D02*
X140359000Y-76875300D01*
X140359000Y-76875300D02*
X140392333Y-77008633D01*
X140392333Y-77008633D02*
X140392333Y-77108633D01*
X140392333Y-77108633D02*
X140359000Y-77241966D01*
X140359000Y-77241966D02*
X140325667Y-77308633D01*
X140325667Y-77308633D02*
X140259000Y-77375300D01*
X140259000Y-77375300D02*
X140159000Y-77408633D01*
X140159000Y-77408633D02*
X139992333Y-77408633D01*
X141059000Y-77408633D02*
X140659000Y-77408633D01*
X140859000Y-77408633D02*
X140859000Y-76708633D01*
X140859000Y-76708633D02*
X140792333Y-76808633D01*
X140792333Y-76808633D02*
X140725667Y-76875300D01*
X140725667Y-76875300D02*
X140659000Y-76908633D01*
X140078571Y-80426109D02*
X139840476Y-80426109D01*
X139840476Y-80426109D02*
X139840476Y-79926109D01*
X140245238Y-80164204D02*
X140411905Y-80164204D01*
X140483333Y-80426109D02*
X140245238Y-80426109D01*
X140245238Y-80426109D02*
X140245238Y-79926109D01*
X140245238Y-79926109D02*
X140483333Y-79926109D01*
X140697619Y-80426109D02*
X140697619Y-79926109D01*
X140697619Y-79926109D02*
X140816667Y-79926109D01*
X140816667Y-79926109D02*
X140888095Y-79949919D01*
X140888095Y-79949919D02*
X140935714Y-79997538D01*
X140935714Y-79997538D02*
X140959524Y-80045157D01*
X140959524Y-80045157D02*
X140983333Y-80140395D01*
X140983333Y-80140395D02*
X140983333Y-80211823D01*
X140983333Y-80211823D02*
X140959524Y-80307061D01*
X140959524Y-80307061D02*
X140935714Y-80354680D01*
X140935714Y-80354680D02*
X140888095Y-80402300D01*
X140888095Y-80402300D02*
X140816667Y-80426109D01*
X140816667Y-80426109D02*
X140697619Y-80426109D01*
X115766666Y-77018633D02*
X115766666Y-77585300D01*
X115766666Y-77585300D02*
X115800000Y-77651966D01*
X115800000Y-77651966D02*
X115833333Y-77685300D01*
X115833333Y-77685300D02*
X115900000Y-77718633D01*
X115900000Y-77718633D02*
X116033333Y-77718633D01*
X116033333Y-77718633D02*
X116100000Y-77685300D01*
X116100000Y-77685300D02*
X116133333Y-77651966D01*
X116133333Y-77651966D02*
X116166666Y-77585300D01*
X116166666Y-77585300D02*
X116166666Y-77018633D01*
X116466666Y-77085300D02*
X116499999Y-77051966D01*
X116499999Y-77051966D02*
X116566666Y-77018633D01*
X116566666Y-77018633D02*
X116733333Y-77018633D01*
X116733333Y-77018633D02*
X116799999Y-77051966D01*
X116799999Y-77051966D02*
X116833333Y-77085300D01*
X116833333Y-77085300D02*
X116866666Y-77151966D01*
X116866666Y-77151966D02*
X116866666Y-77218633D01*
X116866666Y-77218633D02*
X116833333Y-77318633D01*
X116833333Y-77318633D02*
X116433333Y-77718633D01*
X116433333Y-77718633D02*
X116866666Y-77718633D01*
X110214287Y-77173728D02*
X110238096Y-77149919D01*
X110238096Y-77149919D02*
X110285715Y-77126109D01*
X110285715Y-77126109D02*
X110404763Y-77126109D01*
X110404763Y-77126109D02*
X110452382Y-77149919D01*
X110452382Y-77149919D02*
X110476191Y-77173728D01*
X110476191Y-77173728D02*
X110500001Y-77221347D01*
X110500001Y-77221347D02*
X110500001Y-77268966D01*
X110500001Y-77268966D02*
X110476191Y-77340395D01*
X110476191Y-77340395D02*
X110190477Y-77626109D01*
X110190477Y-77626109D02*
X110500001Y-77626109D01*
X110928572Y-77292776D02*
X110928572Y-77626109D01*
X110809524Y-77102300D02*
X110690477Y-77459442D01*
X110690477Y-77459442D02*
X111000000Y-77459442D01*
X111428571Y-77626109D02*
X111190476Y-77626109D01*
X111190476Y-77626109D02*
X111190476Y-77126109D01*
X111880952Y-77578490D02*
X111857143Y-77602300D01*
X111857143Y-77602300D02*
X111785714Y-77626109D01*
X111785714Y-77626109D02*
X111738095Y-77626109D01*
X111738095Y-77626109D02*
X111666667Y-77602300D01*
X111666667Y-77602300D02*
X111619048Y-77554680D01*
X111619048Y-77554680D02*
X111595238Y-77507061D01*
X111595238Y-77507061D02*
X111571429Y-77411823D01*
X111571429Y-77411823D02*
X111571429Y-77340395D01*
X111571429Y-77340395D02*
X111595238Y-77245157D01*
X111595238Y-77245157D02*
X111619048Y-77197538D01*
X111619048Y-77197538D02*
X111666667Y-77149919D01*
X111666667Y-77149919D02*
X111738095Y-77126109D01*
X111738095Y-77126109D02*
X111785714Y-77126109D01*
X111785714Y-77126109D02*
X111857143Y-77149919D01*
X111857143Y-77149919D02*
X111880952Y-77173728D01*
X112357143Y-77626109D02*
X112071429Y-77626109D01*
X112214286Y-77626109D02*
X112214286Y-77126109D01*
X112214286Y-77126109D02*
X112166667Y-77197538D01*
X112166667Y-77197538D02*
X112119048Y-77245157D01*
X112119048Y-77245157D02*
X112071429Y-77268966D01*
X112666666Y-77126109D02*
X112714285Y-77126109D01*
X112714285Y-77126109D02*
X112761904Y-77149919D01*
X112761904Y-77149919D02*
X112785714Y-77173728D01*
X112785714Y-77173728D02*
X112809523Y-77221347D01*
X112809523Y-77221347D02*
X112833333Y-77316585D01*
X112833333Y-77316585D02*
X112833333Y-77435633D01*
X112833333Y-77435633D02*
X112809523Y-77530871D01*
X112809523Y-77530871D02*
X112785714Y-77578490D01*
X112785714Y-77578490D02*
X112761904Y-77602300D01*
X112761904Y-77602300D02*
X112714285Y-77626109D01*
X112714285Y-77626109D02*
X112666666Y-77626109D01*
X112666666Y-77626109D02*
X112619047Y-77602300D01*
X112619047Y-77602300D02*
X112595238Y-77578490D01*
X112595238Y-77578490D02*
X112571428Y-77530871D01*
X112571428Y-77530871D02*
X112547619Y-77435633D01*
X112547619Y-77435633D02*
X112547619Y-77316585D01*
X112547619Y-77316585D02*
X112571428Y-77221347D01*
X112571428Y-77221347D02*
X112595238Y-77173728D01*
X112595238Y-77173728D02*
X112619047Y-77149919D01*
X112619047Y-77149919D02*
X112666666Y-77126109D01*
X113023809Y-77173728D02*
X113047618Y-77149919D01*
X113047618Y-77149919D02*
X113095237Y-77126109D01*
X113095237Y-77126109D02*
X113214285Y-77126109D01*
X113214285Y-77126109D02*
X113261904Y-77149919D01*
X113261904Y-77149919D02*
X113285713Y-77173728D01*
X113285713Y-77173728D02*
X113309523Y-77221347D01*
X113309523Y-77221347D02*
X113309523Y-77268966D01*
X113309523Y-77268966D02*
X113285713Y-77340395D01*
X113285713Y-77340395D02*
X112999999Y-77626109D01*
X112999999Y-77626109D02*
X113309523Y-77626109D01*
X113761903Y-77126109D02*
X113523808Y-77126109D01*
X113523808Y-77126109D02*
X113499999Y-77364204D01*
X113499999Y-77364204D02*
X113523808Y-77340395D01*
X113523808Y-77340395D02*
X113571427Y-77316585D01*
X113571427Y-77316585D02*
X113690475Y-77316585D01*
X113690475Y-77316585D02*
X113738094Y-77340395D01*
X113738094Y-77340395D02*
X113761903Y-77364204D01*
X113761903Y-77364204D02*
X113785713Y-77411823D01*
X113785713Y-77411823D02*
X113785713Y-77530871D01*
X113785713Y-77530871D02*
X113761903Y-77578490D01*
X113761903Y-77578490D02*
X113738094Y-77602300D01*
X113738094Y-77602300D02*
X113690475Y-77626109D01*
X113690475Y-77626109D02*
X113571427Y-77626109D01*
X113571427Y-77626109D02*
X113523808Y-77602300D01*
X113523808Y-77602300D02*
X113499999Y-77578490D01*
X134983333Y-94751966D02*
X134950000Y-94785300D01*
X134950000Y-94785300D02*
X134850000Y-94818633D01*
X134850000Y-94818633D02*
X134783333Y-94818633D01*
X134783333Y-94818633D02*
X134683333Y-94785300D01*
X134683333Y-94785300D02*
X134616667Y-94718633D01*
X134616667Y-94718633D02*
X134583333Y-94651966D01*
X134583333Y-94651966D02*
X134550000Y-94518633D01*
X134550000Y-94518633D02*
X134550000Y-94418633D01*
X134550000Y-94418633D02*
X134583333Y-94285300D01*
X134583333Y-94285300D02*
X134616667Y-94218633D01*
X134616667Y-94218633D02*
X134683333Y-94151966D01*
X134683333Y-94151966D02*
X134783333Y-94118633D01*
X134783333Y-94118633D02*
X134850000Y-94118633D01*
X134850000Y-94118633D02*
X134950000Y-94151966D01*
X134950000Y-94151966D02*
X134983333Y-94185300D01*
X135216667Y-94118633D02*
X135650000Y-94118633D01*
X135650000Y-94118633D02*
X135416667Y-94385300D01*
X135416667Y-94385300D02*
X135516667Y-94385300D01*
X135516667Y-94385300D02*
X135583333Y-94418633D01*
X135583333Y-94418633D02*
X135616667Y-94451966D01*
X135616667Y-94451966D02*
X135650000Y-94518633D01*
X135650000Y-94518633D02*
X135650000Y-94685300D01*
X135650000Y-94685300D02*
X135616667Y-94751966D01*
X135616667Y-94751966D02*
X135583333Y-94785300D01*
X135583333Y-94785300D02*
X135516667Y-94818633D01*
X135516667Y-94818633D02*
X135316667Y-94818633D01*
X135316667Y-94818633D02*
X135250000Y-94785300D01*
X135250000Y-94785300D02*
X135216667Y-94751966D01*
X136578572Y-94273728D02*
X136602381Y-94249919D01*
X136602381Y-94249919D02*
X136650000Y-94226109D01*
X136650000Y-94226109D02*
X136769048Y-94226109D01*
X136769048Y-94226109D02*
X136816667Y-94249919D01*
X136816667Y-94249919D02*
X136840476Y-94273728D01*
X136840476Y-94273728D02*
X136864286Y-94321347D01*
X136864286Y-94321347D02*
X136864286Y-94368966D01*
X136864286Y-94368966D02*
X136840476Y-94440395D01*
X136840476Y-94440395D02*
X136554762Y-94726109D01*
X136554762Y-94726109D02*
X136864286Y-94726109D01*
X137054762Y-94273728D02*
X137078571Y-94249919D01*
X137078571Y-94249919D02*
X137126190Y-94226109D01*
X137126190Y-94226109D02*
X137245238Y-94226109D01*
X137245238Y-94226109D02*
X137292857Y-94249919D01*
X137292857Y-94249919D02*
X137316666Y-94273728D01*
X137316666Y-94273728D02*
X137340476Y-94321347D01*
X137340476Y-94321347D02*
X137340476Y-94368966D01*
X137340476Y-94368966D02*
X137316666Y-94440395D01*
X137316666Y-94440395D02*
X137030952Y-94726109D01*
X137030952Y-94726109D02*
X137340476Y-94726109D01*
X137554761Y-94392776D02*
X137554761Y-94892776D01*
X137554761Y-94416585D02*
X137602380Y-94392776D01*
X137602380Y-94392776D02*
X137697618Y-94392776D01*
X137697618Y-94392776D02*
X137745237Y-94416585D01*
X137745237Y-94416585D02*
X137769047Y-94440395D01*
X137769047Y-94440395D02*
X137792856Y-94488014D01*
X137792856Y-94488014D02*
X137792856Y-94630871D01*
X137792856Y-94630871D02*
X137769047Y-94678490D01*
X137769047Y-94678490D02*
X137745237Y-94702300D01*
X137745237Y-94702300D02*
X137697618Y-94726109D01*
X137697618Y-94726109D02*
X137602380Y-94726109D01*
X137602380Y-94726109D02*
X137554761Y-94702300D01*
X138173809Y-94464204D02*
X138007142Y-94464204D01*
X138007142Y-94726109D02*
X138007142Y-94226109D01*
X138007142Y-94226109D02*
X138245237Y-94226109D01*
X131013333Y-77311966D02*
X130980000Y-77345300D01*
X130980000Y-77345300D02*
X130880000Y-77378633D01*
X130880000Y-77378633D02*
X130813333Y-77378633D01*
X130813333Y-77378633D02*
X130713333Y-77345300D01*
X130713333Y-77345300D02*
X130646667Y-77278633D01*
X130646667Y-77278633D02*
X130613333Y-77211966D01*
X130613333Y-77211966D02*
X130580000Y-77078633D01*
X130580000Y-77078633D02*
X130580000Y-76978633D01*
X130580000Y-76978633D02*
X130613333Y-76845300D01*
X130613333Y-76845300D02*
X130646667Y-76778633D01*
X130646667Y-76778633D02*
X130713333Y-76711966D01*
X130713333Y-76711966D02*
X130813333Y-76678633D01*
X130813333Y-76678633D02*
X130880000Y-76678633D01*
X130880000Y-76678633D02*
X130980000Y-76711966D01*
X130980000Y-76711966D02*
X131013333Y-76745300D01*
X131646667Y-76678633D02*
X131313333Y-76678633D01*
X131313333Y-76678633D02*
X131280000Y-77011966D01*
X131280000Y-77011966D02*
X131313333Y-76978633D01*
X131313333Y-76978633D02*
X131380000Y-76945300D01*
X131380000Y-76945300D02*
X131546667Y-76945300D01*
X131546667Y-76945300D02*
X131613333Y-76978633D01*
X131613333Y-76978633D02*
X131646667Y-77011966D01*
X131646667Y-77011966D02*
X131680000Y-77078633D01*
X131680000Y-77078633D02*
X131680000Y-77245300D01*
X131680000Y-77245300D02*
X131646667Y-77311966D01*
X131646667Y-77311966D02*
X131613333Y-77345300D01*
X131613333Y-77345300D02*
X131546667Y-77378633D01*
X131546667Y-77378633D02*
X131380000Y-77378633D01*
X131380000Y-77378633D02*
X131313333Y-77345300D01*
X131313333Y-77345300D02*
X131280000Y-77311966D01*
X130356191Y-80646109D02*
X130070477Y-80646109D01*
X130213334Y-80646109D02*
X130213334Y-80146109D01*
X130213334Y-80146109D02*
X130165715Y-80217538D01*
X130165715Y-80217538D02*
X130118096Y-80265157D01*
X130118096Y-80265157D02*
X130070477Y-80288966D01*
X130665714Y-80146109D02*
X130713333Y-80146109D01*
X130713333Y-80146109D02*
X130760952Y-80169919D01*
X130760952Y-80169919D02*
X130784762Y-80193728D01*
X130784762Y-80193728D02*
X130808571Y-80241347D01*
X130808571Y-80241347D02*
X130832381Y-80336585D01*
X130832381Y-80336585D02*
X130832381Y-80455633D01*
X130832381Y-80455633D02*
X130808571Y-80550871D01*
X130808571Y-80550871D02*
X130784762Y-80598490D01*
X130784762Y-80598490D02*
X130760952Y-80622300D01*
X130760952Y-80622300D02*
X130713333Y-80646109D01*
X130713333Y-80646109D02*
X130665714Y-80646109D01*
X130665714Y-80646109D02*
X130618095Y-80622300D01*
X130618095Y-80622300D02*
X130594286Y-80598490D01*
X130594286Y-80598490D02*
X130570476Y-80550871D01*
X130570476Y-80550871D02*
X130546667Y-80455633D01*
X130546667Y-80455633D02*
X130546667Y-80336585D01*
X130546667Y-80336585D02*
X130570476Y-80241347D01*
X130570476Y-80241347D02*
X130594286Y-80193728D01*
X130594286Y-80193728D02*
X130618095Y-80169919D01*
X130618095Y-80169919D02*
X130665714Y-80146109D01*
X131141904Y-80146109D02*
X131189523Y-80146109D01*
X131189523Y-80146109D02*
X131237142Y-80169919D01*
X131237142Y-80169919D02*
X131260952Y-80193728D01*
X131260952Y-80193728D02*
X131284761Y-80241347D01*
X131284761Y-80241347D02*
X131308571Y-80336585D01*
X131308571Y-80336585D02*
X131308571Y-80455633D01*
X131308571Y-80455633D02*
X131284761Y-80550871D01*
X131284761Y-80550871D02*
X131260952Y-80598490D01*
X131260952Y-80598490D02*
X131237142Y-80622300D01*
X131237142Y-80622300D02*
X131189523Y-80646109D01*
X131189523Y-80646109D02*
X131141904Y-80646109D01*
X131141904Y-80646109D02*
X131094285Y-80622300D01*
X131094285Y-80622300D02*
X131070476Y-80598490D01*
X131070476Y-80598490D02*
X131046666Y-80550871D01*
X131046666Y-80550871D02*
X131022857Y-80455633D01*
X131022857Y-80455633D02*
X131022857Y-80336585D01*
X131022857Y-80336585D02*
X131046666Y-80241347D01*
X131046666Y-80241347D02*
X131070476Y-80193728D01*
X131070476Y-80193728D02*
X131094285Y-80169919D01*
X131094285Y-80169919D02*
X131141904Y-80146109D01*
X131522856Y-80312776D02*
X131522856Y-80646109D01*
X131522856Y-80360395D02*
X131546666Y-80336585D01*
X131546666Y-80336585D02*
X131594285Y-80312776D01*
X131594285Y-80312776D02*
X131665713Y-80312776D01*
X131665713Y-80312776D02*
X131713332Y-80336585D01*
X131713332Y-80336585D02*
X131737142Y-80384204D01*
X131737142Y-80384204D02*
X131737142Y-80646109D01*
X132141904Y-80384204D02*
X131975237Y-80384204D01*
X131975237Y-80646109D02*
X131975237Y-80146109D01*
X131975237Y-80146109D02*
X132213332Y-80146109D01*
X134683333Y-83918633D02*
X134450000Y-83585300D01*
X134283333Y-83918633D02*
X134283333Y-83218633D01*
X134283333Y-83218633D02*
X134550000Y-83218633D01*
X134550000Y-83218633D02*
X134616667Y-83251966D01*
X134616667Y-83251966D02*
X134650000Y-83285300D01*
X134650000Y-83285300D02*
X134683333Y-83351966D01*
X134683333Y-83351966D02*
X134683333Y-83451966D01*
X134683333Y-83451966D02*
X134650000Y-83518633D01*
X134650000Y-83518633D02*
X134616667Y-83551966D01*
X134616667Y-83551966D02*
X134550000Y-83585300D01*
X134550000Y-83585300D02*
X134283333Y-83585300D01*
X135350000Y-83918633D02*
X134950000Y-83918633D01*
X135150000Y-83918633D02*
X135150000Y-83218633D01*
X135150000Y-83218633D02*
X135083333Y-83318633D01*
X135083333Y-83318633D02*
X135016667Y-83385300D01*
X135016667Y-83385300D02*
X134950000Y-83418633D01*
X136057143Y-83326109D02*
X136366667Y-83326109D01*
X136366667Y-83326109D02*
X136200000Y-83516585D01*
X136200000Y-83516585D02*
X136271429Y-83516585D01*
X136271429Y-83516585D02*
X136319048Y-83540395D01*
X136319048Y-83540395D02*
X136342857Y-83564204D01*
X136342857Y-83564204D02*
X136366667Y-83611823D01*
X136366667Y-83611823D02*
X136366667Y-83730871D01*
X136366667Y-83730871D02*
X136342857Y-83778490D01*
X136342857Y-83778490D02*
X136319048Y-83802300D01*
X136319048Y-83802300D02*
X136271429Y-83826109D01*
X136271429Y-83826109D02*
X136128572Y-83826109D01*
X136128572Y-83826109D02*
X136080953Y-83802300D01*
X136080953Y-83802300D02*
X136057143Y-83778490D01*
X136533333Y-83326109D02*
X136842857Y-83326109D01*
X136842857Y-83326109D02*
X136676190Y-83516585D01*
X136676190Y-83516585D02*
X136747619Y-83516585D01*
X136747619Y-83516585D02*
X136795238Y-83540395D01*
X136795238Y-83540395D02*
X136819047Y-83564204D01*
X136819047Y-83564204D02*
X136842857Y-83611823D01*
X136842857Y-83611823D02*
X136842857Y-83730871D01*
X136842857Y-83730871D02*
X136819047Y-83778490D01*
X136819047Y-83778490D02*
X136795238Y-83802300D01*
X136795238Y-83802300D02*
X136747619Y-83826109D01*
X136747619Y-83826109D02*
X136604762Y-83826109D01*
X136604762Y-83826109D02*
X136557143Y-83802300D01*
X136557143Y-83802300D02*
X136533333Y-83778490D01*
X137152380Y-83326109D02*
X137199999Y-83326109D01*
X137199999Y-83326109D02*
X137247618Y-83349919D01*
X137247618Y-83349919D02*
X137271428Y-83373728D01*
X137271428Y-83373728D02*
X137295237Y-83421347D01*
X137295237Y-83421347D02*
X137319047Y-83516585D01*
X137319047Y-83516585D02*
X137319047Y-83635633D01*
X137319047Y-83635633D02*
X137295237Y-83730871D01*
X137295237Y-83730871D02*
X137271428Y-83778490D01*
X137271428Y-83778490D02*
X137247618Y-83802300D01*
X137247618Y-83802300D02*
X137199999Y-83826109D01*
X137199999Y-83826109D02*
X137152380Y-83826109D01*
X137152380Y-83826109D02*
X137104761Y-83802300D01*
X137104761Y-83802300D02*
X137080952Y-83778490D01*
X137080952Y-83778490D02*
X137057142Y-83730871D01*
X137057142Y-83730871D02*
X137033333Y-83635633D01*
X137033333Y-83635633D02*
X137033333Y-83516585D01*
X137033333Y-83516585D02*
X137057142Y-83421347D01*
X137057142Y-83421347D02*
X137080952Y-83373728D01*
X137080952Y-83373728D02*
X137104761Y-83349919D01*
X137104761Y-83349919D02*
X137152380Y-83326109D01*
X135341833Y-77408633D02*
X135341833Y-76708633D01*
X135341833Y-76708633D02*
X135508500Y-76708633D01*
X135508500Y-76708633D02*
X135608500Y-76741966D01*
X135608500Y-76741966D02*
X135675167Y-76808633D01*
X135675167Y-76808633D02*
X135708500Y-76875300D01*
X135708500Y-76875300D02*
X135741833Y-77008633D01*
X135741833Y-77008633D02*
X135741833Y-77108633D01*
X135741833Y-77108633D02*
X135708500Y-77241966D01*
X135708500Y-77241966D02*
X135675167Y-77308633D01*
X135675167Y-77308633D02*
X135608500Y-77375300D01*
X135608500Y-77375300D02*
X135508500Y-77408633D01*
X135508500Y-77408633D02*
X135341833Y-77408633D01*
X136008500Y-76775300D02*
X136041833Y-76741966D01*
X136041833Y-76741966D02*
X136108500Y-76708633D01*
X136108500Y-76708633D02*
X136275167Y-76708633D01*
X136275167Y-76708633D02*
X136341833Y-76741966D01*
X136341833Y-76741966D02*
X136375167Y-76775300D01*
X136375167Y-76775300D02*
X136408500Y-76841966D01*
X136408500Y-76841966D02*
X136408500Y-76908633D01*
X136408500Y-76908633D02*
X136375167Y-77008633D01*
X136375167Y-77008633D02*
X135975167Y-77408633D01*
X135975167Y-77408633D02*
X136408500Y-77408633D01*
X135478571Y-80526109D02*
X135240476Y-80526109D01*
X135240476Y-80526109D02*
X135240476Y-80026109D01*
X135645238Y-80264204D02*
X135811905Y-80264204D01*
X135883333Y-80526109D02*
X135645238Y-80526109D01*
X135645238Y-80526109D02*
X135645238Y-80026109D01*
X135645238Y-80026109D02*
X135883333Y-80026109D01*
X136097619Y-80526109D02*
X136097619Y-80026109D01*
X136097619Y-80026109D02*
X136216667Y-80026109D01*
X136216667Y-80026109D02*
X136288095Y-80049919D01*
X136288095Y-80049919D02*
X136335714Y-80097538D01*
X136335714Y-80097538D02*
X136359524Y-80145157D01*
X136359524Y-80145157D02*
X136383333Y-80240395D01*
X136383333Y-80240395D02*
X136383333Y-80311823D01*
X136383333Y-80311823D02*
X136359524Y-80407061D01*
X136359524Y-80407061D02*
X136335714Y-80454680D01*
X136335714Y-80454680D02*
X136288095Y-80502300D01*
X136288095Y-80502300D02*
X136216667Y-80526109D01*
X136216667Y-80526109D02*
X136097619Y-80526109D01*
D11*
%TO.C,U1*%
X110458000Y-84632000D02*
X110218000Y-84302000D01*
X110698000Y-84302000D01*
X110458000Y-84632000D01*
G36*
X110458000Y-84632000D02*
G01*
X110218000Y-84302000D01*
X110698000Y-84302000D01*
X110458000Y-84632000D01*
G37*
X116743000Y-89882000D02*
X116743000Y-89612000D01*
X116743000Y-84362000D02*
X116743000Y-84632000D01*
X113983000Y-89882000D02*
X116743000Y-89882000D01*
X113983000Y-89882000D02*
X111223000Y-89882000D01*
X113983000Y-84362000D02*
X116743000Y-84362000D01*
X113983000Y-84362000D02*
X111223000Y-84362000D01*
X111223000Y-89882000D02*
X111223000Y-89612000D01*
X111223000Y-84362000D02*
X111223000Y-84632000D01*
%TO.C,C1*%
X136264252Y-96293000D02*
X135741748Y-96293000D01*
X136264252Y-97763000D02*
X135741748Y-97763000D01*
%TO.C,J1*%
X148734000Y-90822000D02*
X150114000Y-90822000D01*
X148734000Y-92202000D02*
X148734000Y-90822000D01*
X148734000Y-93472000D02*
X148734000Y-101202000D01*
X148734000Y-93472000D02*
X151494000Y-93472000D01*
X148734000Y-101202000D02*
X151494000Y-101202000D01*
X151494000Y-93472000D02*
X151494000Y-101202000D01*
%TO.C,BT1*%
X104792000Y-82694000D02*
X106172000Y-82694000D01*
X104792000Y-84074000D02*
X104792000Y-82694000D01*
X104792000Y-85344000D02*
X104792000Y-87994000D01*
X104792000Y-85344000D02*
X107552000Y-85344000D01*
X104792000Y-87994000D02*
X107552000Y-87994000D01*
X107552000Y-85344000D02*
X107552000Y-87994000D01*
%TO.C,R5*%
X140385436Y-85117000D02*
X140839564Y-85117000D01*
X140385436Y-86587000D02*
X140839564Y-86587000D01*
D12*
%TO.C,U4*%
X123500000Y-85294000D02*
X123500000Y-85399000D01*
X123500000Y-85294000D02*
X123605000Y-85294000D01*
X123500000Y-92294000D02*
X123500000Y-92189000D01*
X123500000Y-92294000D02*
X123605000Y-92294000D01*
X130500000Y-85294000D02*
X130395000Y-85294000D01*
X130500000Y-85294000D02*
X130500000Y-85399000D01*
X130500000Y-92294000D02*
X130395000Y-92294000D01*
X130500000Y-92294000D02*
X130500000Y-92189000D01*
D13*
X121260000Y-85994000D02*
G75*
G02*
X121060000Y-85994000I-100000J0D01*
G01*
X121060000Y-85994000D02*
G75*
G02*
X121260000Y-85994000I100000J0D01*
G01*
D11*
%TO.C,C2*%
X126484748Y-78005000D02*
X127007252Y-78005000D01*
X126484748Y-79475000D02*
X127007252Y-79475000D01*
%TO.C,R3*%
X111636436Y-99849000D02*
X112090564Y-99849000D01*
X111636436Y-101319000D02*
X112090564Y-101319000D01*
D12*
%TO.C,U3*%
X112014500Y-92603000D02*
X116014500Y-92603000D01*
X112014500Y-97643000D02*
X116014500Y-97643000D01*
D13*
X109669500Y-92628000D02*
G75*
G02*
X109469500Y-92628000I-100000J0D01*
G01*
X109469500Y-92628000D02*
G75*
G02*
X109669500Y-92628000I100000J0D01*
G01*
D11*
%TO.C,J3*%
X107078000Y-105774000D02*
X107078000Y-104394000D01*
X108458000Y-105774000D02*
X107078000Y-105774000D01*
X109728000Y-103014000D02*
X130158000Y-103014000D01*
X109728000Y-105774000D02*
X109728000Y-103014000D01*
X109728000Y-105774000D02*
X130158000Y-105774000D01*
X130158000Y-105774000D02*
X130158000Y-103014000D01*
%TO.C,J5*%
X146194000Y-81932000D02*
X147574000Y-81932000D01*
X146194000Y-83312000D02*
X146194000Y-81932000D01*
X146194000Y-84582000D02*
X146194000Y-89772000D01*
X146194000Y-84582000D02*
X148844000Y-84582000D01*
X146194000Y-89772000D02*
X151494000Y-89772000D01*
X148844000Y-81932000D02*
X151494000Y-81932000D01*
X148844000Y-84582000D02*
X148844000Y-81932000D01*
X151494000Y-81932000D02*
X151494000Y-89772000D01*
%TO.C,R2*%
X140385436Y-81561000D02*
X140839564Y-81561000D01*
X140385436Y-83031000D02*
X140839564Y-83031000D01*
%TO.C,J2*%
X133240000Y-105774000D02*
X133240000Y-104394000D01*
X134620000Y-105774000D02*
X133240000Y-105774000D01*
X135890000Y-103014000D02*
X143620000Y-103014000D01*
X135890000Y-105774000D02*
X135890000Y-103014000D01*
X135890000Y-105774000D02*
X143620000Y-105774000D01*
X143620000Y-105774000D02*
X143620000Y-103014000D01*
%TO.C,R4*%
X116408564Y-99849000D02*
X115954436Y-99849000D01*
X116408564Y-101319000D02*
X115954436Y-101319000D01*
%TO.C,C4*%
X122166748Y-78005000D02*
X122689252Y-78005000D01*
X122166748Y-79475000D02*
X122689252Y-79475000D01*
%TO.C,R7*%
X136267564Y-85117000D02*
X135813436Y-85117000D01*
X136267564Y-86587000D02*
X135813436Y-86587000D01*
%TO.C,R6*%
X136267564Y-88673000D02*
X135813436Y-88673000D01*
X136267564Y-90143000D02*
X135813436Y-90143000D01*
%TO.C,Y2*%
X124300000Y-98976000D02*
X131550000Y-98976000D01*
X131550000Y-95376000D02*
X124300000Y-95376000D01*
X131550000Y-98976000D02*
X131550000Y-95376000D01*
%TO.C,Y1*%
X104372000Y-91594000D02*
X104372000Y-98844000D01*
X104372000Y-98844000D02*
X107972000Y-98844000D01*
X107972000Y-98844000D02*
X107972000Y-91594000D01*
%TO.C,D1*%
X138824000Y-77780000D02*
X138824000Y-79700000D01*
X138824000Y-79700000D02*
X141509000Y-79700000D01*
X141509000Y-77780000D02*
X138824000Y-77780000D01*
%TO.C,U2*%
X111254500Y-77885000D02*
X111254500Y-78155000D01*
X111254500Y-83405000D02*
X111254500Y-83135000D01*
X114014500Y-77885000D02*
X111254500Y-77885000D01*
X114014500Y-77885000D02*
X116774500Y-77885000D01*
X114014500Y-83405000D02*
X111254500Y-83405000D01*
X114014500Y-83405000D02*
X116774500Y-83405000D01*
X116774500Y-77885000D02*
X116774500Y-78155000D01*
X116774500Y-83405000D02*
X116774500Y-83135000D01*
X110489500Y-78155000D02*
X110249500Y-77825000D01*
X110729500Y-77825000D01*
X110489500Y-78155000D01*
G36*
X110489500Y-78155000D02*
G01*
X110249500Y-77825000D01*
X110729500Y-77825000D01*
X110489500Y-78155000D01*
G37*
%TO.C,C3*%
X136264252Y-92483000D02*
X135741748Y-92483000D01*
X136264252Y-93953000D02*
X135741748Y-93953000D01*
%TO.C,C5*%
X130868748Y-78005000D02*
X131391252Y-78005000D01*
X130868748Y-79475000D02*
X131391252Y-79475000D01*
%TO.C,R1*%
X136060564Y-81561000D02*
X135606436Y-81561000D01*
X136060564Y-83031000D02*
X135606436Y-83031000D01*
%TO.C,D2*%
X134173500Y-77780000D02*
X134173500Y-79700000D01*
X134173500Y-79700000D02*
X136858500Y-79700000D01*
X136858500Y-77780000D02*
X134173500Y-77780000D01*
%TD*%
M02*
