%TF.GenerationSoftware,KiCad,Pcbnew,9.0.1*%
%TF.CreationDate,2025-12-21T14:26:40+05:30*%
%TF.ProjectId,MCU_Datalogger,4d43555f-4461-4746-916c-6f676765722e,rev?*%
%TF.SameCoordinates,Original*%
%TF.FileFunction,Legend,Bot*%
%TF.FilePolarity,Positive*%
%FSLAX46Y46*%
G04 Gerber Fmt 4.6, Leading zero omitted, Abs format (unit mm)*
G04 Created by KiCad (PCBNEW 9.0.1) date 2025-12-21 14:26:40*
%MOMM*%
%LPD*%
G01*
G04 APERTURE LIST*
%ADD10C,0.150000*%
%ADD11C,0.010000*%
G04 APERTURE END LIST*
D10*
X141863220Y-79069819D02*
X141863220Y-78069819D01*
X141863220Y-78069819D02*
X141625125Y-78069819D01*
X141625125Y-78069819D02*
X141482268Y-78117438D01*
X141482268Y-78117438D02*
X141387030Y-78212676D01*
X141387030Y-78212676D02*
X141339411Y-78307914D01*
X141339411Y-78307914D02*
X141291792Y-78498390D01*
X141291792Y-78498390D02*
X141291792Y-78641247D01*
X141291792Y-78641247D02*
X141339411Y-78831723D01*
X141339411Y-78831723D02*
X141387030Y-78926961D01*
X141387030Y-78926961D02*
X141482268Y-79022200D01*
X141482268Y-79022200D02*
X141625125Y-79069819D01*
X141625125Y-79069819D02*
X141863220Y-79069819D01*
X140434649Y-79069819D02*
X140434649Y-78546009D01*
X140434649Y-78546009D02*
X140482268Y-78450771D01*
X140482268Y-78450771D02*
X140577506Y-78403152D01*
X140577506Y-78403152D02*
X140767982Y-78403152D01*
X140767982Y-78403152D02*
X140863220Y-78450771D01*
X140434649Y-79022200D02*
X140529887Y-79069819D01*
X140529887Y-79069819D02*
X140767982Y-79069819D01*
X140767982Y-79069819D02*
X140863220Y-79022200D01*
X140863220Y-79022200D02*
X140910839Y-78926961D01*
X140910839Y-78926961D02*
X140910839Y-78831723D01*
X140910839Y-78831723D02*
X140863220Y-78736485D01*
X140863220Y-78736485D02*
X140767982Y-78688866D01*
X140767982Y-78688866D02*
X140529887Y-78688866D01*
X140529887Y-78688866D02*
X140434649Y-78641247D01*
X140101315Y-78403152D02*
X139720363Y-78403152D01*
X139958458Y-78069819D02*
X139958458Y-78926961D01*
X139958458Y-78926961D02*
X139910839Y-79022200D01*
X139910839Y-79022200D02*
X139815601Y-79069819D01*
X139815601Y-79069819D02*
X139720363Y-79069819D01*
X138958458Y-79069819D02*
X138958458Y-78546009D01*
X138958458Y-78546009D02*
X139006077Y-78450771D01*
X139006077Y-78450771D02*
X139101315Y-78403152D01*
X139101315Y-78403152D02*
X139291791Y-78403152D01*
X139291791Y-78403152D02*
X139387029Y-78450771D01*
X138958458Y-79022200D02*
X139053696Y-79069819D01*
X139053696Y-79069819D02*
X139291791Y-79069819D01*
X139291791Y-79069819D02*
X139387029Y-79022200D01*
X139387029Y-79022200D02*
X139434648Y-78926961D01*
X139434648Y-78926961D02*
X139434648Y-78831723D01*
X139434648Y-78831723D02*
X139387029Y-78736485D01*
X139387029Y-78736485D02*
X139291791Y-78688866D01*
X139291791Y-78688866D02*
X139053696Y-78688866D01*
X139053696Y-78688866D02*
X138958458Y-78641247D01*
X137244172Y-79069819D02*
X137720362Y-79069819D01*
X137720362Y-79069819D02*
X137720362Y-78069819D01*
X136767981Y-79069819D02*
X136863219Y-79022200D01*
X136863219Y-79022200D02*
X136910838Y-78974580D01*
X136910838Y-78974580D02*
X136958457Y-78879342D01*
X136958457Y-78879342D02*
X136958457Y-78593628D01*
X136958457Y-78593628D02*
X136910838Y-78498390D01*
X136910838Y-78498390D02*
X136863219Y-78450771D01*
X136863219Y-78450771D02*
X136767981Y-78403152D01*
X136767981Y-78403152D02*
X136625124Y-78403152D01*
X136625124Y-78403152D02*
X136529886Y-78450771D01*
X136529886Y-78450771D02*
X136482267Y-78498390D01*
X136482267Y-78498390D02*
X136434648Y-78593628D01*
X136434648Y-78593628D02*
X136434648Y-78879342D01*
X136434648Y-78879342D02*
X136482267Y-78974580D01*
X136482267Y-78974580D02*
X136529886Y-79022200D01*
X136529886Y-79022200D02*
X136625124Y-79069819D01*
X136625124Y-79069819D02*
X136767981Y-79069819D01*
X135577505Y-78403152D02*
X135577505Y-79212676D01*
X135577505Y-79212676D02*
X135625124Y-79307914D01*
X135625124Y-79307914D02*
X135672743Y-79355533D01*
X135672743Y-79355533D02*
X135767981Y-79403152D01*
X135767981Y-79403152D02*
X135910838Y-79403152D01*
X135910838Y-79403152D02*
X136006076Y-79355533D01*
X135577505Y-79022200D02*
X135672743Y-79069819D01*
X135672743Y-79069819D02*
X135863219Y-79069819D01*
X135863219Y-79069819D02*
X135958457Y-79022200D01*
X135958457Y-79022200D02*
X136006076Y-78974580D01*
X136006076Y-78974580D02*
X136053695Y-78879342D01*
X136053695Y-78879342D02*
X136053695Y-78593628D01*
X136053695Y-78593628D02*
X136006076Y-78498390D01*
X136006076Y-78498390D02*
X135958457Y-78450771D01*
X135958457Y-78450771D02*
X135863219Y-78403152D01*
X135863219Y-78403152D02*
X135672743Y-78403152D01*
X135672743Y-78403152D02*
X135577505Y-78450771D01*
X134672743Y-78403152D02*
X134672743Y-79212676D01*
X134672743Y-79212676D02*
X134720362Y-79307914D01*
X134720362Y-79307914D02*
X134767981Y-79355533D01*
X134767981Y-79355533D02*
X134863219Y-79403152D01*
X134863219Y-79403152D02*
X135006076Y-79403152D01*
X135006076Y-79403152D02*
X135101314Y-79355533D01*
X134672743Y-79022200D02*
X134767981Y-79069819D01*
X134767981Y-79069819D02*
X134958457Y-79069819D01*
X134958457Y-79069819D02*
X135053695Y-79022200D01*
X135053695Y-79022200D02*
X135101314Y-78974580D01*
X135101314Y-78974580D02*
X135148933Y-78879342D01*
X135148933Y-78879342D02*
X135148933Y-78593628D01*
X135148933Y-78593628D02*
X135101314Y-78498390D01*
X135101314Y-78498390D02*
X135053695Y-78450771D01*
X135053695Y-78450771D02*
X134958457Y-78403152D01*
X134958457Y-78403152D02*
X134767981Y-78403152D01*
X134767981Y-78403152D02*
X134672743Y-78450771D01*
X133815600Y-79022200D02*
X133910838Y-79069819D01*
X133910838Y-79069819D02*
X134101314Y-79069819D01*
X134101314Y-79069819D02*
X134196552Y-79022200D01*
X134196552Y-79022200D02*
X134244171Y-78926961D01*
X134244171Y-78926961D02*
X134244171Y-78546009D01*
X134244171Y-78546009D02*
X134196552Y-78450771D01*
X134196552Y-78450771D02*
X134101314Y-78403152D01*
X134101314Y-78403152D02*
X133910838Y-78403152D01*
X133910838Y-78403152D02*
X133815600Y-78450771D01*
X133815600Y-78450771D02*
X133767981Y-78546009D01*
X133767981Y-78546009D02*
X133767981Y-78641247D01*
X133767981Y-78641247D02*
X134244171Y-78736485D01*
X133339409Y-79069819D02*
X133339409Y-78403152D01*
X133339409Y-78593628D02*
X133291790Y-78498390D01*
X133291790Y-78498390D02*
X133244171Y-78450771D01*
X133244171Y-78450771D02*
X133148933Y-78403152D01*
X133148933Y-78403152D02*
X133053695Y-78403152D01*
X132053694Y-78403152D02*
X131863218Y-79069819D01*
X131863218Y-79069819D02*
X131672742Y-78593628D01*
X131672742Y-78593628D02*
X131482266Y-79069819D01*
X131482266Y-79069819D02*
X131291790Y-78403152D01*
X130910837Y-79069819D02*
X130910837Y-78403152D01*
X130910837Y-78069819D02*
X130958456Y-78117438D01*
X130958456Y-78117438D02*
X130910837Y-78165057D01*
X130910837Y-78165057D02*
X130863218Y-78117438D01*
X130863218Y-78117438D02*
X130910837Y-78069819D01*
X130910837Y-78069819D02*
X130910837Y-78165057D01*
X130577504Y-78403152D02*
X130196552Y-78403152D01*
X130434647Y-78069819D02*
X130434647Y-78926961D01*
X130434647Y-78926961D02*
X130387028Y-79022200D01*
X130387028Y-79022200D02*
X130291790Y-79069819D01*
X130291790Y-79069819D02*
X130196552Y-79069819D01*
X129863218Y-79069819D02*
X129863218Y-78069819D01*
X129434647Y-79069819D02*
X129434647Y-78546009D01*
X129434647Y-78546009D02*
X129482266Y-78450771D01*
X129482266Y-78450771D02*
X129577504Y-78403152D01*
X129577504Y-78403152D02*
X129720361Y-78403152D01*
X129720361Y-78403152D02*
X129815599Y-78450771D01*
X129815599Y-78450771D02*
X129863218Y-78498390D01*
X128244170Y-78784104D02*
X127767980Y-78784104D01*
X128339408Y-79069819D02*
X128006075Y-78069819D01*
X128006075Y-78069819D02*
X127672742Y-79069819D01*
X127482265Y-78069819D02*
X126910837Y-78069819D01*
X127196551Y-79069819D02*
X127196551Y-78069819D01*
X126577503Y-79069819D02*
X126577503Y-78069819D01*
X126577503Y-78069819D02*
X126244170Y-78784104D01*
X126244170Y-78784104D02*
X125910837Y-78069819D01*
X125910837Y-78069819D02*
X125910837Y-79069819D01*
X125053694Y-79022200D02*
X125148932Y-79069819D01*
X125148932Y-79069819D02*
X125339408Y-79069819D01*
X125339408Y-79069819D02*
X125434646Y-79022200D01*
X125434646Y-79022200D02*
X125482265Y-78926961D01*
X125482265Y-78926961D02*
X125482265Y-78546009D01*
X125482265Y-78546009D02*
X125434646Y-78450771D01*
X125434646Y-78450771D02*
X125339408Y-78403152D01*
X125339408Y-78403152D02*
X125148932Y-78403152D01*
X125148932Y-78403152D02*
X125053694Y-78450771D01*
X125053694Y-78450771D02*
X125006075Y-78546009D01*
X125006075Y-78546009D02*
X125006075Y-78641247D01*
X125006075Y-78641247D02*
X125482265Y-78736485D01*
X124148932Y-78403152D02*
X124148932Y-79212676D01*
X124148932Y-79212676D02*
X124196551Y-79307914D01*
X124196551Y-79307914D02*
X124244170Y-79355533D01*
X124244170Y-79355533D02*
X124339408Y-79403152D01*
X124339408Y-79403152D02*
X124482265Y-79403152D01*
X124482265Y-79403152D02*
X124577503Y-79355533D01*
X124148932Y-79022200D02*
X124244170Y-79069819D01*
X124244170Y-79069819D02*
X124434646Y-79069819D01*
X124434646Y-79069819D02*
X124529884Y-79022200D01*
X124529884Y-79022200D02*
X124577503Y-78974580D01*
X124577503Y-78974580D02*
X124625122Y-78879342D01*
X124625122Y-78879342D02*
X124625122Y-78593628D01*
X124625122Y-78593628D02*
X124577503Y-78498390D01*
X124577503Y-78498390D02*
X124529884Y-78450771D01*
X124529884Y-78450771D02*
X124434646Y-78403152D01*
X124434646Y-78403152D02*
X124244170Y-78403152D01*
X124244170Y-78403152D02*
X124148932Y-78450771D01*
X123244170Y-79069819D02*
X123244170Y-78546009D01*
X123244170Y-78546009D02*
X123291789Y-78450771D01*
X123291789Y-78450771D02*
X123387027Y-78403152D01*
X123387027Y-78403152D02*
X123577503Y-78403152D01*
X123577503Y-78403152D02*
X123672741Y-78450771D01*
X123244170Y-79022200D02*
X123339408Y-79069819D01*
X123339408Y-79069819D02*
X123577503Y-79069819D01*
X123577503Y-79069819D02*
X123672741Y-79022200D01*
X123672741Y-79022200D02*
X123720360Y-78926961D01*
X123720360Y-78926961D02*
X123720360Y-78831723D01*
X123720360Y-78831723D02*
X123672741Y-78736485D01*
X123672741Y-78736485D02*
X123577503Y-78688866D01*
X123577503Y-78688866D02*
X123339408Y-78688866D01*
X123339408Y-78688866D02*
X123244170Y-78641247D01*
X122863217Y-78069819D02*
X122244170Y-78069819D01*
X122244170Y-78069819D02*
X122577503Y-78450771D01*
X122577503Y-78450771D02*
X122434646Y-78450771D01*
X122434646Y-78450771D02*
X122339408Y-78498390D01*
X122339408Y-78498390D02*
X122291789Y-78546009D01*
X122291789Y-78546009D02*
X122244170Y-78641247D01*
X122244170Y-78641247D02*
X122244170Y-78879342D01*
X122244170Y-78879342D02*
X122291789Y-78974580D01*
X122291789Y-78974580D02*
X122339408Y-79022200D01*
X122339408Y-79022200D02*
X122434646Y-79069819D01*
X122434646Y-79069819D02*
X122720360Y-79069819D01*
X122720360Y-79069819D02*
X122815598Y-79022200D01*
X122815598Y-79022200D02*
X122863217Y-78974580D01*
X121863217Y-78165057D02*
X121815598Y-78117438D01*
X121815598Y-78117438D02*
X121720360Y-78069819D01*
X121720360Y-78069819D02*
X121482265Y-78069819D01*
X121482265Y-78069819D02*
X121387027Y-78117438D01*
X121387027Y-78117438D02*
X121339408Y-78165057D01*
X121339408Y-78165057D02*
X121291789Y-78260295D01*
X121291789Y-78260295D02*
X121291789Y-78355533D01*
X121291789Y-78355533D02*
X121339408Y-78498390D01*
X121339408Y-78498390D02*
X121910836Y-79069819D01*
X121910836Y-79069819D02*
X121291789Y-79069819D01*
X120720360Y-78498390D02*
X120815598Y-78450771D01*
X120815598Y-78450771D02*
X120863217Y-78403152D01*
X120863217Y-78403152D02*
X120910836Y-78307914D01*
X120910836Y-78307914D02*
X120910836Y-78260295D01*
X120910836Y-78260295D02*
X120863217Y-78165057D01*
X120863217Y-78165057D02*
X120815598Y-78117438D01*
X120815598Y-78117438D02*
X120720360Y-78069819D01*
X120720360Y-78069819D02*
X120529884Y-78069819D01*
X120529884Y-78069819D02*
X120434646Y-78117438D01*
X120434646Y-78117438D02*
X120387027Y-78165057D01*
X120387027Y-78165057D02*
X120339408Y-78260295D01*
X120339408Y-78260295D02*
X120339408Y-78307914D01*
X120339408Y-78307914D02*
X120387027Y-78403152D01*
X120387027Y-78403152D02*
X120434646Y-78450771D01*
X120434646Y-78450771D02*
X120529884Y-78498390D01*
X120529884Y-78498390D02*
X120720360Y-78498390D01*
X120720360Y-78498390D02*
X120815598Y-78546009D01*
X120815598Y-78546009D02*
X120863217Y-78593628D01*
X120863217Y-78593628D02*
X120910836Y-78688866D01*
X120910836Y-78688866D02*
X120910836Y-78879342D01*
X120910836Y-78879342D02*
X120863217Y-78974580D01*
X120863217Y-78974580D02*
X120815598Y-79022200D01*
X120815598Y-79022200D02*
X120720360Y-79069819D01*
X120720360Y-79069819D02*
X120529884Y-79069819D01*
X120529884Y-79069819D02*
X120434646Y-79022200D01*
X120434646Y-79022200D02*
X120387027Y-78974580D01*
X120387027Y-78974580D02*
X120339408Y-78879342D01*
X120339408Y-78879342D02*
X120339408Y-78688866D01*
X120339408Y-78688866D02*
X120387027Y-78593628D01*
X120387027Y-78593628D02*
X120434646Y-78546009D01*
X120434646Y-78546009D02*
X120529884Y-78498390D01*
X119910836Y-79069819D02*
X119910836Y-78069819D01*
X119910836Y-78069819D02*
X119529884Y-78069819D01*
X119529884Y-78069819D02*
X119434646Y-78117438D01*
X119434646Y-78117438D02*
X119387027Y-78165057D01*
X119387027Y-78165057D02*
X119339408Y-78260295D01*
X119339408Y-78260295D02*
X119339408Y-78403152D01*
X119339408Y-78403152D02*
X119387027Y-78498390D01*
X119387027Y-78498390D02*
X119434646Y-78546009D01*
X119434646Y-78546009D02*
X119529884Y-78593628D01*
X119529884Y-78593628D02*
X119910836Y-78593628D01*
D11*
%TO.C,REF\u002A\u002A*%
X147611945Y-100981840D02*
X147610532Y-101088310D01*
X147608777Y-101180024D01*
X147606646Y-101258117D01*
X147604102Y-101323724D01*
X147601111Y-101377981D01*
X147597635Y-101422023D01*
X147593640Y-101456985D01*
X147589089Y-101484003D01*
X147583947Y-101504212D01*
X147578179Y-101518747D01*
X147571748Y-101528744D01*
X147564619Y-101535338D01*
X147556755Y-101539665D01*
X147548122Y-101542859D01*
X147538684Y-101546056D01*
X147528404Y-101550391D01*
X147522620Y-101552563D01*
X147512010Y-101554936D01*
X147496245Y-101557110D01*
X147474210Y-101559093D01*
X147444790Y-101560896D01*
X147406869Y-101562525D01*
X147359332Y-101563991D01*
X147301064Y-101565301D01*
X147230950Y-101566465D01*
X147147874Y-101567491D01*
X147050721Y-101568388D01*
X146938376Y-101569165D01*
X146809725Y-101569830D01*
X146663650Y-101570392D01*
X146499038Y-101570860D01*
X146314773Y-101571242D01*
X146109740Y-101571548D01*
X145882824Y-101571785D01*
X145632909Y-101571963D01*
X145358881Y-101572091D01*
X145059623Y-101572176D01*
X144734021Y-101572228D01*
X144630839Y-101572238D01*
X144312303Y-101572245D01*
X144019787Y-101572205D01*
X143752188Y-101572110D01*
X143508404Y-101571953D01*
X143287332Y-101571725D01*
X143087872Y-101571419D01*
X142908921Y-101571025D01*
X142749376Y-101570538D01*
X142608136Y-101569947D01*
X142484099Y-101569247D01*
X142376163Y-101568427D01*
X142283226Y-101567481D01*
X142204185Y-101566400D01*
X142137939Y-101565177D01*
X142083385Y-101563803D01*
X142039422Y-101562271D01*
X142004947Y-101560572D01*
X141978859Y-101558698D01*
X141960056Y-101556642D01*
X141947435Y-101554396D01*
X141939894Y-101551950D01*
X141937495Y-101550862D01*
X141927673Y-101547287D01*
X141918666Y-101544676D01*
X141910437Y-101541893D01*
X141902950Y-101537800D01*
X141896168Y-101531260D01*
X141890055Y-101521137D01*
X141884575Y-101506293D01*
X141879690Y-101485591D01*
X141875364Y-101457895D01*
X141871561Y-101422068D01*
X141868244Y-101376973D01*
X141865376Y-101321472D01*
X141862922Y-101254429D01*
X141860844Y-101174707D01*
X141859107Y-101081170D01*
X141857673Y-100972679D01*
X141857202Y-100922440D01*
X142219255Y-100922440D01*
X142219652Y-100927251D01*
X142226935Y-100931150D01*
X142243389Y-100934232D01*
X142271301Y-100936594D01*
X142312957Y-100938330D01*
X142370642Y-100939536D01*
X142446642Y-100940308D01*
X142543244Y-100940741D01*
X142662734Y-100940931D01*
X142807396Y-100940973D01*
X143413373Y-100940973D01*
X143362146Y-100848298D01*
X143310919Y-100755622D01*
X143310919Y-98064595D01*
X143362146Y-97971919D01*
X143413373Y-97879244D01*
X142330211Y-97879244D01*
X142322379Y-100728162D01*
X142283981Y-100810168D01*
X142263736Y-100850815D01*
X142240813Y-100891532D01*
X142223501Y-100916574D01*
X142223458Y-100916622D01*
X142219255Y-100922440D01*
X141857202Y-100922440D01*
X141856506Y-100848098D01*
X141855570Y-100706290D01*
X141854828Y-100546119D01*
X141854243Y-100366447D01*
X141853779Y-100166137D01*
X141853400Y-99944052D01*
X141853069Y-99699056D01*
X141852749Y-99430012D01*
X141852404Y-99135782D01*
X141851998Y-98815230D01*
X141851945Y-98776424D01*
X141851492Y-98457903D01*
X141851059Y-98165572D01*
X141850677Y-97898293D01*
X141850380Y-97654929D01*
X141850198Y-97434342D01*
X141850165Y-97235395D01*
X141850311Y-97056950D01*
X141850670Y-96897871D01*
X141851274Y-96757019D01*
X141852154Y-96633257D01*
X141853342Y-96525447D01*
X141854871Y-96432453D01*
X141856772Y-96353137D01*
X141859078Y-96286360D01*
X141861821Y-96230987D01*
X141865032Y-96185879D01*
X141868745Y-96149899D01*
X141872990Y-96121909D01*
X141877801Y-96100772D01*
X141883208Y-96085351D01*
X141889245Y-96074508D01*
X141895943Y-96067106D01*
X141903335Y-96062007D01*
X141911451Y-96058073D01*
X141920325Y-96054168D01*
X141929989Y-96049154D01*
X141932817Y-96047556D01*
X141975604Y-96032089D01*
X142022443Y-96025732D01*
X142075244Y-96025734D01*
X142076124Y-96145867D01*
X142076347Y-96159692D01*
X142093129Y-96300215D01*
X142135873Y-96432435D01*
X142203983Y-96554952D01*
X142296868Y-96666363D01*
X142346712Y-96711803D01*
X142457695Y-96787120D01*
X142578788Y-96839643D01*
X142706465Y-96869342D01*
X142837197Y-96876190D01*
X142967460Y-96860159D01*
X143093725Y-96821221D01*
X143197522Y-96767135D01*
X143656907Y-96767135D01*
X143717319Y-96810599D01*
X143768410Y-96851448D01*
X143840403Y-96918076D01*
X143922060Y-97001580D01*
X144010290Y-97098778D01*
X144102000Y-97206487D01*
X144125617Y-97235290D01*
X144165827Y-97284692D01*
X144218387Y-97349505D01*
X144281556Y-97427566D01*
X144353592Y-97516711D01*
X144432754Y-97614778D01*
X144517302Y-97719604D01*
X144605493Y-97829024D01*
X144645944Y-97879244D01*
X144695586Y-97940876D01*
X144785840Y-98052997D01*
X144874515Y-98163224D01*
X144959868Y-98269392D01*
X145040158Y-98369340D01*
X145113644Y-98460903D01*
X145178585Y-98541919D01*
X145233240Y-98610224D01*
X145275866Y-98663655D01*
X145304724Y-98700048D01*
X145318071Y-98717242D01*
X145319173Y-98723703D01*
X145315508Y-98735992D01*
X145306013Y-98755325D01*
X145289738Y-98783074D01*
X145265736Y-98820610D01*
X145233060Y-98869304D01*
X145190761Y-98930529D01*
X145137891Y-99005654D01*
X145073503Y-99096052D01*
X144996648Y-99203094D01*
X144906380Y-99328152D01*
X144801749Y-99472596D01*
X144681809Y-99637798D01*
X144586242Y-99769297D01*
X144469648Y-99929605D01*
X144367088Y-100070387D01*
X144277369Y-100193204D01*
X144199300Y-100299619D01*
X144131688Y-100391195D01*
X144073338Y-100469494D01*
X144023060Y-100536079D01*
X143979661Y-100592511D01*
X143941946Y-100640354D01*
X143908725Y-100681169D01*
X143878803Y-100716520D01*
X143850989Y-100747968D01*
X143824090Y-100777076D01*
X143796913Y-100805406D01*
X143768265Y-100834522D01*
X143662692Y-100940973D01*
X145082054Y-100941031D01*
X145077595Y-100855019D01*
X145077379Y-100850697D01*
X145076532Y-100816313D01*
X145078137Y-100783368D01*
X145083266Y-100750058D01*
X145092993Y-100714578D01*
X145108391Y-100675125D01*
X145130534Y-100629893D01*
X145160495Y-100577077D01*
X145199348Y-100514874D01*
X145248166Y-100441477D01*
X145308022Y-100355084D01*
X145379990Y-100253890D01*
X145465143Y-100136088D01*
X145564554Y-99999876D01*
X145679298Y-99843449D01*
X146084325Y-99292041D01*
X146087893Y-99931382D01*
X146088209Y-99991020D01*
X146088767Y-100151657D01*
X146088513Y-100288289D01*
X146087150Y-100403502D01*
X146084377Y-100499883D01*
X146079898Y-100580016D01*
X146073413Y-100646487D01*
X146064623Y-100701883D01*
X146053230Y-100748788D01*
X146038935Y-100789788D01*
X146021440Y-100827469D01*
X146000447Y-100864417D01*
X145975655Y-100903217D01*
X145950734Y-100940973D01*
X147245884Y-100940973D01*
X147212429Y-100896352D01*
X147207190Y-100889293D01*
X147165302Y-100824594D01*
X147136427Y-100759190D01*
X147117466Y-100684248D01*
X147105321Y-100590933D01*
X147104987Y-100586865D01*
X147103225Y-100548375D01*
X147101633Y-100484156D01*
X147100220Y-100395676D01*
X147098992Y-100284403D01*
X147097956Y-100151803D01*
X147097118Y-99999345D01*
X147096486Y-99828496D01*
X147096067Y-99640722D01*
X147095868Y-99437493D01*
X147095895Y-99220274D01*
X147096155Y-98990535D01*
X147096655Y-98749741D01*
X147097185Y-98533748D01*
X147097752Y-98298635D01*
X147098311Y-98088279D01*
X147098930Y-97901206D01*
X147099681Y-97735942D01*
X147100634Y-97591013D01*
X147101858Y-97464947D01*
X147103423Y-97356268D01*
X147105401Y-97263504D01*
X147107860Y-97185180D01*
X147110871Y-97119822D01*
X147114504Y-97065958D01*
X147118829Y-97022113D01*
X147123916Y-96986813D01*
X147129835Y-96958585D01*
X147136657Y-96935955D01*
X147144451Y-96917449D01*
X147153288Y-96901594D01*
X147163237Y-96886915D01*
X147174369Y-96871940D01*
X147186754Y-96855193D01*
X147198732Y-96838412D01*
X147221885Y-96805231D01*
X147235753Y-96784298D01*
X147236088Y-96783421D01*
X147231246Y-96779462D01*
X147214157Y-96776159D01*
X147182921Y-96773461D01*
X147135635Y-96771317D01*
X147070398Y-96769676D01*
X146985310Y-96768489D01*
X146878467Y-96767703D01*
X146747969Y-96767269D01*
X146591914Y-96767135D01*
X145937722Y-96767135D01*
X145972200Y-96808110D01*
X145992182Y-96836253D01*
X146025443Y-96902608D01*
X146054591Y-96985135D01*
X146076838Y-97076679D01*
X146078256Y-97085369D01*
X146082474Y-97131183D01*
X146085669Y-97201989D01*
X146087849Y-97298275D01*
X146089021Y-97420532D01*
X146089195Y-97569251D01*
X146088378Y-97744922D01*
X146084325Y-98331412D01*
X145665568Y-97801859D01*
X145653574Y-97786690D01*
X145547381Y-97652255D01*
X145456721Y-97537124D01*
X145380151Y-97439339D01*
X145316227Y-97356943D01*
X145263507Y-97287978D01*
X145220549Y-97230486D01*
X145185909Y-97182510D01*
X145158145Y-97142093D01*
X145135814Y-97107276D01*
X145117472Y-97076103D01*
X145101678Y-97046615D01*
X145086988Y-97016855D01*
X145064390Y-96964177D01*
X145049791Y-96908606D01*
X145045908Y-96848666D01*
X145046298Y-96767135D01*
X143656907Y-96767135D01*
X143197522Y-96767135D01*
X143212466Y-96759348D01*
X143320157Y-96674511D01*
X143350094Y-96644602D01*
X143438577Y-96533862D01*
X143501364Y-96413684D01*
X143538789Y-96283291D01*
X143551189Y-96141910D01*
X143551189Y-96025730D01*
X145522088Y-96025730D01*
X145645220Y-96025725D01*
X145909743Y-96025689D01*
X146148702Y-96025663D01*
X146363418Y-96025699D01*
X146555213Y-96025849D01*
X146725407Y-96026166D01*
X146875323Y-96026702D01*
X147006282Y-96027508D01*
X147119605Y-96028638D01*
X147216614Y-96030144D01*
X147298629Y-96032077D01*
X147366974Y-96034491D01*
X147422968Y-96037436D01*
X147467933Y-96040966D01*
X147503191Y-96045133D01*
X147530063Y-96049989D01*
X147549871Y-96055586D01*
X147563935Y-96061976D01*
X147573578Y-96069212D01*
X147580121Y-96077346D01*
X147584885Y-96086431D01*
X147589192Y-96096518D01*
X147594363Y-96107659D01*
X147594455Y-96107841D01*
X147596966Y-96115134D01*
X147599268Y-96127347D01*
X147601372Y-96145605D01*
X147603286Y-96171037D01*
X147605018Y-96204769D01*
X147606578Y-96247928D01*
X147607973Y-96301641D01*
X147609213Y-96367035D01*
X147610307Y-96445238D01*
X147611263Y-96537376D01*
X147612090Y-96644576D01*
X147612797Y-96767966D01*
X147613393Y-96908671D01*
X147613885Y-97067820D01*
X147614284Y-97246540D01*
X147614597Y-97445957D01*
X147614833Y-97667198D01*
X147615002Y-97911390D01*
X147615112Y-98179661D01*
X147615172Y-98473137D01*
X147615189Y-98792946D01*
X147615190Y-98855773D01*
X147615220Y-99172249D01*
X147615267Y-99462615D01*
X147615295Y-99728007D01*
X147615267Y-99969560D01*
X147615150Y-100188410D01*
X147614905Y-100385691D01*
X147614498Y-100562539D01*
X147613893Y-100720090D01*
X147613054Y-100859479D01*
X147612315Y-100940973D01*
X147611945Y-100981840D01*
G36*
X147611945Y-100981840D02*
G01*
X147610532Y-101088310D01*
X147608777Y-101180024D01*
X147606646Y-101258117D01*
X147604102Y-101323724D01*
X147601111Y-101377981D01*
X147597635Y-101422023D01*
X147593640Y-101456985D01*
X147589089Y-101484003D01*
X147583947Y-101504212D01*
X147578179Y-101518747D01*
X147571748Y-101528744D01*
X147564619Y-101535338D01*
X147556755Y-101539665D01*
X147548122Y-101542859D01*
X147538684Y-101546056D01*
X147528404Y-101550391D01*
X147522620Y-101552563D01*
X147512010Y-101554936D01*
X147496245Y-101557110D01*
X147474210Y-101559093D01*
X147444790Y-101560896D01*
X147406869Y-101562525D01*
X147359332Y-101563991D01*
X147301064Y-101565301D01*
X147230950Y-101566465D01*
X147147874Y-101567491D01*
X147050721Y-101568388D01*
X146938376Y-101569165D01*
X146809725Y-101569830D01*
X146663650Y-101570392D01*
X146499038Y-101570860D01*
X146314773Y-101571242D01*
X146109740Y-101571548D01*
X145882824Y-101571785D01*
X145632909Y-101571963D01*
X145358881Y-101572091D01*
X145059623Y-101572176D01*
X144734021Y-101572228D01*
X144630839Y-101572238D01*
X144312303Y-101572245D01*
X144019787Y-101572205D01*
X143752188Y-101572110D01*
X143508404Y-101571953D01*
X143287332Y-101571725D01*
X143087872Y-101571419D01*
X142908921Y-101571025D01*
X142749376Y-101570538D01*
X142608136Y-101569947D01*
X142484099Y-101569247D01*
X142376163Y-101568427D01*
X142283226Y-101567481D01*
X142204185Y-101566400D01*
X142137939Y-101565177D01*
X142083385Y-101563803D01*
X142039422Y-101562271D01*
X142004947Y-101560572D01*
X141978859Y-101558698D01*
X141960056Y-101556642D01*
X141947435Y-101554396D01*
X141939894Y-101551950D01*
X141937495Y-101550862D01*
X141927673Y-101547287D01*
X141918666Y-101544676D01*
X141910437Y-101541893D01*
X141902950Y-101537800D01*
X141896168Y-101531260D01*
X141890055Y-101521137D01*
X141884575Y-101506293D01*
X141879690Y-101485591D01*
X141875364Y-101457895D01*
X141871561Y-101422068D01*
X141868244Y-101376973D01*
X141865376Y-101321472D01*
X141862922Y-101254429D01*
X141860844Y-101174707D01*
X141859107Y-101081170D01*
X141857673Y-100972679D01*
X141857202Y-100922440D01*
X142219255Y-100922440D01*
X142219652Y-100927251D01*
X142226935Y-100931150D01*
X142243389Y-100934232D01*
X142271301Y-100936594D01*
X142312957Y-100938330D01*
X142370642Y-100939536D01*
X142446642Y-100940308D01*
X142543244Y-100940741D01*
X142662734Y-100940931D01*
X142807396Y-100940973D01*
X143413373Y-100940973D01*
X143362146Y-100848298D01*
X143310919Y-100755622D01*
X143310919Y-98064595D01*
X143362146Y-97971919D01*
X143413373Y-97879244D01*
X142330211Y-97879244D01*
X142322379Y-100728162D01*
X142283981Y-100810168D01*
X142263736Y-100850815D01*
X142240813Y-100891532D01*
X142223501Y-100916574D01*
X142223458Y-100916622D01*
X142219255Y-100922440D01*
X141857202Y-100922440D01*
X141856506Y-100848098D01*
X141855570Y-100706290D01*
X141854828Y-100546119D01*
X141854243Y-100366447D01*
X141853779Y-100166137D01*
X141853400Y-99944052D01*
X141853069Y-99699056D01*
X141852749Y-99430012D01*
X141852404Y-99135782D01*
X141851998Y-98815230D01*
X141851945Y-98776424D01*
X141851492Y-98457903D01*
X141851059Y-98165572D01*
X141850677Y-97898293D01*
X141850380Y-97654929D01*
X141850198Y-97434342D01*
X141850165Y-97235395D01*
X141850311Y-97056950D01*
X141850670Y-96897871D01*
X141851274Y-96757019D01*
X141852154Y-96633257D01*
X141853342Y-96525447D01*
X141854871Y-96432453D01*
X141856772Y-96353137D01*
X141859078Y-96286360D01*
X141861821Y-96230987D01*
X141865032Y-96185879D01*
X141868745Y-96149899D01*
X141872990Y-96121909D01*
X141877801Y-96100772D01*
X141883208Y-96085351D01*
X141889245Y-96074508D01*
X141895943Y-96067106D01*
X141903335Y-96062007D01*
X141911451Y-96058073D01*
X141920325Y-96054168D01*
X141929989Y-96049154D01*
X141932817Y-96047556D01*
X141975604Y-96032089D01*
X142022443Y-96025732D01*
X142075244Y-96025734D01*
X142076124Y-96145867D01*
X142076347Y-96159692D01*
X142093129Y-96300215D01*
X142135873Y-96432435D01*
X142203983Y-96554952D01*
X142296868Y-96666363D01*
X142346712Y-96711803D01*
X142457695Y-96787120D01*
X142578788Y-96839643D01*
X142706465Y-96869342D01*
X142837197Y-96876190D01*
X142967460Y-96860159D01*
X143093725Y-96821221D01*
X143197522Y-96767135D01*
X143656907Y-96767135D01*
X143717319Y-96810599D01*
X143768410Y-96851448D01*
X143840403Y-96918076D01*
X143922060Y-97001580D01*
X144010290Y-97098778D01*
X144102000Y-97206487D01*
X144125617Y-97235290D01*
X144165827Y-97284692D01*
X144218387Y-97349505D01*
X144281556Y-97427566D01*
X144353592Y-97516711D01*
X144432754Y-97614778D01*
X144517302Y-97719604D01*
X144605493Y-97829024D01*
X144645944Y-97879244D01*
X144695586Y-97940876D01*
X144785840Y-98052997D01*
X144874515Y-98163224D01*
X144959868Y-98269392D01*
X145040158Y-98369340D01*
X145113644Y-98460903D01*
X145178585Y-98541919D01*
X145233240Y-98610224D01*
X145275866Y-98663655D01*
X145304724Y-98700048D01*
X145318071Y-98717242D01*
X145319173Y-98723703D01*
X145315508Y-98735992D01*
X145306013Y-98755325D01*
X145289738Y-98783074D01*
X145265736Y-98820610D01*
X145233060Y-98869304D01*
X145190761Y-98930529D01*
X145137891Y-99005654D01*
X145073503Y-99096052D01*
X144996648Y-99203094D01*
X144906380Y-99328152D01*
X144801749Y-99472596D01*
X144681809Y-99637798D01*
X144586242Y-99769297D01*
X144469648Y-99929605D01*
X144367088Y-100070387D01*
X144277369Y-100193204D01*
X144199300Y-100299619D01*
X144131688Y-100391195D01*
X144073338Y-100469494D01*
X144023060Y-100536079D01*
X143979661Y-100592511D01*
X143941946Y-100640354D01*
X143908725Y-100681169D01*
X143878803Y-100716520D01*
X143850989Y-100747968D01*
X143824090Y-100777076D01*
X143796913Y-100805406D01*
X143768265Y-100834522D01*
X143662692Y-100940973D01*
X145082054Y-100941031D01*
X145077595Y-100855019D01*
X145077379Y-100850697D01*
X145076532Y-100816313D01*
X145078137Y-100783368D01*
X145083266Y-100750058D01*
X145092993Y-100714578D01*
X145108391Y-100675125D01*
X145130534Y-100629893D01*
X145160495Y-100577077D01*
X145199348Y-100514874D01*
X145248166Y-100441477D01*
X145308022Y-100355084D01*
X145379990Y-100253890D01*
X145465143Y-100136088D01*
X145564554Y-99999876D01*
X145679298Y-99843449D01*
X146084325Y-99292041D01*
X146087893Y-99931382D01*
X146088209Y-99991020D01*
X146088767Y-100151657D01*
X146088513Y-100288289D01*
X146087150Y-100403502D01*
X146084377Y-100499883D01*
X146079898Y-100580016D01*
X146073413Y-100646487D01*
X146064623Y-100701883D01*
X146053230Y-100748788D01*
X146038935Y-100789788D01*
X146021440Y-100827469D01*
X146000447Y-100864417D01*
X145975655Y-100903217D01*
X145950734Y-100940973D01*
X147245884Y-100940973D01*
X147212429Y-100896352D01*
X147207190Y-100889293D01*
X147165302Y-100824594D01*
X147136427Y-100759190D01*
X147117466Y-100684248D01*
X147105321Y-100590933D01*
X147104987Y-100586865D01*
X147103225Y-100548375D01*
X147101633Y-100484156D01*
X147100220Y-100395676D01*
X147098992Y-100284403D01*
X147097956Y-100151803D01*
X147097118Y-99999345D01*
X147096486Y-99828496D01*
X147096067Y-99640722D01*
X147095868Y-99437493D01*
X147095895Y-99220274D01*
X147096155Y-98990535D01*
X147096655Y-98749741D01*
X147097185Y-98533748D01*
X147097752Y-98298635D01*
X147098311Y-98088279D01*
X147098930Y-97901206D01*
X147099681Y-97735942D01*
X147100634Y-97591013D01*
X147101858Y-97464947D01*
X147103423Y-97356268D01*
X147105401Y-97263504D01*
X147107860Y-97185180D01*
X147110871Y-97119822D01*
X147114504Y-97065958D01*
X147118829Y-97022113D01*
X147123916Y-96986813D01*
X147129835Y-96958585D01*
X147136657Y-96935955D01*
X147144451Y-96917449D01*
X147153288Y-96901594D01*
X147163237Y-96886915D01*
X147174369Y-96871940D01*
X147186754Y-96855193D01*
X147198732Y-96838412D01*
X147221885Y-96805231D01*
X147235753Y-96784298D01*
X147236088Y-96783421D01*
X147231246Y-96779462D01*
X147214157Y-96776159D01*
X147182921Y-96773461D01*
X147135635Y-96771317D01*
X147070398Y-96769676D01*
X146985310Y-96768489D01*
X146878467Y-96767703D01*
X146747969Y-96767269D01*
X146591914Y-96767135D01*
X145937722Y-96767135D01*
X145972200Y-96808110D01*
X145992182Y-96836253D01*
X146025443Y-96902608D01*
X146054591Y-96985135D01*
X146076838Y-97076679D01*
X146078256Y-97085369D01*
X146082474Y-97131183D01*
X146085669Y-97201989D01*
X146087849Y-97298275D01*
X146089021Y-97420532D01*
X146089195Y-97569251D01*
X146088378Y-97744922D01*
X146084325Y-98331412D01*
X145665568Y-97801859D01*
X145653574Y-97786690D01*
X145547381Y-97652255D01*
X145456721Y-97537124D01*
X145380151Y-97439339D01*
X145316227Y-97356943D01*
X145263507Y-97287978D01*
X145220549Y-97230486D01*
X145185909Y-97182510D01*
X145158145Y-97142093D01*
X145135814Y-97107276D01*
X145117472Y-97076103D01*
X145101678Y-97046615D01*
X145086988Y-97016855D01*
X145064390Y-96964177D01*
X145049791Y-96908606D01*
X145045908Y-96848666D01*
X145046298Y-96767135D01*
X143656907Y-96767135D01*
X143197522Y-96767135D01*
X143212466Y-96759348D01*
X143320157Y-96674511D01*
X143350094Y-96644602D01*
X143438577Y-96533862D01*
X143501364Y-96413684D01*
X143538789Y-96283291D01*
X143551189Y-96141910D01*
X143551189Y-96025730D01*
X145522088Y-96025730D01*
X145645220Y-96025725D01*
X145909743Y-96025689D01*
X146148702Y-96025663D01*
X146363418Y-96025699D01*
X146555213Y-96025849D01*
X146725407Y-96026166D01*
X146875323Y-96026702D01*
X147006282Y-96027508D01*
X147119605Y-96028638D01*
X147216614Y-96030144D01*
X147298629Y-96032077D01*
X147366974Y-96034491D01*
X147422968Y-96037436D01*
X147467933Y-96040966D01*
X147503191Y-96045133D01*
X147530063Y-96049989D01*
X147549871Y-96055586D01*
X147563935Y-96061976D01*
X147573578Y-96069212D01*
X147580121Y-96077346D01*
X147584885Y-96086431D01*
X147589192Y-96096518D01*
X147594363Y-96107659D01*
X147594455Y-96107841D01*
X147596966Y-96115134D01*
X147599268Y-96127347D01*
X147601372Y-96145605D01*
X147603286Y-96171037D01*
X147605018Y-96204769D01*
X147606578Y-96247928D01*
X147607973Y-96301641D01*
X147609213Y-96367035D01*
X147610307Y-96445238D01*
X147611263Y-96537376D01*
X147612090Y-96644576D01*
X147612797Y-96767966D01*
X147613393Y-96908671D01*
X147613885Y-97067820D01*
X147614284Y-97246540D01*
X147614597Y-97445957D01*
X147614833Y-97667198D01*
X147615002Y-97911390D01*
X147615112Y-98179661D01*
X147615172Y-98473137D01*
X147615189Y-98792946D01*
X147615190Y-98855773D01*
X147615220Y-99172249D01*
X147615267Y-99462615D01*
X147615295Y-99728007D01*
X147615267Y-99969560D01*
X147615150Y-100188410D01*
X147614905Y-100385691D01*
X147614498Y-100562539D01*
X147613893Y-100720090D01*
X147613054Y-100859479D01*
X147612315Y-100940973D01*
X147611945Y-100981840D01*
G37*
X138401128Y-100003034D02*
X138394962Y-100113736D01*
X138381635Y-100216739D01*
X138361526Y-100302541D01*
X138329440Y-100390818D01*
X138255063Y-100536299D01*
X138159994Y-100664295D01*
X138045218Y-100773933D01*
X137911719Y-100864342D01*
X137760480Y-100934648D01*
X137592487Y-100983981D01*
X137523983Y-100995108D01*
X137426093Y-101002841D01*
X137319484Y-101004580D01*
X137213065Y-101000465D01*
X137115745Y-100990637D01*
X137036433Y-100975236D01*
X136996579Y-100963110D01*
X136906063Y-100927626D01*
X136814052Y-100882575D01*
X136730038Y-100832843D01*
X136663515Y-100783316D01*
X136662697Y-100782601D01*
X136626243Y-100751692D01*
X136598196Y-100729683D01*
X136584569Y-100721298D01*
X136583079Y-100723300D01*
X136579708Y-100744926D01*
X136577365Y-100785260D01*
X136576487Y-100838000D01*
X136576487Y-100954703D01*
X136061622Y-100954703D01*
X136047916Y-100954701D01*
X135932965Y-100954500D01*
X135827464Y-100953999D01*
X135734414Y-100953237D01*
X135656817Y-100952249D01*
X135597674Y-100951074D01*
X135559986Y-100949749D01*
X135546757Y-100948311D01*
X135547065Y-100947054D01*
X135555720Y-100928501D01*
X135573863Y-100893645D01*
X135598244Y-100848770D01*
X135649730Y-100755622D01*
X135657279Y-99835981D01*
X136631406Y-99835981D01*
X136631789Y-99908640D01*
X136633644Y-99984985D01*
X136637279Y-100040168D01*
X136642958Y-100077782D01*
X136650946Y-100101421D01*
X136661222Y-100118301D01*
X136699918Y-100164317D01*
X136751765Y-100212221D01*
X136808592Y-100254904D01*
X136862225Y-100285253D01*
X136891982Y-100296389D01*
X136960499Y-100311216D01*
X137049988Y-100318796D01*
X137144338Y-100317648D01*
X137233934Y-100302056D01*
X137308718Y-100269846D01*
X137373421Y-100219567D01*
X137391622Y-100200970D01*
X137439011Y-100137546D01*
X137464652Y-100069184D01*
X137472352Y-99986925D01*
X137470266Y-99943467D01*
X137449635Y-99854005D01*
X137406295Y-99777219D01*
X137339457Y-99712243D01*
X137248331Y-99658215D01*
X137132128Y-99614270D01*
X137085281Y-99602738D01*
X137028568Y-99594842D01*
X136957195Y-99590457D01*
X136864811Y-99588982D01*
X136849804Y-99588983D01*
X136780689Y-99589827D01*
X136721320Y-99591866D01*
X136677600Y-99594833D01*
X136655433Y-99598461D01*
X136652882Y-99599639D01*
X136644635Y-99607035D01*
X136638794Y-99621899D01*
X136634955Y-99648227D01*
X136632713Y-99690018D01*
X136631665Y-99751270D01*
X136631406Y-99835981D01*
X135657279Y-99835981D01*
X135657676Y-99787676D01*
X135658857Y-99646695D01*
X135660509Y-99466893D01*
X135662243Y-99310799D01*
X135664200Y-99176205D01*
X135666519Y-99060905D01*
X135669340Y-98962689D01*
X135672804Y-98879352D01*
X135677050Y-98808685D01*
X135682220Y-98748480D01*
X135688452Y-98696531D01*
X135695887Y-98650630D01*
X135704666Y-98608569D01*
X135714927Y-98568141D01*
X135726813Y-98527137D01*
X135740461Y-98483352D01*
X135794230Y-98346085D01*
X135867865Y-98219222D01*
X135959566Y-98110608D01*
X136070175Y-98019674D01*
X136200530Y-97945853D01*
X136351471Y-97888575D01*
X136523837Y-97847273D01*
X136718469Y-97821378D01*
X136786495Y-97816229D01*
X136901062Y-97812464D01*
X137014616Y-97815854D01*
X137132473Y-97826972D01*
X137259950Y-97846388D01*
X137402363Y-97874674D01*
X137565027Y-97912403D01*
X137602627Y-97921532D01*
X137697049Y-97943996D01*
X137786543Y-97964679D01*
X137865681Y-97982361D01*
X137929036Y-97995820D01*
X137971180Y-98003833D01*
X138068414Y-98019803D01*
X137931716Y-98351118D01*
X137897523Y-98433840D01*
X137863885Y-98514896D01*
X137835023Y-98584101D01*
X137812355Y-98638068D01*
X137797297Y-98673412D01*
X137791267Y-98686746D01*
X137790319Y-98686937D01*
X137772844Y-98680984D01*
X137738483Y-98665728D01*
X137693434Y-98643883D01*
X137599802Y-98601343D01*
X137470958Y-98554830D01*
X137339086Y-98519210D01*
X137209344Y-98495378D01*
X137086889Y-98484227D01*
X136976877Y-98486654D01*
X136884465Y-98503552D01*
X136819969Y-98530364D01*
X136746720Y-98585310D01*
X136690333Y-98659852D01*
X136652421Y-98751695D01*
X136634599Y-98858547D01*
X136628323Y-98957027D01*
X136955945Y-98957924D01*
X137066432Y-98958851D01*
X137188638Y-98962141D01*
X137293035Y-98968351D01*
X137385024Y-98978084D01*
X137470004Y-98991943D01*
X137553377Y-99010533D01*
X137640541Y-99034458D01*
X137770960Y-99079996D01*
X137924360Y-99154988D01*
X138058988Y-99246847D01*
X138173516Y-99354280D01*
X138266616Y-99475995D01*
X138336961Y-99610701D01*
X138383223Y-99757105D01*
X138390468Y-99796536D01*
X138399756Y-99894133D01*
X138400926Y-99986925D01*
X138401128Y-100003034D01*
G36*
X138401128Y-100003034D02*
G01*
X138394962Y-100113736D01*
X138381635Y-100216739D01*
X138361526Y-100302541D01*
X138329440Y-100390818D01*
X138255063Y-100536299D01*
X138159994Y-100664295D01*
X138045218Y-100773933D01*
X137911719Y-100864342D01*
X137760480Y-100934648D01*
X137592487Y-100983981D01*
X137523983Y-100995108D01*
X137426093Y-101002841D01*
X137319484Y-101004580D01*
X137213065Y-101000465D01*
X137115745Y-100990637D01*
X137036433Y-100975236D01*
X136996579Y-100963110D01*
X136906063Y-100927626D01*
X136814052Y-100882575D01*
X136730038Y-100832843D01*
X136663515Y-100783316D01*
X136662697Y-100782601D01*
X136626243Y-100751692D01*
X136598196Y-100729683D01*
X136584569Y-100721298D01*
X136583079Y-100723300D01*
X136579708Y-100744926D01*
X136577365Y-100785260D01*
X136576487Y-100838000D01*
X136576487Y-100954703D01*
X136061622Y-100954703D01*
X136047916Y-100954701D01*
X135932965Y-100954500D01*
X135827464Y-100953999D01*
X135734414Y-100953237D01*
X135656817Y-100952249D01*
X135597674Y-100951074D01*
X135559986Y-100949749D01*
X135546757Y-100948311D01*
X135547065Y-100947054D01*
X135555720Y-100928501D01*
X135573863Y-100893645D01*
X135598244Y-100848770D01*
X135649730Y-100755622D01*
X135657279Y-99835981D01*
X136631406Y-99835981D01*
X136631789Y-99908640D01*
X136633644Y-99984985D01*
X136637279Y-100040168D01*
X136642958Y-100077782D01*
X136650946Y-100101421D01*
X136661222Y-100118301D01*
X136699918Y-100164317D01*
X136751765Y-100212221D01*
X136808592Y-100254904D01*
X136862225Y-100285253D01*
X136891982Y-100296389D01*
X136960499Y-100311216D01*
X137049988Y-100318796D01*
X137144338Y-100317648D01*
X137233934Y-100302056D01*
X137308718Y-100269846D01*
X137373421Y-100219567D01*
X137391622Y-100200970D01*
X137439011Y-100137546D01*
X137464652Y-100069184D01*
X137472352Y-99986925D01*
X137470266Y-99943467D01*
X137449635Y-99854005D01*
X137406295Y-99777219D01*
X137339457Y-99712243D01*
X137248331Y-99658215D01*
X137132128Y-99614270D01*
X137085281Y-99602738D01*
X137028568Y-99594842D01*
X136957195Y-99590457D01*
X136864811Y-99588982D01*
X136849804Y-99588983D01*
X136780689Y-99589827D01*
X136721320Y-99591866D01*
X136677600Y-99594833D01*
X136655433Y-99598461D01*
X136652882Y-99599639D01*
X136644635Y-99607035D01*
X136638794Y-99621899D01*
X136634955Y-99648227D01*
X136632713Y-99690018D01*
X136631665Y-99751270D01*
X136631406Y-99835981D01*
X135657279Y-99835981D01*
X135657676Y-99787676D01*
X135658857Y-99646695D01*
X135660509Y-99466893D01*
X135662243Y-99310799D01*
X135664200Y-99176205D01*
X135666519Y-99060905D01*
X135669340Y-98962689D01*
X135672804Y-98879352D01*
X135677050Y-98808685D01*
X135682220Y-98748480D01*
X135688452Y-98696531D01*
X135695887Y-98650630D01*
X135704666Y-98608569D01*
X135714927Y-98568141D01*
X135726813Y-98527137D01*
X135740461Y-98483352D01*
X135794230Y-98346085D01*
X135867865Y-98219222D01*
X135959566Y-98110608D01*
X136070175Y-98019674D01*
X136200530Y-97945853D01*
X136351471Y-97888575D01*
X136523837Y-97847273D01*
X136718469Y-97821378D01*
X136786495Y-97816229D01*
X136901062Y-97812464D01*
X137014616Y-97815854D01*
X137132473Y-97826972D01*
X137259950Y-97846388D01*
X137402363Y-97874674D01*
X137565027Y-97912403D01*
X137602627Y-97921532D01*
X137697049Y-97943996D01*
X137786543Y-97964679D01*
X137865681Y-97982361D01*
X137929036Y-97995820D01*
X137971180Y-98003833D01*
X138068414Y-98019803D01*
X137931716Y-98351118D01*
X137897523Y-98433840D01*
X137863885Y-98514896D01*
X137835023Y-98584101D01*
X137812355Y-98638068D01*
X137797297Y-98673412D01*
X137791267Y-98686746D01*
X137790319Y-98686937D01*
X137772844Y-98680984D01*
X137738483Y-98665728D01*
X137693434Y-98643883D01*
X137599802Y-98601343D01*
X137470958Y-98554830D01*
X137339086Y-98519210D01*
X137209344Y-98495378D01*
X137086889Y-98484227D01*
X136976877Y-98486654D01*
X136884465Y-98503552D01*
X136819969Y-98530364D01*
X136746720Y-98585310D01*
X136690333Y-98659852D01*
X136652421Y-98751695D01*
X136634599Y-98858547D01*
X136628323Y-98957027D01*
X136955945Y-98957924D01*
X137066432Y-98958851D01*
X137188638Y-98962141D01*
X137293035Y-98968351D01*
X137385024Y-98978084D01*
X137470004Y-98991943D01*
X137553377Y-99010533D01*
X137640541Y-99034458D01*
X137770960Y-99079996D01*
X137924360Y-99154988D01*
X138058988Y-99246847D01*
X138173516Y-99354280D01*
X138266616Y-99475995D01*
X138336961Y-99610701D01*
X138383223Y-99757105D01*
X138390468Y-99796536D01*
X138399756Y-99894133D01*
X138400926Y-99986925D01*
X138401128Y-100003034D01*
G37*
X135297755Y-99571001D02*
X135294842Y-99698057D01*
X135286512Y-99810109D01*
X135272120Y-99913252D01*
X135251021Y-100013581D01*
X135222570Y-100117190D01*
X135179428Y-100241033D01*
X135100190Y-100408216D01*
X135002993Y-100557961D01*
X134889325Y-100688852D01*
X134760672Y-100799474D01*
X134618521Y-100888412D01*
X134464359Y-100954250D01*
X134299674Y-100995574D01*
X134297692Y-100995906D01*
X134177337Y-101007486D01*
X134045099Y-101005941D01*
X133910404Y-100992222D01*
X133782684Y-100967283D01*
X133671366Y-100932077D01*
X133623851Y-100910653D01*
X133561969Y-100878090D01*
X133498380Y-100840846D01*
X133439721Y-100803021D01*
X133392626Y-100768714D01*
X133363730Y-100742024D01*
X133357097Y-100734696D01*
X133349189Y-100732135D01*
X133343903Y-100744851D01*
X133340008Y-100776899D01*
X133336271Y-100832331D01*
X133329406Y-100947838D01*
X132803569Y-100951434D01*
X132277732Y-100955031D01*
X132314116Y-100892946D01*
X132316285Y-100889276D01*
X132326865Y-100872044D01*
X132336463Y-100856693D01*
X132345131Y-100841889D01*
X132352920Y-100826299D01*
X132359882Y-100808589D01*
X132366069Y-100787424D01*
X132371531Y-100761473D01*
X132376322Y-100729400D01*
X132380492Y-100689872D01*
X132384094Y-100641557D01*
X132387178Y-100583119D01*
X132389797Y-100513226D01*
X132392002Y-100430544D01*
X132393844Y-100333739D01*
X132395376Y-100221477D01*
X132396649Y-100092425D01*
X132397715Y-99945250D01*
X132398625Y-99778618D01*
X132399431Y-99591194D01*
X132400185Y-99381646D01*
X132400938Y-99148640D01*
X132401742Y-98890842D01*
X132402451Y-98668982D01*
X133398054Y-98668982D01*
X133398054Y-100096205D01*
X133466703Y-100141233D01*
X133493103Y-100157453D01*
X133553552Y-100189857D01*
X133610865Y-100215661D01*
X133635965Y-100224398D01*
X133715831Y-100241841D01*
X133816811Y-100250748D01*
X133868159Y-100252601D01*
X133915823Y-100252179D01*
X133951304Y-100247419D01*
X133983129Y-100237014D01*
X134019823Y-100219659D01*
X134090342Y-100173169D01*
X134151435Y-100107406D01*
X134200337Y-100022658D01*
X134237515Y-99917597D01*
X134263432Y-99790895D01*
X134278556Y-99641222D01*
X134283350Y-99467252D01*
X134283117Y-99427700D01*
X134276225Y-99244444D01*
X134259488Y-99084985D01*
X134232501Y-98947643D01*
X134194855Y-98830734D01*
X134146144Y-98732577D01*
X134085961Y-98651488D01*
X134060993Y-98626740D01*
X133983613Y-98575181D01*
X133892776Y-98543807D01*
X133792419Y-98532795D01*
X133686475Y-98542324D01*
X133578879Y-98572572D01*
X133473568Y-98623718D01*
X133398054Y-98668982D01*
X132402451Y-98668982D01*
X132402649Y-98606919D01*
X132409514Y-96513135D01*
X132955271Y-96509545D01*
X132994959Y-96509304D01*
X133111730Y-96508825D01*
X133218535Y-96508727D01*
X133312458Y-96508992D01*
X133390584Y-96509599D01*
X133449998Y-96510528D01*
X133487784Y-96511759D01*
X133501027Y-96513272D01*
X133499333Y-96518069D01*
X133486694Y-96540810D01*
X133465760Y-96573881D01*
X133463672Y-96577043D01*
X133447442Y-96602577D01*
X133433833Y-96627421D01*
X133422616Y-96654134D01*
X133413559Y-96685274D01*
X133406431Y-96723402D01*
X133401003Y-96771075D01*
X133397043Y-96830853D01*
X133394320Y-96905295D01*
X133392605Y-96996960D01*
X133391665Y-97108408D01*
X133391270Y-97242196D01*
X133391189Y-97400885D01*
X133391333Y-97524781D01*
X133391774Y-97646419D01*
X133392479Y-97756711D01*
X133393417Y-97852973D01*
X133394557Y-97932519D01*
X133395865Y-97992663D01*
X133397310Y-98030718D01*
X133398859Y-98044000D01*
X133403858Y-98041939D01*
X133425831Y-98027422D01*
X133457211Y-98003581D01*
X133502704Y-97971519D01*
X133588178Y-97924279D01*
X133685872Y-97882140D01*
X133786666Y-97849370D01*
X133871352Y-97832660D01*
X133976823Y-97822009D01*
X134090971Y-97818318D01*
X134204989Y-97821594D01*
X134310067Y-97831840D01*
X134397396Y-97849060D01*
X134486317Y-97878068D01*
X134634658Y-97948389D01*
X134772010Y-98041877D01*
X134895841Y-98156377D01*
X135003615Y-98289739D01*
X135092799Y-98439808D01*
X135114940Y-98485826D01*
X135176987Y-98641048D01*
X135225496Y-98809513D01*
X135261080Y-98994192D01*
X135284353Y-99198053D01*
X135295927Y-99424067D01*
X135296465Y-99467252D01*
X135297755Y-99571001D01*
G36*
X135297755Y-99571001D02*
G01*
X135294842Y-99698057D01*
X135286512Y-99810109D01*
X135272120Y-99913252D01*
X135251021Y-100013581D01*
X135222570Y-100117190D01*
X135179428Y-100241033D01*
X135100190Y-100408216D01*
X135002993Y-100557961D01*
X134889325Y-100688852D01*
X134760672Y-100799474D01*
X134618521Y-100888412D01*
X134464359Y-100954250D01*
X134299674Y-100995574D01*
X134297692Y-100995906D01*
X134177337Y-101007486D01*
X134045099Y-101005941D01*
X133910404Y-100992222D01*
X133782684Y-100967283D01*
X133671366Y-100932077D01*
X133623851Y-100910653D01*
X133561969Y-100878090D01*
X133498380Y-100840846D01*
X133439721Y-100803021D01*
X133392626Y-100768714D01*
X133363730Y-100742024D01*
X133357097Y-100734696D01*
X133349189Y-100732135D01*
X133343903Y-100744851D01*
X133340008Y-100776899D01*
X133336271Y-100832331D01*
X133329406Y-100947838D01*
X132803569Y-100951434D01*
X132277732Y-100955031D01*
X132314116Y-100892946D01*
X132316285Y-100889276D01*
X132326865Y-100872044D01*
X132336463Y-100856693D01*
X132345131Y-100841889D01*
X132352920Y-100826299D01*
X132359882Y-100808589D01*
X132366069Y-100787424D01*
X132371531Y-100761473D01*
X132376322Y-100729400D01*
X132380492Y-100689872D01*
X132384094Y-100641557D01*
X132387178Y-100583119D01*
X132389797Y-100513226D01*
X132392002Y-100430544D01*
X132393844Y-100333739D01*
X132395376Y-100221477D01*
X132396649Y-100092425D01*
X132397715Y-99945250D01*
X132398625Y-99778618D01*
X132399431Y-99591194D01*
X132400185Y-99381646D01*
X132400938Y-99148640D01*
X132401742Y-98890842D01*
X132402451Y-98668982D01*
X133398054Y-98668982D01*
X133398054Y-100096205D01*
X133466703Y-100141233D01*
X133493103Y-100157453D01*
X133553552Y-100189857D01*
X133610865Y-100215661D01*
X133635965Y-100224398D01*
X133715831Y-100241841D01*
X133816811Y-100250748D01*
X133868159Y-100252601D01*
X133915823Y-100252179D01*
X133951304Y-100247419D01*
X133983129Y-100237014D01*
X134019823Y-100219659D01*
X134090342Y-100173169D01*
X134151435Y-100107406D01*
X134200337Y-100022658D01*
X134237515Y-99917597D01*
X134263432Y-99790895D01*
X134278556Y-99641222D01*
X134283350Y-99467252D01*
X134283117Y-99427700D01*
X134276225Y-99244444D01*
X134259488Y-99084985D01*
X134232501Y-98947643D01*
X134194855Y-98830734D01*
X134146144Y-98732577D01*
X134085961Y-98651488D01*
X134060993Y-98626740D01*
X133983613Y-98575181D01*
X133892776Y-98543807D01*
X133792419Y-98532795D01*
X133686475Y-98542324D01*
X133578879Y-98572572D01*
X133473568Y-98623718D01*
X133398054Y-98668982D01*
X132402451Y-98668982D01*
X132402649Y-98606919D01*
X132409514Y-96513135D01*
X132955271Y-96509545D01*
X132994959Y-96509304D01*
X133111730Y-96508825D01*
X133218535Y-96508727D01*
X133312458Y-96508992D01*
X133390584Y-96509599D01*
X133449998Y-96510528D01*
X133487784Y-96511759D01*
X133501027Y-96513272D01*
X133499333Y-96518069D01*
X133486694Y-96540810D01*
X133465760Y-96573881D01*
X133463672Y-96577043D01*
X133447442Y-96602577D01*
X133433833Y-96627421D01*
X133422616Y-96654134D01*
X133413559Y-96685274D01*
X133406431Y-96723402D01*
X133401003Y-96771075D01*
X133397043Y-96830853D01*
X133394320Y-96905295D01*
X133392605Y-96996960D01*
X133391665Y-97108408D01*
X133391270Y-97242196D01*
X133391189Y-97400885D01*
X133391333Y-97524781D01*
X133391774Y-97646419D01*
X133392479Y-97756711D01*
X133393417Y-97852973D01*
X133394557Y-97932519D01*
X133395865Y-97992663D01*
X133397310Y-98030718D01*
X133398859Y-98044000D01*
X133403858Y-98041939D01*
X133425831Y-98027422D01*
X133457211Y-98003581D01*
X133502704Y-97971519D01*
X133588178Y-97924279D01*
X133685872Y-97882140D01*
X133786666Y-97849370D01*
X133871352Y-97832660D01*
X133976823Y-97822009D01*
X134090971Y-97818318D01*
X134204989Y-97821594D01*
X134310067Y-97831840D01*
X134397396Y-97849060D01*
X134486317Y-97878068D01*
X134634658Y-97948389D01*
X134772010Y-98041877D01*
X134895841Y-98156377D01*
X135003615Y-98289739D01*
X135092799Y-98439808D01*
X135114940Y-98485826D01*
X135176987Y-98641048D01*
X135225496Y-98809513D01*
X135261080Y-98994192D01*
X135284353Y-99198053D01*
X135295927Y-99424067D01*
X135296465Y-99467252D01*
X135297755Y-99571001D01*
G37*
X139782847Y-96710078D02*
X139967348Y-96727015D01*
X140138749Y-96761174D01*
X140303427Y-96813991D01*
X140467756Y-96886905D01*
X140630424Y-96980001D01*
X140804999Y-97106914D01*
X140966888Y-97253650D01*
X141112528Y-97416576D01*
X141238352Y-97592059D01*
X141340797Y-97776468D01*
X141350096Y-97796196D01*
X141427973Y-97986613D01*
X141487148Y-98184477D01*
X141528387Y-98393570D01*
X141552452Y-98617670D01*
X141560111Y-98860559D01*
X141550799Y-99111643D01*
X141521244Y-99358912D01*
X141470987Y-99590383D01*
X141399577Y-99807699D01*
X141306566Y-100012502D01*
X141191504Y-100206433D01*
X141083422Y-100354594D01*
X140934184Y-100521300D01*
X140771521Y-100664089D01*
X140595505Y-100782914D01*
X140406207Y-100877729D01*
X140203697Y-100948487D01*
X139988048Y-100995142D01*
X139985587Y-100995505D01*
X139944058Y-100999149D01*
X139881388Y-101001852D01*
X139803373Y-101003487D01*
X139715808Y-101003930D01*
X139624487Y-101003052D01*
X139560484Y-101001767D01*
X139465523Y-100998790D01*
X139389428Y-100994528D01*
X139326712Y-100988526D01*
X139271885Y-100980329D01*
X139219460Y-100969482D01*
X139160477Y-100955465D01*
X139098940Y-100939503D01*
X139043286Y-100922758D01*
X138988463Y-100903268D01*
X138929422Y-100879073D01*
X138861111Y-100848210D01*
X138778478Y-100808719D01*
X138676473Y-100758639D01*
X138394352Y-100619215D01*
X138620313Y-100248067D01*
X138649896Y-100199490D01*
X138703043Y-100112289D01*
X138750614Y-100034331D01*
X138790868Y-99968458D01*
X138822068Y-99917516D01*
X138842476Y-99884347D01*
X138850352Y-99871795D01*
X138852542Y-99872170D01*
X138870188Y-99884454D01*
X138901189Y-99909947D01*
X138940647Y-99944694D01*
X139010920Y-100004729D01*
X139136371Y-100093506D01*
X139258089Y-100155394D01*
X139346045Y-100186300D01*
X139494817Y-100217885D01*
X139640989Y-100223484D01*
X139782443Y-100203477D01*
X139917058Y-100158246D01*
X140042714Y-100088173D01*
X140157293Y-99993639D01*
X140221049Y-99924011D01*
X140310867Y-99795224D01*
X140384567Y-99645773D01*
X140442501Y-99474892D01*
X140485021Y-99281817D01*
X140486951Y-99269831D01*
X140495863Y-99192143D01*
X140502497Y-99095617D01*
X140506800Y-98986849D01*
X140508719Y-98872434D01*
X140508198Y-98758968D01*
X140505185Y-98653046D01*
X140499626Y-98561263D01*
X140491467Y-98490217D01*
X140460194Y-98329280D01*
X140407574Y-98141286D01*
X140341395Y-97976700D01*
X140261747Y-97835649D01*
X140168717Y-97718260D01*
X140062394Y-97624663D01*
X139942867Y-97554982D01*
X139810224Y-97509347D01*
X139780795Y-97503683D01*
X139707044Y-97496288D01*
X139620856Y-97493874D01*
X139531884Y-97496308D01*
X139449786Y-97503460D01*
X139384217Y-97515195D01*
X139274986Y-97552561D01*
X139148227Y-97620778D01*
X139035358Y-97710550D01*
X139015437Y-97729461D01*
X138979340Y-97762918D01*
X138953829Y-97785438D01*
X138943464Y-97792928D01*
X138940913Y-97789346D01*
X138925206Y-97766723D01*
X138896832Y-97725647D01*
X138857664Y-97668836D01*
X138809578Y-97599012D01*
X138754448Y-97518893D01*
X138694149Y-97431201D01*
X138447514Y-97072402D01*
X138502611Y-97055895D01*
X138508360Y-97054024D01*
X138545785Y-97039166D01*
X138599744Y-97015208D01*
X138663902Y-96985031D01*
X138731929Y-96951517D01*
X138761572Y-96936700D01*
X138926176Y-96860201D01*
X139077890Y-96801045D01*
X139222548Y-96757718D01*
X139365986Y-96728707D01*
X139514038Y-96712499D01*
X139672541Y-96707580D01*
X139782847Y-96710078D01*
G36*
X139782847Y-96710078D02*
G01*
X139967348Y-96727015D01*
X140138749Y-96761174D01*
X140303427Y-96813991D01*
X140467756Y-96886905D01*
X140630424Y-96980001D01*
X140804999Y-97106914D01*
X140966888Y-97253650D01*
X141112528Y-97416576D01*
X141238352Y-97592059D01*
X141340797Y-97776468D01*
X141350096Y-97796196D01*
X141427973Y-97986613D01*
X141487148Y-98184477D01*
X141528387Y-98393570D01*
X141552452Y-98617670D01*
X141560111Y-98860559D01*
X141550799Y-99111643D01*
X141521244Y-99358912D01*
X141470987Y-99590383D01*
X141399577Y-99807699D01*
X141306566Y-100012502D01*
X141191504Y-100206433D01*
X141083422Y-100354594D01*
X140934184Y-100521300D01*
X140771521Y-100664089D01*
X140595505Y-100782914D01*
X140406207Y-100877729D01*
X140203697Y-100948487D01*
X139988048Y-100995142D01*
X139985587Y-100995505D01*
X139944058Y-100999149D01*
X139881388Y-101001852D01*
X139803373Y-101003487D01*
X139715808Y-101003930D01*
X139624487Y-101003052D01*
X139560484Y-101001767D01*
X139465523Y-100998790D01*
X139389428Y-100994528D01*
X139326712Y-100988526D01*
X139271885Y-100980329D01*
X139219460Y-100969482D01*
X139160477Y-100955465D01*
X139098940Y-100939503D01*
X139043286Y-100922758D01*
X138988463Y-100903268D01*
X138929422Y-100879073D01*
X138861111Y-100848210D01*
X138778478Y-100808719D01*
X138676473Y-100758639D01*
X138394352Y-100619215D01*
X138620313Y-100248067D01*
X138649896Y-100199490D01*
X138703043Y-100112289D01*
X138750614Y-100034331D01*
X138790868Y-99968458D01*
X138822068Y-99917516D01*
X138842476Y-99884347D01*
X138850352Y-99871795D01*
X138852542Y-99872170D01*
X138870188Y-99884454D01*
X138901189Y-99909947D01*
X138940647Y-99944694D01*
X139010920Y-100004729D01*
X139136371Y-100093506D01*
X139258089Y-100155394D01*
X139346045Y-100186300D01*
X139494817Y-100217885D01*
X139640989Y-100223484D01*
X139782443Y-100203477D01*
X139917058Y-100158246D01*
X140042714Y-100088173D01*
X140157293Y-99993639D01*
X140221049Y-99924011D01*
X140310867Y-99795224D01*
X140384567Y-99645773D01*
X140442501Y-99474892D01*
X140485021Y-99281817D01*
X140486951Y-99269831D01*
X140495863Y-99192143D01*
X140502497Y-99095617D01*
X140506800Y-98986849D01*
X140508719Y-98872434D01*
X140508198Y-98758968D01*
X140505185Y-98653046D01*
X140499626Y-98561263D01*
X140491467Y-98490217D01*
X140460194Y-98329280D01*
X140407574Y-98141286D01*
X140341395Y-97976700D01*
X140261747Y-97835649D01*
X140168717Y-97718260D01*
X140062394Y-97624663D01*
X139942867Y-97554982D01*
X139810224Y-97509347D01*
X139780795Y-97503683D01*
X139707044Y-97496288D01*
X139620856Y-97493874D01*
X139531884Y-97496308D01*
X139449786Y-97503460D01*
X139384217Y-97515195D01*
X139274986Y-97552561D01*
X139148227Y-97620778D01*
X139035358Y-97710550D01*
X139015437Y-97729461D01*
X138979340Y-97762918D01*
X138953829Y-97785438D01*
X138943464Y-97792928D01*
X138940913Y-97789346D01*
X138925206Y-97766723D01*
X138896832Y-97725647D01*
X138857664Y-97668836D01*
X138809578Y-97599012D01*
X138754448Y-97518893D01*
X138694149Y-97431201D01*
X138447514Y-97072402D01*
X138502611Y-97055895D01*
X138508360Y-97054024D01*
X138545785Y-97039166D01*
X138599744Y-97015208D01*
X138663902Y-96985031D01*
X138731929Y-96951517D01*
X138761572Y-96936700D01*
X138926176Y-96860201D01*
X139077890Y-96801045D01*
X139222548Y-96757718D01*
X139365986Y-96728707D01*
X139514038Y-96712499D01*
X139672541Y-96707580D01*
X139782847Y-96710078D01*
G37*
X142895012Y-95578581D02*
X143000536Y-95604436D01*
X143100560Y-95650841D01*
X143191934Y-95717803D01*
X143271505Y-95805328D01*
X143336120Y-95913426D01*
X143353443Y-95951506D01*
X143367477Y-95990103D01*
X143375352Y-96028689D01*
X143378803Y-96076415D01*
X143379568Y-96142433D01*
X143379105Y-96197381D01*
X143376319Y-96247880D01*
X143369487Y-96287280D01*
X143356904Y-96324628D01*
X143336864Y-96368973D01*
X143331066Y-96380791D01*
X143262545Y-96489001D01*
X143176365Y-96578033D01*
X143074972Y-96645797D01*
X142960811Y-96690206D01*
X142902234Y-96702598D01*
X142783399Y-96708397D01*
X142668300Y-96689634D01*
X142560312Y-96648232D01*
X142462809Y-96586115D01*
X142379168Y-96505207D01*
X142312763Y-96407432D01*
X142266969Y-96294714D01*
X142250214Y-96202471D01*
X142248705Y-96100677D01*
X142262332Y-96001660D01*
X142290445Y-95915892D01*
X142322930Y-95854573D01*
X142395247Y-95757288D01*
X142480978Y-95680507D01*
X142576973Y-95624238D01*
X142680079Y-95588490D01*
X142787142Y-95573268D01*
X142895012Y-95578581D01*
G36*
X142895012Y-95578581D02*
G01*
X143000536Y-95604436D01*
X143100560Y-95650841D01*
X143191934Y-95717803D01*
X143271505Y-95805328D01*
X143336120Y-95913426D01*
X143353443Y-95951506D01*
X143367477Y-95990103D01*
X143375352Y-96028689D01*
X143378803Y-96076415D01*
X143379568Y-96142433D01*
X143379105Y-96197381D01*
X143376319Y-96247880D01*
X143369487Y-96287280D01*
X143356904Y-96324628D01*
X143336864Y-96368973D01*
X143331066Y-96380791D01*
X143262545Y-96489001D01*
X143176365Y-96578033D01*
X143074972Y-96645797D01*
X142960811Y-96690206D01*
X142902234Y-96702598D01*
X142783399Y-96708397D01*
X142668300Y-96689634D01*
X142560312Y-96648232D01*
X142462809Y-96586115D01*
X142379168Y-96505207D01*
X142312763Y-96407432D01*
X142266969Y-96294714D01*
X142250214Y-96202471D01*
X142248705Y-96100677D01*
X142262332Y-96001660D01*
X142290445Y-95915892D01*
X142322930Y-95854573D01*
X142395247Y-95757288D01*
X142480978Y-95680507D01*
X142576973Y-95624238D01*
X142680079Y-95588490D01*
X142787142Y-95573268D01*
X142895012Y-95578581D01*
G37*
%TD*%
M02*
